{
.appVersion = "1354";
classes = (
{
code = "zero.osf\012one.osf\012two.osf\012three.osf\012four.osf\012five.osf\012six.osf\012seven.osf\012eight.osf\012nine.osf\012zero.osf.zero\012";
name = PropOld;
},
{
code = "zero.lf\012one.lf\012two.lf\012three.lf\012four.lf\012five.lf\012six.lf\012seven.lf\012eight.lf\012nine.lf\012zero.lf.zero\012";
name = PropLining;
},
{
code = "zero.psc\012one.psc\012two.psc\012three.psc\012four.psc\012five.psc\012six.psc\012seven.psc\012eight.psc\012nine.psc\012zero.psc.zero";
name = PropSmallcap;
},
{
code = "zero.tosf\012one.tosf\012two.tosf\012three.tosf\012four.tosf\012five.tosf\012six.tosf\012seven.tosf\012eight.tosf\012nine.tosf\012zero.tosf.zero";
name = TabOld;
},
{
code = "zero\012one\012two\012three\012four\012five\012six\012seven\012eight\012nine\012zero.zero";
name = TabLining;
},
{
code = "zero.tsc\012one.tsc\012two.tsc\012three.tsc\012four.tsc\012five.tsc\012six.tsc\012seven.tsc\012eight.tsc\012nine.tsc\012zero.tsc.zero";
name = TabSmallcap;
},
{
code = "zero\012one\012two\012three\012four\012five\012six\012seven\012eight\012nine\012\012a\012b\012c\012d\012e\012f\012g\012h\012i\012j\012k\012l\012m\012n\012o\012p\012q\012r\012s\012t\012u\012v\012w\012x\012y\012z\012\012hyphen\012parenleft\012parenright\012period\012comma\012cent\012dollar\012euro\012plus\012minus\012equal";
name = smallFiguresOFF;
},
{

glyphs = (
{
glyphname = .notdef;
lastChange = "2020-07-10 12:19:54 +0000";
layers = (
{
color = 4;
layerId = "5B01CDE3-ACDA-4D2B-9E53-A993574CFD15";
paths = (
{
closed = 1;
nodes = (
"116 0 LINE",
"780 0 LINE",
"780 720 LINE",
"116 720 LINE"
);
},
{
closed = 1;
nodes = (
"188 656 LINE",
"708 656 LINE",
"708 64 LINE",
"188 64 LINE"
);
},
{
closed = 1;
nodes = (
"274 481 LINE",
"407 348 LINE",
"274 215 LINE",
"319 170 LINE",
"452 303 LINE",
"585 170 LINE",
"630 215 LINE",
"497 348 LINE",
"630 481 LINE",
"585 526 LINE",
"452 393 LINE",
"319 526 LINE"
);
}
);
width = 856;
},
{
color = 4;
layerId = "FA792B6B-505C-4DC3-9C40-F9BEDA01661E";
paths = (
{
closed = 1;
nodes = (
"116 0 LINE",
"780 0 LINE",
"780 720 LINE",
"116 720 LINE"
);
},
{
closed = 1;
nodes = (
"188 656 LINE",
"708 656 LINE",
"708 64 LINE",
"188 64 LINE"
);
},
{
closed = 1;
nodes = (
"274 481 LINE",
"407 348 LINE",
"274 215 LINE",
"319 170 LINE",
"452 303 LINE",
"585 170 LINE",
"630 215 LINE",
"497 348 LINE",
"630 481 LINE",
"585 526 LINE",
"452 393 LINE",
"319 526 LINE"
);
}
);
width = 856;
}
);
note = .notdef;
},
{
color = 9;
glyphname = A;
lastChange = "2020-07-10 12:19:54 +0000";
layers = (
{
anchors = (
{
name = bottom;
position = "{278, 0}";
},
{
name = ogonek;
position = "{518, 0}";
},
{
name = top;
position = "{449, 720}";
}
);
color = 4;
layerId = "5B01CDE3-ACDA-4D2B-9E53-A993574CFD15";
paths = (
{
closed = 1;
nodes = (
"98 0 LINE",
"268 480 LINE SMOOTH",
"305 584 OFFCURVE",
"362 644 OFFCURVE",
"494 644 CURVE SMOOTH",
"525 644 OFFCURVE",
"556 640 OFFCURVE",
"568 632 CURVE",
"560 660 LINE",
"547 641 OFFCURVE",
"542 618 OFFCURVE",
"538 596 CURVE SMOOTH",
"422 0 LINE",
"518 0 LINE",
"626 556 LINE SMOOTH",
"634 596 OFFCURVE",
"644 660 OFFCURVE",
"658 700 CURVE",
"658 712 LINE",
"608 724 OFFCURVE",
"562 728 OFFCURVE",
"514 728 CURVE SMOOTH",
"314 728 OFFCURVE",
"229 648 OFFCURVE",
"172 488 CURVE SMOOTH",
"-2 0 LINE"
);
},
{
closed = 1;
nodes = (
"484 220 LINE",
"500 304 LINE",
"184 304 LINE",
"156 220 LINE"
);
}
);
width = 662;
},
{
anchors = (
{
name = bottom;
position = "{315, 0}";
},
{
name = ogonek;
position = "{619, 0}";
},
{
name = top;
position = "{509, 720}";
}
);
color = 4;
layerId = "FA792B6B-505C-4DC3-9C40-F9BEDA01661E";
paths = (
{
closed = 1;
nodes = (
"195 0 LINE",
"359 460 LINE SMOOTH",
"382 523 OFFCURVE",
"415 552 OFFCURVE",
"491 552 CURVE SMOOTH",
"501 552 OFFCURVE",
"524 549 OFFCURVE",
"540 544 CURVE",
"534 590 LINE",
"526 570 OFFCURVE",
"511 531 OFFCURVE",
"503 488 CURVE SMOOTH",
"407 0 LINE",
"619 0 LINE",
"727 552 LINE SMOOTH",
"735 592 OFFCURVE",
"750 652 OFFCURVE",
"766 688 CURVE",
"758 700 LINE",
"703 716 OFFCURVE",
"639 728 OFFCURVE",
"563 728 CURVE SMOOTH",
"383 728 OFFCURVE",
"229 698 OFFCURVE",
"147 468 CURVE SMOOTH",
"-21 0 LINE"
);
},
{
closed = 1;
nodes = (
"492 168 LINE",
"524 336 LINE",
"236 336 LINE",
"188 168 LINE"
);
}
);
width = 736;
}
);
leftKerningGroup = A;
note = A;
rightKerningGroup = A;
unicode = 0041;
},
{
glyphname = B;
lastChange = "2020-07-10 12:19:54 +0000";
layers = (
{
anchors = (
{
name = bottom;
position = "{267, 0}";
},
{
name = top;
position = "{407, 720}";
}
);
color = 4;
layerId = "5B01CDE3-ACDA-4D2B-9E53-A993574CFD15";
paths = (
{
closed = 1;
nodes = (
"338 0 LINE SMOOTH",
"493 0 OFFCURVE",
"570 104 OFFCURVE",
"570 200 CURVE SMOOTH",
"570 268 OFFCURVE",
"532 316 OFFCURVE",
"468 336 CURVE",
"468 312 LINE",
"576 356 OFFCURVE",
"628 458 OFFCURVE",
"628 548 CURVE SMOOTH",
"628 664 OFFCURVE",
"562 720 OFFCURVE",
"418 720 CURVE SMOOTH",
"248 720 LINE",
"232 636 LINE",
"418 636 LINE SMOOTH",
"490 636 OFFCURVE",
"532 612 OFFCURVE",
"532 544 CURVE SMOOTH",
"532 456 OFFCURVE",
"470 364 OFFCURVE",
"362 364 CURVE SMOOTH",
"180 364 LINE",
"164 280 LINE",
"376 280 LINE SMOOTH",
"436 280 OFFCURVE",
"474 256 OFFCURVE",
"474 204 CURVE SMOOTH",
"474 124 OFFCURVE",
"410 84 OFFCURVE",
"338 84 CURVE SMOOTH",
"124 84 LINE",
"108 0 LINE"
);
},
{
closed = 1;
nodes = (
"140 0 LINE",
"280 720 LINE",
"184 720 LINE",
"44 0 LINE"
);
}
);
width = 640;
},
{
anchors = (
{
name = bottom;
position = "{299, 0}";
},
{
name = top;
position = "{439, 720}";
}
);
color = 4;
layerId = "FA792B6B-505C-4DC3-9C40-F9BEDA01661E";
paths = (
{
closed = 1;
nodes = (
"368 0 LINE SMOOTH",
"528 0 OFFCURVE",
"656 74 OFFCURVE",
"656 216 CURVE SMOOTH",
"656 295 OFFCURVE",
"606 344 OFFCURVE",
"508 356 CURVE",
"516 308 LINE",
"629 348 OFFCURVE",
"696 427 OFFCURVE",
"696 536 CURVE SMOOTH",
"696 632 OFFCURVE",
"624 720 OFFCURVE",
"456 720 CURVE SMOOTH",
"308 720 LINE",
"276 548 LINE",
"424 548 LINE SMOOTH",
"456 548 OFFCURVE",
"488 536 OFFCURVE",
"488 492 CURVE SMOOTH",
"488 444 OFFCURVE",
"452 404 OFFCURVE",
"400 404 CURVE SMOOTH",
"248 404 LINE",
"220 256 LINE",
"408 256 LINE SMOOTH",
"436 256 OFFCURVE",
"448 240 OFFCURVE",
"448 220 CURVE SMOOTH",
"448 188 OFFCURVE",
"424 164 OFFCURVE",
"392 164 CURVE SMOOTH",
"200 164 LINE",
"168 0 LINE"
);
},
{
closed = 1;
nodes = (
"232 0 LINE",
"372 720 LINE",
"160 720 LINE",
"20 0 LINE"
);
}
);
width = 704;
}
);
leftKerningGroup = B;
note = B;
rightKerningGroup = B;
unicode = 0042;
},
{
glyphname = C;
lastChange = "2020-07-10 12:19:54 +0000";
layers = (
{
anchors = (
{
name = bottom;
position = "{313, 0}";
},
{
name = top;
position = "{453, 720}";
}
);
color = 4;
layerId = "5B01CDE3-ACDA-4D2B-9E53-A993574CFD15";
paths = (
{
closed = 1;
nodes = (
"68 104 OFFCURVE",
"172 -12 OFFCURVE",
"376 -12 CURVE SMOOTH",
"436 -12 OFFCURVE",
"492 0 OFFCURVE",
"532 20 CURVE",
"552 112 LINE",
"544 112 LINE",
"500 88 OFFCURVE",
"444 76 OFFCURVE",
"384 76 CURVE SMOOTH",
"248 76 OFFCURVE",
"168 140 OFFCURVE",
"168 296 CURVE SMOOTH",
"168 476 OFFCURVE",
"280 644 OFFCURVE",
"472 644 CURVE SMOOTH",
"548 644 OFFCURVE",
"592 632 OFFCURVE",
"630 608 CURVE",
"638 608 LINE",
"656 700 LINE",
"616 720 OFFCURVE",
"544 732 OFFCURVE",
"484 732 CURVE SMOOTH",
"208 732 OFFCURVE",
"68 512 OFFCURVE",
"68 296 CURVE SMOOTH"
);
}
);
width = 648;
},
{
anchors = (
{
name = bottom;
position = "{271, 0}";
},
{
name = top;
position = "{411, 720}";
}
);
color = 4;
layerId = "FA792B6B-505C-4DC3-9C40-F9BEDA01661E";
paths = (
{
closed = 1;
nodes = (
"48 110 OFFCURVE",
"172 -12 OFFCURVE",
"414 -12 CURVE SMOOTH",
"474 -12 OFFCURVE",
"520 0 OFFCURVE",
"556 12 CURVE",
"588 188 LINE",
"576 188 LINE",
"546 174 OFFCURVE",
"496 164 OFFCURVE",
"444 164 CURVE SMOOTH",
"316 164 OFFCURVE",
"264 228 OFFCURVE",
"264 326 CURVE SMOOTH",
"264 452 OFFCURVE",
"344 556 OFFCURVE",
"508 556 CURVE SMOOTH",
"572 556 OFFCURVE",
"614 542 OFFCURVE",
"640 528 CURVE",
"652 528 LINE",
"686 708 LINE",
"660 720 OFFCURVE",
"592 732 OFFCURVE",
"508 732 CURVE SMOOTH",
"224 732 OFFCURVE",
"48 556 OFFCURVE",
"48 314 CURVE SMOOTH"
);
}
);
width = 648;
}
);
leftKerningGroup = C;
note = C;
rightKerningGroup = C;
unicode = 0043;
},
{
glyphname = D;
lastChange = "2020-07-10 12:19:54 +0000";
layers = (
{
anchors = (
{
name = bottom;
position = "{302, 0}";
},
{
name = center;
position = "{176, 368}";
},
{
name = top;
position = "{455, 720}";
}
);
color = 4;
layerId = "5B01CDE3-ACDA-4D2B-9E53-A993574CFD15";
paths = (
{
closed = 1;
nodes = (
"232 636 LINE",
"408 636 LINE SMOOTH",
"528 636 OFFCURVE",
"592 580 OFFCURVE",
"592 456 CURVE SMOOTH",
"592 320 OFFCURVE",
"500 84 OFFCURVE",
"280 84 CURVE SMOOTH",
"124 84 LINE",
"108 0 LINE",
"280 0 LINE SMOOTH",
"552 0 OFFCURVE",
"692 256 OFFCURVE",
"692 460 CURVE SMOOTH",
"692 628 OFFCURVE",
"588 720 OFFCURVE",
"408 720 CURVE SMOOTH",
"248 720 LINE"
);
},
{
closed = 1;
nodes = (
"140 0 LINE",
"280 720 LINE",
"184 720 LINE",
"44 0 LINE"
);
}
);
width = 720;
},
{
anchors = (
{
name = bottom;
position = "{330, 0}";
},
{
name = center;
position = "{198, 362}";
},
{
name = top;
position = "{483, 720}";
}
);
color = 4;
layerId = "FA792B6B-505C-4DC3-9C40-F9BEDA01661E";
paths = (
{
closed = 1;
nodes = (
"272 536 LINE",
"400 536 LINE SMOOTH",
"512 536 OFFCURVE",
"552 500 OFFCURVE",
"552 420 CURVE SMOOTH",
"552 284 OFFCURVE",
"468 184 OFFCURVE",
"336 184 CURVE SMOOTH",
"204 184 LINE",
"168 0 LINE",
"328 0 LINE SMOOTH",
"628 0 OFFCURVE",
"768 220 OFFCURVE",
"768 432 CURVE SMOOTH",
"768 628 OFFCURVE",
"640 720 OFFCURVE",
"420 720 CURVE SMOOTH",
"308 720 LINE"
);
},
{
closed = 1;
nodes = (
"232 0 LINE",
"372 720 LINE",
"160 720 LINE",
"20 0 LINE"
);
}
);
width = 776;
}
);
leftKerningGroup = B;
note = D;
rightKerningGroup = D;
unicode = 0044;
},
{
glyphname = E;
lastChange = "2020-07-10 12:19:54 +0000";
layers = (
{
anchors = (
{
name = bottom;
position = "{255, 0}";
},
{
name = ogonek;
position = "{510, 0}";
},
{
name = top;
position = "{395, 720}";
},
{
name = topleft;
position = "{107, 720}";
}
);
color = 4;
layerId = "5B01CDE3-ACDA-4D2B-9E53-A993574CFD15";
paths = (
{
closed = 1;
nodes = (
"140 0 LINE",
"280 720 LINE",
"184 720 LINE",
"44 0 LINE"
);
},
{
closed = 1;
nodes = (
"510 0 LINE",
"526 84 LINE",
"124 84 LINE",
"108 0 LINE"
);
},
{
closed = 1;
nodes = (
"510 336 LINE",
"526 420 LINE",
"192 420 LINE",
"176 336 LINE"
);
},
{
closed = 1;
nodes = (
"622 636 LINE",
"638 720 LINE",
"248 720 LINE",
"232 636 LINE"
);
}
);
width = 616;
},
{
anchors = (
{
name = bottom;
position = "{284, 0}";
},
{
name = ogonek;
position = "{512, 0}";
},
{
name = top;
position = "{423, 720}";
},
{
name = topleft;
position = "{107, 720}";
}
);
color = 4;
layerId = "FA792B6B-505C-4DC3-9C40-F9BEDA01661E";
paths = (
{
closed = 1;
nodes = (
"232 0 LINE",
"372 720 LINE",
"160 720 LINE",
"20 0 LINE"
);
},
{
closed = 1;
nodes = (
"512 0 LINE",
"546 184 LINE",
"204 184 LINE",
"168 0 LINE"
);
},
{
closed = 1;
nodes = (
"508 268 LINE",
"540 440 LINE",
"256 440 LINE",
"224 268 LINE"
);
},
{
closed = 1;
nodes = (
"610 536 LINE",
"644 720 LINE",
"308 720 LINE",
"272 536 LINE"
);
}
);
width = 612;
}
);
leftKerningGroup = B;
note = E;
rightKerningGroup = E;
unicode = 0045;
},
{
glyphname = F;
lastChange = "2020-07-10 12:19:54 +0000";
layers = (
{
anchors = (
{
name = bottom;
position = "{233, 0}";
},
{
name = top;
position = "{373, 720}";
}
);
color = 4;
layerId = "5B01CDE3-ACDA-4D2B-9E53-A993574CFD15";
paths = (
{
closed = 1;
nodes = (
"140 0 LINE",
"280 720 LINE",
"184 720 LINE",
"44 0 LINE"
);
},
{
closed = 1;
nodes = (
"486 280 LINE",
"502 364 LINE",
"168 364 LINE",
"152 280 LINE"
);
},
{
closed = 1;
nodes = (
"610 636 LINE",
"626 720 LINE",
"248 720 LINE",
"232 636 LINE"
);
}
);
width = 572;
},
{
anchors = (
{
name = bottom;
position = "{241, 0}";
},
{
name = top;
position = "{381, 720}";
}
);
color = 4;
layerId = "FA792B6B-505C-4DC3-9C40-F9BEDA01661E";
paths = (
{
closed = 1;
nodes = (
"232 0 LINE",
"372 720 LINE",
"160 720 LINE",
"20 0 LINE"
);
},
{
closed = 1;
nodes = (
"500 216 LINE",
"532 388 LINE",
"248 388 LINE",
"216 216 LINE"
);
},
{
closed = 1;
nodes = (
"610 536 LINE",
"644 720 LINE",
"308 720 LINE",
"272 536 LINE"
);
}
);
width = 588;
}
);
leftKerningGroup = B;
leftMetricsKey = H;
note = F;
rightKerningGroup = F;
unicode = 0046;
},
{
glyphname = G;
lastChange = "2020-07-10 12:19:54 +0000";
layers = (
{
anchors = (
{
name = bottom;
position = "{289, 0}";
},
{
name = top;
position = "{429, 720}";
}
);
color = 4;
layerId = "5B01CDE3-ACDA-4D2B-9E53-A993574CFD15";
paths = (
{
closed = 1;
nodes = (
"70 104 OFFCURVE",
"174 -12 OFFCURVE",
"378 -12 CURVE SMOOTH",
"438 -12 OFFCURVE",
"514 0 OFFCURVE",
"560 24 CURVE",
"626 364 LINE",
"530 364 LINE",
"470 52 LINE",
"495 90 LINE",
"463 78 OFFCURVE",
"424 72 OFFCURVE",
"386 72 CURVE SMOOTH",
"251 72 OFFCURVE",
"170 140 OFFCURVE",
"170 296 CURVE SMOOTH",
"170 484 OFFCURVE",
"284 644 OFFCURVE",
"484 644 CURVE SMOOTH",
"560 644 OFFCURVE",
"614 627 OFFCURVE",
"652 608 CURVE",
"660 608 LINE",
"678 700 LINE",
"638 720 OFFCURVE",
"556 732 OFFCURVE",
"496 732 CURVE SMOOTH",
"216 732 OFFCURVE",
"70 520 OFFCURVE",
"70 296 CURVE SMOOTH"
);
}
);
width = 684;
},
{
anchors = (
{
name = bottom;
position = "{309, 0}";
},
{
name = top;
position = "{449, 720}";
}
);
color = 4;
layerId = "FA792B6B-505C-4DC3-9C40-F9BEDA01661E";
paths = (
{
closed = 1;
nodes = (
"48 104 OFFCURVE",
"168 -12 OFFCURVE",
"424 -12 CURVE SMOOTH",
"480 -12 OFFCURVE",
"568 0 OFFCURVE",
"618 20 CURVE",
"684 368 LINE",
"490 368 LINE",
"434 78 LINE",
"488 194 LINE",
"473 171 OFFCURVE",
"444 160 OFFCURVE",
"408 160 CURVE SMOOTH",
"300 160 OFFCURVE",
"264 228 OFFCURVE",
"264 320 CURVE SMOOTH",
"264 456 OFFCURVE",
"348 556 OFFCURVE",
"518 556 CURVE SMOOTH",
"588 556 OFFCURVE",
"646 538 OFFCURVE",
"672 524 CURVE",
"684 524 LINE",
"718 704 LINE",
"676 720 OFFCURVE",
"612 732 OFFCURVE",
"512 732 CURVE SMOOTH",
"222 732 OFFCURVE",
"48 556 OFFCURVE",
"48 314 CURVE SMOOTH"
);
}
);
width = 724;
}
);
leftKerningGroup = C;
note = G;
rightKerningGroup = G;
unicode = 0047;
},
{
glyphname = H;
lastChange = "2020-07-10 12:19:54 +0000";
layers = (
{
anchors = (
{
name = bottom;
position = "{315, 0}";
},
{
name = center;
position = "{429, 580}";
},
{
name = top;
position = "{455, 720}";
},
{
name = topleft;
position = "{463, 720}";
}
);
color = 4;
layerId = "5B01CDE3-ACDA-4D2B-9E53-A993574CFD15";
paths = (
{
closed = 1;
nodes = (
"492 0 LINE",
"588 0 LINE",
"728 720 LINE",
"632 720 LINE"
);
},
{
closed = 1;
nodes = (
"280 720 LINE",
"184 720 LINE",
"44 0 LINE",
"140 0 LINE"
);
},
{
closed = 1;
nodes = (
"600 416 LINE",
"192 416 LINE",
"176 332 LINE",
"584 332 LINE"
);
}
);
width = 736;
},
{
anchors = (
{
name = bottom;
position = "{334, 0}";
},
{
name = center;
position = "{456, 574}";
},
{
name = top;
position = "{480, 720}";
},
{
name = topleft;
position = "{808, 720}";
}
);
color = 4;
layerId = "FA792B6B-505C-4DC3-9C40-F9BEDA01661E";
paths = (
{
closed = 1;
nodes = (
"456 0 LINE",
"668 0 LINE",
"808 720 LINE",
"596 720 LINE"
);
},
{
closed = 1;
nodes = (
"372 720 LINE",
"160 720 LINE",
"20 0 LINE",
"232 0 LINE"
);
},
{
closed = 1;
nodes = (
"612 448 LINE",
"244 448 LINE",
"208 264 LINE",
"576 264 LINE"
);
}
);
width = 784;
}
);
leftKerningGroup = B;
note = H;
rightKerningGroup = A;
unicode = 0048;
},
{
glyphname = I;
lastChange = "2020-07-10 12:19:54 +0000";
layers = (
{
anchors = (
{
name = bottom;
position = "{91, 0}";
},
{
name = ogonek;
position = "{140, 0}";
},
{
name = top;
position = "{231, 720}";
},
{
name = topleft;
position = "{107, 720}";
}
);
color = 4;
layerId = "5B01CDE3-ACDA-4D2B-9E53-A993574CFD15";
paths = (
{
closed = 1;
nodes = (
"44 0 LINE",
"140 0 LINE",
"280 720 LINE",
"184 720 LINE"
);
}
);
width = 288;
},
{
anchors = (
{
name = bottom;
position = "{121, 0}";
},
{
name = ogonek;
position = "{232, 0}";
},
{
name = top;
position = "{261, 720}";
},
{
name = topleft;
position = "{107, 720}";
}
);
color = 4;
layerId = "FA792B6B-505C-4DC3-9C40-F9BEDA01661E";
paths = (
{
closed = 1;
nodes = (
"20 0 LINE",
"232 0 LINE",
"372 720 LINE",
"160 720 LINE"
);
}
);
width = 348;
}
);
leftKerningGroup = B;
note = I;
rightKerningGroup = A;
unicode = 0049;
},
{
glyphname = J;
lastChange = "2020-07-10 12:19:54 +0000";
layers = (
{
anchors = (
{
name = bottom;
position = "{153, 0}";
},
{
name = top;
position = "{293, 720}";
}
);
color = 4;
layerId = "5B01CDE3-ACDA-4D2B-9E53-A993574CFD15";
paths = (
{
closed = 1;
nodes = (
"208 -12 OFFCURVE",
"294 52 OFFCURVE",
"322 194 CURVE SMOOTH",
"424 720 LINE",
"328 720 LINE",
"226 194 LINE SMOOTH",
"207 100 OFFCURVE",
"156 72 OFFCURVE",
"76 72 CURVE SMOOTH",
"40 72 OFFCURVE",
"4 80 OFFCURVE",
"-12 88 CURVE",
"-20 88 LINE",
"-36 4 LINE",
"-12 -4 OFFCURVE",
"24 -12 OFFCURVE",
"72 -12 CURVE SMOOTH"
);
}
);
width = 412;
},
{
anchors = (
{
name = bottom;
position = "{189, 0}";
},
{
name = top;
position = "{329, 720}";
}
);
color = 4;
layerId = "FA792B6B-505C-4DC3-9C40-F9BEDA01661E";
paths = (
{
closed = 1;
nodes = (
"272 -12 OFFCURVE",
"385 64 OFFCURVE",
"420 252 CURVE SMOOTH",
"508 720 LINE",
"296 720 LINE",
"210 264 LINE SMOOTH",
"196 192 OFFCURVE",
"152 160 OFFCURVE",
"80 160 CURVE SMOOTH",
"52 160 OFFCURVE",
"36 166 OFFCURVE",
"20 176 CURVE",
"8 176 LINE",
"-24 4 LINE",
"2 -4 OFFCURVE",
"60 -12 OFFCURVE",
"100 -12 CURVE SMOOTH"
);
}
);
width = 484;
}
);
leftKerningGroup = J;
note = J;
rightKerningGroup = J;
unicode = 004A;
},
{
glyphname = K;
lastChange = "2020-07-10 12:19:54 +0000";
layers = (
{
anchors = (
{
name = bottom;
position = "{283, 0}";
},
{
name = top;
position = "{423, 720}";
}
);
color = 4;
layerId = "5B01CDE3-ACDA-4D2B-9E53-A993574CFD15";
paths = (
{
closed = 1;
nodes = (
"280 280 LINE SMOOTH",
"368 280 OFFCURVE",
"448 328 OFFCURVE",
"510 420 CURVE SMOOTH",
"706 712 LINE",
"706 720 LINE",
"604 720 LINE",
"424 448 LINE SMOOTH",
"392 400 OFFCURVE",
"352 364 OFFCURVE",
"284 364 CURVE SMOOTH",
"172 364 LINE",
"156 280 LINE"
);
},
{
closed = 1;
nodes = (
"140 0 LINE",
"280 720 LINE",
"184 720 LINE",
"44 0 LINE"
);
},
{
closed = 1;
nodes = (
"562 0 LINE",
"562 8 LINE",
"412 348 LINE",
"328 308 LINE",
"456 0 LINE"
);
}
);
width = 672;
},
{
anchors = (
{
name = bottom;
position = "{309, 0}";
},
{
name = top;
position = "{449, 720}";
}
);
color = 4;
layerId = "FA792B6B-505C-4DC3-9C40-F9BEDA01661E";
paths = (
{
closed = 1;
nodes = (
"312 232 LINE SMOOTH",
"456 232 OFFCURVE",
"564 300 OFFCURVE",
"636 436 CURVE SMOOTH",
"780 708 LINE",
"780 720 LINE",
"572 720 LINE",
"460 492 LINE SMOOTH",
"437 444 OFFCURVE",
"396 412 OFFCURVE",
"332 412 CURVE SMOOTH",
"256 412 LINE",
"220 232 LINE"
);
},
{
closed = 1;
nodes = (
"232 0 LINE",
"372 720 LINE",
"160 720 LINE",
"20 0 LINE"
);
},
{
closed = 1;
nodes = (
"652 0 LINE",
"652 12 LINE",
"516 324 LINE",
"332 264 LINE",
"436 0 LINE"
);
}
);
width = 724;
}
);
leftKerningGroup = B;
note = K;
rightKerningGroup = K;
unicode = 004B;
},
{
glyphname = L;
lastChange = "2020-07-10 12:19:54 +0000";
layers = (
{
anchors = (
{
name = bottom;
position = "{208, 0}";
},
{
name = center;
position = "{188, 390}";
},
{
name = periodCAT;
position = "{380, 392}";
},
{
name = top;
position = "{361, 720}";
},
{
name = topright;
position = "{429, 516}";
}
);
color = 4;
layerId = "5B01CDE3-ACDA-4D2B-9E53-A993574CFD15";
paths = (
{
closed = 1;
nodes = (
"450 0 LINE",
"466 84 LINE",
"156 84 LINE",
"280 720 LINE",
"184 720 LINE",
"44 0 LINE"
);
}
);
width = 532;
},
{
anchors = (
{
name = bottom;
position = "{228, 0}";
},
{
name = center;
position = "{210, 392}";
},
{
name = periodCAT;
position = "{454, 432}";
},
{
name = top;
position = "{381, 720}";
},
{
name = topright;
position = "{514, 520}";
}
);
color = 4;
layerId = "FA792B6B-505C-4DC3-9C40-F9BEDA01661E";
paths = (
{
closed = 1;
nodes = (
"492 0 LINE",
"526 184 LINE",
"268 184 LINE",
"372 720 LINE",
"160 720 LINE",
"20 0 LINE"
);
}
);
width = 572;
}
);
leftKerningGroup = B;
note = L;
rightKerningGroup = L;
unicode = 004C;
},
{
glyphname = M;
lastChange = "2020-07-10 12:19:54 +0000";
layers = (
{
anchors = (
{
name = bottom;
position = "{357, 0}";
},
{
name = top;
position = "{497, 720}";
}
);
color = 4;
layerId = "5B01CDE3-ACDA-4D2B-9E53-A993574CFD15";
paths = (
{
closed = 1;
nodes = (
"44 0 LINE",
"140 0 LINE",
"252 580 LINE",
"224 576 LINE",
"370 248 LINE",
"446 248 LINE",
"720 576 LINE",
"688 580 LINE",
"576 0 LINE",
"672 0 LINE",
"812 720 LINE",
"732 720 LINE",
"408 328 LINE",
"440 324 LINE",
"264 720 LINE",
"184 720 LINE"
);
}
);
width = 820;
},
{
anchors = (
{
name = bottom;
position = "{395, 0}";
},
{
name = top;
position = "{535, 720}";
}
);
color = 4;
layerId = "FA792B6B-505C-4DC3-9C40-F9BEDA01661E";
paths = (
{
closed = 1;
nodes = (
"20 0 LINE",
"232 0 LINE",
"312 424 LINE",
"260 436 LINE",
"380 124 LINE",
"480 124 LINE",
"696 408 LINE",
"656 444 LINE",
"572 0 LINE",
"784 0 LINE",
"920 720 LINE",
"736 720 LINE",
"420 308 LINE",
"496 304 LINE",
"336 720 LINE",
"156 720 LINE"
);
}
);
width = 896;
}
);
note = M;
unicode = 004D;
},
{
glyphname = N;
lastChange = "2020-07-10 12:19:54 +0000";
layers = (
{
anchors = (
{
name = bottom;
position = "{315, 0}";
},
{
name = top;
position = "{455, 720}";
}
);
color = 4;
layerId = "5B01CDE3-ACDA-4D2B-9E53-A993574CFD15";
paths = (
{
closed = 1;
nodes = (
"588 0 LINE",
"728 720 LINE",
"632 720 LINE",
"492 0 LINE"
);
},
{
closed = 1;
nodes = (
"140 0 LINE",
"256 608 LINE",
"220 616 LINE",
"560 156 LINE",
"580 284 LINE",
"260 720 LINE",
"184 720 LINE",
"44 0 LINE"
);
}
);
width = 736;
},
{
anchors = (
{
name = bottom;
position = "{341, 0}";
},
{
name = top;
position = "{481, 720}";
}
);
color = 4;
layerId = "FA792B6B-505C-4DC3-9C40-F9BEDA01661E";
paths = (
{
closed = 1;
nodes = (
"676 0 LINE",
"812 720 LINE",
"600 720 LINE",
"464 0 LINE"
);
},
{
closed = 1;
nodes = (
"232 0 LINE",
"320 468 LINE",
"268 472 LINE",
"552 104 LINE",
"600 364 LINE",
"324 720 LINE",
"156 720 LINE",
"20 0 LINE"
);
}
);
width = 788;
}
);
leftKerningGroup = B;
note = N;
rightKerningGroup = A;
unicode = 004E;
},
{
glyphname = O;
lastChange = "2020-07-10 12:19:54 +0000";
layers = (
{
anchors = (
{
name = bottom;
position = "{339, 0}";
},
{
name = center;
position = "{409, 360}";
},
{
name = ogonek;
position = "{461, 0}";
},
{
name = top;
position = "{479, 720}";
},
{
name = topleft;
position = "{107, 720}";
},
{
name = topright;
position = "{552, 720}";
}
);
color = 4;
layerId = "5B01CDE3-ACDA-4D2B-9E53-A993574CFD15";
paths = (
{
closed = 1;
nodes = (
"68 104 OFFCURVE",
"176 -12 OFFCURVE",
"364 -12 CURVE SMOOTH",
"628 -12 OFFCURVE",
"756 228 OFFCURVE",
"756 436 CURVE SMOOTH",
"756 616 OFFCURVE",
"648 732 OFFCURVE",
"460 732 CURVE SMOOTH",
"200 732 OFFCURVE",
"68 492 OFFCURVE",
"68 284 CURVE SMOOTH"
);
},
{
closed = 1;
nodes = (
"168 452 OFFCURVE",
"260 644 OFFCURVE",
"456 644 CURVE SMOOTH",
"576 644 OFFCURVE",
"656 576 OFFCURVE",
"656 436 CURVE SMOOTH",
"656 268 OFFCURVE",
"564 76 OFFCURVE",
"368 76 CURVE SMOOTH",
"248 76 OFFCURVE",
"168 144 OFFCURVE",
"168 284 CURVE SMOOTH"
);
}
);
width = 784;
},
{
anchors = (
{
name = bottom;
position = "{363, 0}";
},
{
name = center;
position = "{433, 360}";
},
{
name = ogonek;
position = "{503, 0}";
},
{
name = top;
position = "{503, 720}";
},
{
name = topleft;
position = "{107, 720}";
},
{
name = topright;
position = "{587, 713}";
}
);
color = 4;
layerId = "FA792B6B-505C-4DC3-9C40-F9BEDA01661E";
paths = (
{
closed = 1;
nodes = (
"48 104 OFFCURVE",
"176 -12 OFFCURVE",
"392 -12 CURVE SMOOTH",
"660 -12 OFFCURVE",
"824 180 OFFCURVE",
"824 416 CURVE SMOOTH",
"824 608 OFFCURVE",
"696 732 OFFCURVE",
"480 732 CURVE SMOOTH",
"212 732 OFFCURVE",
"48 532 OFFCURVE",
"48 304 CURVE SMOOTH"
);
},
{
closed = 1;
nodes = (
"264 412 OFFCURVE",
"328 556 OFFCURVE",
"468 556 CURVE SMOOTH",
"552 556 OFFCURVE",
"608 508 OFFCURVE",
"608 404 CURVE SMOOTH",
"608 308 OFFCURVE",
"544 164 OFFCURVE",
"404 164 CURVE SMOOTH",
"320 164 OFFCURVE",
"264 212 OFFCURVE",
"264 316 CURVE SMOOTH"
);
}
);
width = 833;
}
);
leftKerningGroup = C;
note = O;
rightKerningGroup = D;
unicode = 004F;
},
{
glyphname = P;
lastChange = "2020-07-10 12:19:54 +0000";
layers = (
{
anchors = (
{
name = bottom;
position = "{257, 0}";
},
{
name = top;
position = "{397, 720}";
}
);
color = 4;
layerId = "5B01CDE3-ACDA-4D2B-9E53-A993574CFD15";
paths = (
{
closed = 1;
nodes = (
"328 240 LINE SMOOTH",
"524 240 OFFCURVE",
"632 388 OFFCURVE",
"632 532 CURVE SMOOTH",
"632 656 OFFCURVE",
"548 720 OFFCURVE",
"424 720 CURVE SMOOTH",
"248 720 LINE",
"232 636 LINE",
"416 636 LINE SMOOTH",
"488 636 OFFCURVE",
"532 604 OFFCURVE",
"532 532 CURVE SMOOTH",
"532 420 OFFCURVE",
"452 324 OFFCURVE",
"328 324 CURVE SMOOTH",
"172 324 LINE",
"156 240 LINE"
);
},
{
closed = 1;
nodes = (
"140 0 LINE",
"280 720 LINE",
"184 720 LINE",
"44 0 LINE"
);
}
);
width = 620;
},
{
anchors = (
{
name = bottom;
position = "{303, 0}";
},
{
name = top;
position = "{443, 720}";
}
);
color = 4;
layerId = "FA792B6B-505C-4DC3-9C40-F9BEDA01661E";
paths = (
{
closed = 1;
nodes = (
"368 160 LINE SMOOTH",
"572 160 OFFCURVE",
"724 304 OFFCURVE",
"724 480 CURVE SMOOTH",
"724 644 OFFCURVE",
"620 720 OFFCURVE",
"440 720 CURVE SMOOTH",
"308 720 LINE",
"276 544 LINE",
"424 544 LINE SMOOTH",
"476 544 OFFCURVE",
"512 520 OFFCURVE",
"512 464 CURVE SMOOTH",
"512 396 OFFCURVE",
"464 328 OFFCURVE",
"368 328 CURVE SMOOTH",
"232 328 LINE",
"200 160 LINE"
);
},
{
closed = 1;
nodes = (
"232 0 LINE",
"372 720 LINE",
"160 720 LINE",
"20 0 LINE"
);
}
);
width = 712;
}
);
leftKerningGroup = B;
note = P;
rightKerningGroup = P;
unicode = 0050;
},
{
glyphname = Q;
lastChange = "2020-07-10 12:19:54 +0000";
layers = (
{
anchors = (
{
name = bottom;
position = "{339, 0}";
},
{
name = top;
position = "{479, 720}";
}
);
color = 4;
components = (
{
name = O;
}
);
layerId = "5B01CDE3-ACDA-4D2B-9E53-A993574CFD15";
paths = (
{
closed = 1;
nodes = (
"424 48 LINE",
"628 -160 LINE",
"760 -160 LINE",
"760 -152 LINE",
"520 84 LINE"
);
}
);
width = 784;
},
{
anchors = (
{
name = bottom;
position = "{363, 0}";
},
{
name = top;
position = "{503, 720}";
}
);
color = 4;
components = (
{
name = O;
}
);
layerId = "FA792B6B-505C-4DC3-9C40-F9BEDA01661E";
paths = (
{
closed = 1;
nodes = (
"348 76 LINE",
"548 -160 LINE",
"788 -160 LINE",
"788 -148 LINE",
"544 124 LINE"
);
}
);
width = 832;
}
);
leftKerningGroup = C;
note = Q;
rightKerningGroup = D;
unicode = 0051;
},
{
glyphname = R;
lastChange = "2020-07-10 12:19:54 +0000";
layers = (
{
anchors = (
{
name = bottom;
position = "{276, 0}";
},
{
name = top;
position = "{416, 720}";
}
);
color = 4;
layerId = "5B01CDE3-ACDA-4D2B-9E53-A993574CFD15";
paths = (
{
closed = 1;
nodes = (
"348 216 LINE",
"484 216 OFFCURVE",
"636 352 OFFCURVE",
"636 524 CURVE SMOOTH",
"636 652 OFFCURVE",
"564 720 OFFCURVE",
"416 720 CURVE SMOOTH",
"248 720 LINE",
"232 636 LINE",
"416 636 LINE SMOOTH",
"488 636 OFFCURVE",
"536 604 OFFCURVE",
"536 524 CURVE SMOOTH",
"536 412 OFFCURVE",
"452 304 OFFCURVE",
"328 304 CURVE SMOOTH",
"168 304 LINE",
"152 216 LINE"
);
},
{
closed = 1;
nodes = (
"140 0 LINE",
"280 720 LINE",
"184 720 LINE",
"44 0 LINE"
);
},
{
closed = 1;
nodes = (
"580 0 LINE",
"580 8 LINE",
"416 280 LINE",
"328 244 LINE",
"470 0 LINE"
);
}
);
width = 658;
},
{
anchors = (
{
name = bottom;
position = "{321, 0}";
},
{
name = top;
position = "{461, 720}";
}
);
color = 4;
layerId = "FA792B6B-505C-4DC3-9C40-F9BEDA01661E";
paths = (
{
closed = 1;
nodes = (
"376 152 LINE",
"512 152 OFFCURVE",
"732 272 OFFCURVE",
"732 480 CURVE SMOOTH",
"732 640 OFFCURVE",
"632 720 OFFCURVE",
"452 720 CURVE SMOOTH",
"304 720 LINE",
"272 544 LINE",
"428 544 LINE SMOOTH",
"484 544 OFFCURVE",
"520 524 OFFCURVE",
"520 468 CURVE SMOOTH",
"520 400 OFFCURVE",
"468 320 OFFCURVE",
"364 320 CURVE SMOOTH",
"228 320 LINE",
"192 152 LINE"
);
},
{
closed = 1;
nodes = (
"232 0 LINE",
"372 720 LINE",
"160 720 LINE",
"20 0 LINE"
);
},
{
closed = 1;
nodes = (
"648 0 LINE",
"648 12 LINE",
"524 236 LINE",
"344 176 LINE",
"424 0 LINE"
);
}
);
width = 748;
}
);
leftKerningGroup = B;
leftMetricsKey = I;
note = R;
rightKerningGroup = R;
unicode = 0052;
},
{
glyphname = S;
lastChange = "2020-07-10 12:19:54 +0000";
layers = (
{
anchors = (
{
name = bottom;
position = "{239, 0}";
},
{
name = top;
position = "{379, 720}";
}
);
color = 4;
layerId = "5B01CDE3-ACDA-4D2B-9E53-A993574CFD15";
paths = (
{
closed = 1;
nodes = (
"26 28 LINE",
"80 4 OFFCURVE",
"152 -12 OFFCURVE",
"236 -12 CURVE SMOOTH",
"416 -12 OFFCURVE",
"526 56 OFFCURVE",
"526 196 CURVE SMOOTH",
"526 296 OFFCURVE",
"455 341 OFFCURVE",
"372 364 CURVE SMOOTH",
"300 384 LINE SMOOTH",
"237 401 OFFCURVE",
"200 424 OFFCURVE",
"200 490 CURVE SMOOTH",
"200 606 OFFCURVE",
"300 644 OFFCURVE",
"420 644 CURVE SMOOTH",
"492 644 OFFCURVE",
"540 628 OFFCURVE",
"568 612 CURVE",
"576 612 LINE",
"594 704 LINE",
"561 720 OFFCURVE",
"496 732 OFFCURVE",
"420 732 CURVE SMOOTH",
"236 732 OFFCURVE",
"102 650 OFFCURVE",
"102 484 CURVE SMOOTH",
"102 364 OFFCURVE",
"177 323 OFFCURVE",
"260 300 CURVE SMOOTH",
"332 280 LINE SMOOTH",
"391 264 OFFCURVE",
"428 250 OFFCURVE",
"428 188 CURVE SMOOTH",
"428 108 OFFCURVE",
"344 76 OFFCURVE",
"240 76 CURVE SMOOTH",
"156 76 OFFCURVE",
"96 96 OFFCURVE",
"52 120 CURVE",
"44 120 LINE"
);
}
);
width = 584;
},
{
anchors = (
{
name = bottom;
position = "{271, 0}";
},
{
name = top;
position = "{411, 720}";
}
);
color = 4;
layerId = "FA792B6B-505C-4DC3-9C40-F9BEDA01661E";
paths = (
{
closed = 1;
nodes = (
"18 36 LINE",
"80 8 OFFCURVE",
"176 -12 OFFCURVE",
"268 -12 CURVE SMOOTH",
"456 -12 OFFCURVE",
"616 48 OFFCURVE",
"616 224 CURVE SMOOTH",
"616 348 OFFCURVE",
"517 393 OFFCURVE",
"412 412 CURVE SMOOTH",
"368 420 LINE SMOOTH",
"303 432 OFFCURVE",
"280 448 OFFCURVE",
"280 484 CURVE SMOOTH",
"280 536 OFFCURVE",
"332 564 OFFCURVE",
"424 564 CURVE SMOOTH",
"512 564 OFFCURVE",
"580 544 OFFCURVE",
"620 524 CURVE",
"632 524 LINE",
"666 700 LINE",
"625 718 OFFCURVE",
"528 732 OFFCURVE",
"452 732 CURVE SMOOTH",
"180 732 OFFCURVE",
"68 620 OFFCURVE",
"68 460 CURVE SMOOTH",
"68 348 OFFCURVE",
"152 281 OFFCURVE",
"288 256 CURVE SMOOTH",
"332 248 LINE SMOOTH",
"385 238 OFFCURVE",
"404 232 OFFCURVE",
"404 204 CURVE SMOOTH",
"404 168 OFFCURVE",
"360 156 OFFCURVE",
"292 156 CURVE SMOOTH",
"192 156 OFFCURVE",
"112 180 OFFCURVE",
"64 212 CURVE",
"52 212 LINE"
);
}
);
width = 648;
}
);
leftKerningGroup = S;
note = S;
rightKerningGroup = S;
unicode = 0053;
},
{
glyphname = T;
lastChange = "2020-07-10 12:19:54 +0000";
layers = (
{
anchors = (
{
name = bottom;
position = "{242, 0}";
},
{
name = center;
position = "{309, 360}";
},
{
name = top;
position = "{379, 720}";
}
);
color = 4;
layerId = "5B01CDE3-ACDA-4D2B-9E53-A993574CFD15";
paths = (
{
closed = 1;
nodes = (
"86 636 LINE",
"317 636 LINE",
"194 0 LINE",
"290 0 LINE",
"413 636 LINE",
"646 636 LINE",
"662 720 LINE",
"102 720 LINE"
);
}
);
width = 584;
},
{
anchors = (
{
name = bottom;
position = "{284, 0}";
},
{
name = center;
position = "{345, 360}";
},
{
name = top;
position = "{415, 720}";
}
);
color = 4;
layerId = "FA792B6B-505C-4DC3-9C40-F9BEDA01661E";
paths = (
{
closed = 1;
nodes = (
"76 536 LINE",
"279 536 LINE",
"178 0 LINE",
"390 0 LINE",
"491 536 LINE",
"692 536 LINE",
"726 720 LINE",
"110 720 LINE"
);
}
);
width = 656;
}
);
leftKerningGroup = T;
note = T;
rightKerningGroup = T;
unicode = 0054;
},
{
glyphname = U;
lastChange = "2020-07-10 12:19:54 +0000";
layers = (
{
anchors = (
{
name = bottom;
position = "{299, 0}";
},
{
name = ogonek;
position = "{355, 10}";
},
{
name = top;
position = "{439, 720}";
},
{
name = topright;
position = "{696, 720}";
}
);
color = 4;
layerId = "5B01CDE3-ACDA-4D2B-9E53-A993574CFD15";
paths = (
{
closed = 1;
nodes = (
"84 60 OFFCURVE",
"156 -12 OFFCURVE",
"312 -12 CURVE SMOOTH",
"484 -12 OFFCURVE",
"584 84 OFFCURVE",
"620 268 CURVE SMOOTH",
"708 720 LINE",
"612 720 LINE",
"524 268 LINE SMOOTH",
"497 128 OFFCURVE",
"428 76 OFFCURVE",
"316 76 CURVE SMOOTH",
"228 76 OFFCURVE",
"180 108 OFFCURVE",
"180 196 CURVE SMOOTH",
"180 217 OFFCURVE",
"183 241 OFFCURVE",
"188 268 CURVE SMOOTH",
"276 720 LINE",
"180 720 LINE",
"92 268 LINE SMOOTH",
"86 236 OFFCURVE",
"84 204 OFFCURVE",
"84 181 CURVE SMOOTH"
);
}
);
width = 704;
},
{
anchors = (
{
name = bottom;
position = "{333, 0}";
},
{
name = ogonek;
position = "{400, 10}";
},
{
name = top;
position = "{474, 720}";
},
{
name = topright;
position = "{738, 720}";
}
);
color = 4;
layerId = "FA792B6B-505C-4DC3-9C40-F9BEDA01661E";
paths = (
{
closed = 1;
nodes = (
"68 72 OFFCURVE",
"164 -12 OFFCURVE",
"354 -12 CURVE SMOOTH",
"576 -12 OFFCURVE",
"682 104 OFFCURVE",
"722 316 CURVE SMOOTH",
"798 720 LINE",
"586 720 LINE",
"506 300 LINE SMOOTH",
"490 216 OFFCURVE",
"446 164 OFFCURVE",
"374 164 CURVE SMOOTH",
"307 164 OFFCURVE",
"282 200 OFFCURVE",
"282 252 CURVE SMOOTH",
"282 268 OFFCURVE",
"283 283 OFFCURVE",
"286 300 CURVE SMOOTH",
"366 720 LINE",
"154 720 LINE",
"78 320 LINE SMOOTH",
"71 284 OFFCURVE",
"68 252 OFFCURVE",
"68 220 CURVE SMOOTH"
);
}
);
width = 772;
}
);
leftKerningGroup = U;
note = U;
rightKerningGroup = U;
unicode = 0055;
},
{
glyphname = V;
lastChange = "2020-07-10 12:19:54 +0000";
layers = (
{
anchors = (
{
name = bottom;
position = "{270, 0}";
},
{
name = top;
position = "{410, 720}";
}
);
color = 4;
layerId = "5B01CDE3-ACDA-4D2B-9E53-A993574CFD15";
paths = (
{
closed = 1;
nodes = (
"42 4 LINE",
"92 -8 OFFCURVE",
"142 -12 OFFCURVE",
"190 -12 CURVE SMOOTH",
"390 -12 OFFCURVE",
"469 71 OFFCURVE",
"524 232 CURVE SMOOTH",
"690 720 LINE",
"590 720 LINE",
"428 240 LINE SMOOTH",
"393 135 OFFCURVE",
"342 72 OFFCURVE",
"210 72 CURVE SMOOTH",
"178 72 OFFCURVE",
"156 76 OFFCURVE",
"132 80 CURVE",
"144 52 LINE",
"153 71 OFFCURVE",
"162 99 OFFCURVE",
"166 124 CURVE SMOOTH",
"282 720 LINE",
"186 720 LINE",
"78 164 LINE SMOOTH",
"70 124 OFFCURVE",
"54 56 OFFCURVE",
"42 16 CURVE"
);
}
);
width = 646;
},
{
anchors = (
{
name = bottom;
position = "{305, 0}";
},
{
name = top;
position = "{445, 720}";
}
);
color = 4;
layerId = "FA792B6B-505C-4DC3-9C40-F9BEDA01661E";
paths = (
{
closed = 1;
nodes = (
"30 12 LINE",
"81 0 OFFCURVE",
"140 -8 OFFCURVE",
"200 -8 CURVE SMOOTH",
"392 -8 OFFCURVE",
"532 22 OFFCURVE",
"614 252 CURVE SMOOTH",
"782 720 LINE",
"566 720 LINE",
"402 260 LINE SMOOTH",
"379 197 OFFCURVE",
"360 168 OFFCURVE",
"284 168 CURVE SMOOTH",
"272 168 OFFCURVE",
"256 168 OFFCURVE",
"224 188 CURVE",
"248 124 LINE",
"260 144 OFFCURVE",
"277 188 OFFCURVE",
"285 232 CURVE SMOOTH",
"377 720 LINE",
"165 720 LINE",
"61 168 LINE SMOOTH",
"53 128 OFFCURVE",
"38 60 OFFCURVE",
"22 24 CURVE"
);
}
);
width = 716;
}
);
leftKerningGroup = B;
note = V;
rightKerningGroup = V;
unicode = 0056;
},
{
glyphname = W;
lastChange = "2020-07-10 12:19:54 +0000";
layers = (
{
anchors = (
{
name = bottom;
position = "{469, 0}";
},
{
name = top;
position = "{609, 720}";
}
);
color = 4;
layerId = "5B01CDE3-ACDA-4D2B-9E53-A993574CFD15";
paths = (
{
closed = 1;
nodes = (
"772 -12 OFFCURVE",
"845 77 OFFCURVE",
"908 236 CURVE SMOOTH",
"1100 720 LINE",
"1000 720 LINE",
"808 232 LINE SMOOTH",
"770 134 OFFCURVE",
"728 72 OFFCURVE",
"632 72 CURVE SMOOTH",
"604 72 OFFCURVE",
"588 72 OFFCURVE",
"560 84 CURVE",
"580 60 LINE",
"588 88 OFFCURVE",
"596 127 OFFCURVE",
"600 176 CURVE SMOOTH",
"644 720 LINE",
"548 720 LINE",
"504 176 LINE SMOOTH",
"501 136 OFFCURVE",
"490 56 OFFCURVE",
"480 16 CURVE",
"480 4 LINE",
"524 -4 OFFCURVE",
"564 -12 OFFCURVE",
"608 -12 CURVE SMOOTH"
);
},
{
closed = 1;
nodes = (
"364 -12 OFFCURVE",
"435 72 OFFCURVE",
"496 232 CURVE SMOOTH",
"528 316 LINE",
"552 588 LINE",
"408 232 LINE SMOOTH",
"368 134 OFFCURVE",
"328 72 OFFCURVE",
"232 72 CURVE SMOOTH",
"199 72 OFFCURVE",
"184 76 OFFCURVE",
"168 80 CURVE",
"180 56 LINE",
"186 88 OFFCURVE",
"191 126 OFFCURVE",
"196 176 CURVE SMOOTH",
"244 720 LINE",
"148 720 LINE",
"104 176 LINE SMOOTH",
"98 104 OFFCURVE",
"88 60 OFFCURVE",
"76 16 CURVE",
"76 4 LINE",
"120 -6 OFFCURVE",
"164 -12 OFFCURVE",
"208 -12 CURVE SMOOTH"
);
}
);
width = 1044;
},
{
anchors = (
{
name = bottom;
position = "{509, 0}";
},
{
name = top;
position = "{649, 720}";
}
);
color = 4;
guideLines = (
{
angle = 258.0917;
position = "{523, 167}";
}
);
layerId = "FA792B6B-505C-4DC3-9C40-F9BEDA01661E";
paths = (
{
closed = 1;
nodes = (
"817 -8 OFFCURVE",
"975 63 OFFCURVE",
"1036 240 CURVE SMOOTH",
"1200 720 LINE",
"984 720 LINE",
"828 260 LINE SMOOTH",
"806 197 OFFCURVE",
"756 168 OFFCURVE",
"680 168 CURVE SMOOTH",
"656 168 OFFCURVE",
"633 170 OFFCURVE",
"608 176 CURVE",
"684 124 LINE",
"692 154 OFFCURVE",
"701 204 OFFCURVE",
"708 260 CURVE SMOOTH",
"760 720 LINE",
"556 720 LINE",
"492 144 LINE SMOOTH",
"487 105 OFFCURVE",
"480 60 OFFCURVE",
"468 24 CURVE",
"476 12 LINE",
"528 0 OFFCURVE",
"585 -8 OFFCURVE",
"644 -8 CURVE SMOOTH"
);
},
{
closed = 1;
nodes = (
"380 -8 OFFCURVE",
"506 93 OFFCURVE",
"538 240 CURVE SMOOTH",
"556 324 LINE",
"560 580 LINE",
"428 280 LINE SMOOTH",
"401 218 OFFCURVE",
"364 168 OFFCURVE",
"288 168 CURVE SMOOTH",
"276 168 OFFCURVE",
"268 168 OFFCURVE",
"240 184 CURVE",
"264 128 LINE",
"272 152 OFFCURVE",
"281 203 OFFCURVE",
"288 260 CURVE SMOOTH",
"340 720 LINE",
"128 720 LINE",
"68 184 LINE SMOOTH",
"63 137 OFFCURVE",
"56 72 OFFCURVE",
"40 24 CURVE",
"48 12 LINE",
"84 0 OFFCURVE",
"156 -8 OFFCURVE",
"208 -8 CURVE SMOOTH"
);
}
);
width = 1124;
}
);
leftKerningGroup = W;
note = W;
rightKerningGroup = W;
unicode = 0057;
},
{
glyphname = X;
lastChange = "2020-07-10 12:19:54 +0000";
layers = (
{
anchors = (
{
name = bottom;
position = "{275, 0}";
},
{
name = top;
position = "{415, 720}";
}
);
color = 4;
layerId = "5B01CDE3-ACDA-4D2B-9E53-A993574CFD15";
paths = (
{
closed = 1;
nodes = (
"88 0 LINE",
"380 336 LINE",
"712 712 LINE",
"712 720 LINE",
"608 720 LINE",
"324 392 LINE",
"-16 8 LINE",
"-16 0 LINE"
);
},
{
closed = 1;
nodes = (
"572 0 LINE",
"572 8 LINE",
"380 396 LINE",
"220 720 LINE",
"124 720 LINE",
"124 712 LINE",
"316 324 LINE",
"476 0 LINE"
);
}
);
width = 656;
},
{
anchors = (
{
name = bottom;
position = "{310, 0}";
},
{
name = top;
position = "{450, 720}";
}
);
color = 4;
layerId = "FA792B6B-505C-4DC3-9C40-F9BEDA01661E";
paths = (
{
closed = 1;
nodes = (
"200 0 LINE",
"432 288 LINE",
"808 708 LINE",
"808 720 LINE",
"572 720 LINE",
"344 436 LINE",
"-36 12 LINE",
"-36 0 LINE"
);
},
{
closed = 1;
nodes = (
"672 0 LINE",
"672 12 LINE",
"464 436 LINE",
"328 720 LINE",
"96 720 LINE",
"96 708 LINE",
"308 272 LINE",
"440 0 LINE"
);
}
);
width = 726;
}
);
leftKerningGroup = X;
note = X;
rightKerningGroup = X;
unicode = 0058;
},
{
glyphname = Y;
lastChange = "2020-07-10 12:19:54 +0000";
layers = (
{
anchors = (
{
name = bottom;
position = "{253, 0}";
},
{
name = top;
position = "{393, 720}";
},
{
name = topleft;
position = "{107, 720}";
}
);
color = 4;
layerId = "5B01CDE3-ACDA-4D2B-9E53-A993574CFD15";
paths = (
{
closed = 1;
nodes = (
"208 0 LINE",
"304 0 LINE",
"363 304 LINE",
"692 712 LINE",
"692 720 LINE",
"588 720 LINE",
"304 360 LINE",
"340 364 LINE",
"198 720 LINE",
"100 720 LINE",
"100 712 LINE",
"268 307 LINE"
);
}
);
width = 612;
},
{
anchors = (
{
name = bottom;
position = "{285, 0}";
},
{
name = top;
position = "{425, 720}";
},
{
name = topleft;
position = "{107, 720}";
}
);
color = 4;
layerId = "FA792B6B-505C-4DC3-9C40-F9BEDA01661E";
paths = (
{
closed = 1;
nodes = (
"178 0 LINE",
"390 0 LINE",
"446 295 LINE",
"766 708 LINE",
"766 720 LINE",
"546 720 LINE",
"344 420 LINE",
"404 404 LINE",
"302 720 LINE",
"90 720 LINE",
"90 708 LINE",
"235 304 LINE"
);
}
);
width = 676;
}
);
leftKerningGroup = Y;
note = Y;
rightKerningGroup = Y;
unicode = 0059;
},
{
glyphname = Z;
lastChange = "2020-07-10 12:19:54 +0000";
layers = (
{
anchors = (
{
name = bottom;
position = "{240, 0}";
},
{
name = top;
position = "{380, 720}";
}
);
color = 4;
layerId = "5B01CDE3-ACDA-4D2B-9E53-A993574CFD15";
paths = (
{
closed = 1;
nodes = (
"119 636 LINE",
"508 636 LINE",
"504 668 LINE",
"27 92 LINE SMOOTH",
"-10 47 OFFCURVE",
"-9 23 OFFCURVE",
"-9 8 CURVE",
"-1 0 LINE",
"491 0 LINE",
"507 84 LINE",
"100 84 LINE",
"108 56 LINE",
"583 628 LINE SMOOTH",
"620 673 OFFCURVE",
"619 697 OFFCURVE",
"619 712 CURVE",
"611 720 LINE",
"135 720 LINE"
);
}
);
width = 586;
},
{
anchors = (
{
name = bottom;
position = "{279, 0}";
},
{
name = top;
position = "{419, 720}";
}
);
color = 4;
layerId = "FA792B6B-505C-4DC3-9C40-F9BEDA01661E";
paths = (
{
closed = 1;
nodes = (
"100 536 LINE",
"476 536 LINE",
"444 600 LINE",
"48 156 LINE SMOOTH",
"13 117 OFFCURVE",
"-13 63 OFFCURVE",
"-8 12 CURVE",
"4 0 LINE",
"580 0 LINE",
"616 184 LINE",
"224 184 LINE",
"244 108 LINE",
"652 564 LINE SMOOTH",
"691 607 OFFCURVE",
"714 652 OFFCURVE",
"708 708 CURVE",
"700 720 LINE",
"136 720 LINE"
);
}
);
width = 664;
}
);
leftKerningGroup = Z;
note = Z;
rightKerningGroup = Z;
unicode = 005A;
},
{
glyphname = a;
lastChange = "2020-07-10 12:19:54 +0000";
layers = (
{
anchors = (
{
name = bottom;
position = "{242, 0}";
},
{
name = ogonek;
position = "{468, 28}";
},
{
name = top;
position = "{348, 544}";
}
);
color = 4;
layerId = "5B01CDE3-ACDA-4D2B-9E53-A993574CFD15";
paths = (
{
closed = 1;
nodes = (
"328 -12 OFFCURVE",
"400 4 OFFCURVE",
"468 28 CURVE",
"472 36 LINE",
"472 88 OFFCURVE",
"481 141 OFFCURVE",
"492 200 CURVE SMOOTH",
"516 324 LINE SMOOTH",
"545 475 OFFCURVE",
"480 556 OFFCURVE",
"312 556 CURVE SMOOTH",
"248 556 OFFCURVE",
"204 546 OFFCURVE",
"152 528 CURVE",
"136 444 LINE",
"148 444 LINE",
"184 460 OFFCURVE",
"236 476 OFFCURVE",
"296 476 CURVE SMOOTH",
"412 476 OFFCURVE",
"448 434 OFFCURVE",
"427 328 CURVE SMOOTH",
"392 148 LINE SMOOTH",
"386 117 OFFCURVE",
"383 92 OFFCURVE",
"386 62 CURVE",
"404 92 LINE",
"360 72 OFFCURVE",
"316 64 OFFCURVE",
"256 64 CURVE SMOOTH",
"184 64 OFFCURVE",
"132 88 OFFCURVE",
"132 148 CURVE SMOOTH",
"132 224 OFFCURVE",
"192 256 OFFCURVE",
"296 256 CURVE SMOOTH",
"356 256 OFFCURVE",
"392 244 OFFCURVE",
"428 228 CURVE",
"428 308 LINE",
"411 314 OFFCURVE",
"364 332 OFFCURVE",
"292 332 CURVE SMOOTH",
"156 332 OFFCURVE",
"40 276 OFFCURVE",
"40 144 CURVE SMOOTH",
"40 44 OFFCURVE",
"116 -12 OFFCURVE",
"252 -12 CURVE SMOOTH"
);
}
);
width = 590;
},
{
anchors = (
{
name = bottom;
position = "{259, 0}";
},
{
name = ogonek;
position = "{524, 20}";
},
{
name = top;
position = "{365, 548}";
}
);
color = 4;
layerId = "FA792B6B-505C-4DC3-9C40-F9BEDA01661E";
paths = (
{
closed = 1;
nodes = (
"372 -12 OFFCURVE",
"448 0 OFFCURVE",
"524 20 CURVE",
"532 28 LINE",
"528 80 OFFCURVE",
"542 141 OFFCURVE",
"552 192 CURVE SMOOTH",
"572 296 LINE SMOOTH",
"610 493 OFFCURVE",
"512 564 OFFCURVE",
"316 564 CURVE SMOOTH",
"256 564 OFFCURVE",
"192 556 OFFCURVE",
"142 544 CURVE",
"112 388 LINE",
"124 388 LINE",
"158 402 OFFCURVE",
"212 412 OFFCURVE",
"272 412 CURVE SMOOTH",
"348 412 OFFCURVE",
"389 388 OFFCURVE",
"366 307 CURVE",
"352 229 LINE",
"342 180 OFFCURVE",
"336 108 OFFCURVE",
"364 80 CURVE",
"360 132 LINE",
"344 124 OFFCURVE",
"308 120 OFFCURVE",
"292 120 CURVE SMOOTH",
"244 120 OFFCURVE",
"216 130 OFFCURVE",
"216 166 CURVE SMOOTH",
"216 202 OFFCURVE",
"252 220 OFFCURVE",
"300 220 CURVE SMOOTH",
"332 220 OFFCURVE",
"348 216 OFFCURVE",
"364 208 CURVE",
"388 324 LINE",
"368 330 OFFCURVE",
"328 336 OFFCURVE",
"292 336 CURVE SMOOTH",
"140 336 OFFCURVE",
"24 284 OFFCURVE",
"24 152 CURVE SMOOTH",
"24 28 OFFCURVE",
"112 -12 OFFCURVE",
"284 -12 CURVE SMOOTH"
);
}
);
width = 624;
}
);
leftKerningGroup = a;
note = a;
rightKerningGroup = a;
unicode = 0061;
},
{
glyphname = b;
lastChange = "2021-01-25 23:07:39 +0000";
layers = (
{
anchors = (
{
name = bottom;
position = "{256, 0}";
},
{
name = top;
position = "{404, 760}";
}
);
color = 4;
layerId = "5B01CDE3-ACDA-4D2B-9E53-A993574CFD15";
paths = (
{
closed = 1;
nodes = (
"440 -12 OFFCURVE",
"580 120 OFFCURVE",
"580 320 CURVE SMOOTH",
"580 472 OFFCURVE",
"484 556 OFFCURVE",
"348 556 CURVE SMOOTH",
"302 556 OFFCURVE",
"262 546 OFFCURVE",
"228 532 CURVE",
"220 458 LINE",
"240 465 OFFCURVE",
"276 476 OFFCURVE",
"328 476 CURVE SMOOTH",
"428 476 OFFCURVE",
"486 428 OFFCURVE",
"486 320 CURVE SMOOTH",
"486 160 OFFCURVE",
"388 68 OFFCURVE",
"252 68 CURVE SMOOTH",
"206 68 OFFCURVE",
"160 76 OFFCURVE",
"136 84 CURVE",
"144 68 LINE",
"152 85 OFFCURVE",
"160 111 OFFCURVE",
"168 148 CURVE SMOOTH",
"288 760 LINE",
"190 760 LINE",
"186 752 LINE",
"187 716 OFFCURVE",
"170 628 OFFCURVE",
"162 588 CURVE SMOOTH",
"76 152 LINE SMOOTH",
"68 112 OFFCURVE",
"56 64 OFFCURVE",
"44 32 CURVE",
"48 24 LINE",
"100 0 OFFCURVE",
"176 -12 OFFCURVE",
"248 -12 CURVE SMOOTH"
);
}
);
width = 618;
},
{
anchors = (
{
name = bottom;
position = "{289, 0}";
},
{
name = top;
position = "{436, 760}";
}
);
color = 4;
layerId = "FA792B6B-505C-4DC3-9C40-F9BEDA01661E";
paths = (
{
closed = 1;
nodes = (
"496 -12 OFFCURVE",
"652 96 OFFCURVE",
"652 324 CURVE SMOOTH",
"652 480 OFFCURVE",
"564 564 OFFCURVE",
"432 564 CURVE SMOOTH",
"388 564 OFFCURVE",
"352 556 OFFCURVE",
"320 540 CURVE",
"292 400 LINE",
"308 408 OFFCURVE",
"324 412 OFFCURVE",
"344 412 CURVE SMOOTH",
"404 412 OFFCURVE",
"436 376 OFFCURVE",
"436 304 CURVE SMOOTH",
"436 208 OFFCURVE",
"388 136 OFFCURVE",
"300 136 CURVE SMOOTH",
"264 136 OFFCURVE",
"244 144 OFFCURVE",
"228 156 CURVE",
"236 96 LINE",
"248 120 OFFCURVE",
"264 163 OFFCURVE",
"272 204 CURVE SMOOTH",
"380 760 LINE",
"157 760 LINE",
"149 748 LINE",
"151 696 OFFCURVE",
"144 644 OFFCURVE",
"135 596 CURVE SMOOTH",
"54 176 LINE SMOOTH",
"42 116 OFFCURVE",
"34 80 OFFCURVE",
"16 24 CURVE",
"20 16 LINE",
"72 0 OFFCURVE",
"180 -12 OFFCURVE",
"260 -12 CURVE SMOOTH"
);
}
);
width = 684;
}
);
leftKerningGroup = b;
note = b;
rightKerningGroup = b;
unicode = 0062;
},
{
glyphname = c;
lastChange = "2020-07-10 12:19:54 +0000";
layers = (
{
anchors = (
{
name = bottom;
position = "{249, 0}";
},
{
name = top;
position = "{346, 544}";
}
);
color = 4;
layerId = "5B01CDE3-ACDA-4D2B-9E53-A993574CFD15";
paths = (
{
closed = 1;
nodes = (
"48 76 OFFCURVE",
"132 -8 OFFCURVE",
"292 -8 CURVE SMOOTH",
"340 -8 OFFCURVE",
"384 0 OFFCURVE",
"420 16 CURVE",
"436 100 LINE",
"428 100 LINE",
"397 86 OFFCURVE",
"356 72 OFFCURVE",
"304 72 CURVE SMOOTH",
"204 72 OFFCURVE",
"142 120 OFFCURVE",
"142 220 CURVE SMOOTH",
"142 384 OFFCURVE",
"252 476 OFFCURVE",
"388 476 CURVE SMOOTH",
"440 476 OFFCURVE",
"472 464 OFFCURVE",
"496 450 CURVE",
"504 450 LINE",
"520 532 LINE",
"492 548 OFFCURVE",
"440 556 OFFCURVE",
"392 556 CURVE SMOOTH",
"196 556 OFFCURVE",
"48 424 OFFCURVE",
"48 220 CURVE SMOOTH"
);
}
);
width = 504;
},
{
anchors = (
{
name = bottom;
position = "{265, 0}";
},
{
name = top;
position = "{362, 548}";
}
);
color = 4;
layerId = "FA792B6B-505C-4DC3-9C40-F9BEDA01661E";
paths = (
{
closed = 1;
nodes = (
"40 60 OFFCURVE",
"152 -12 OFFCURVE",
"328 -12 CURVE SMOOTH",
"360 -12 OFFCURVE",
"406 -6 OFFCURVE",
"440 4 CURVE",
"472 168 LINE",
"460 168 LINE",
"436 160 OFFCURVE",
"412 152 OFFCURVE",
"376 152 CURVE SMOOTH",
"300 152 OFFCURVE",
"256 184 OFFCURVE",
"256 248 CURVE SMOOTH",
"256 344 OFFCURVE",
"324 400 OFFCURVE",
"412 400 CURVE SMOOTH",
"456 400 OFFCURVE",
"482 392 OFFCURVE",
"500 384 CURVE",
"512 384 LINE",
"544 548 LINE",
"514 558 OFFCURVE",
"460 564 OFFCURVE",
"416 564 CURVE SMOOTH",
"176 564 OFFCURVE",
"40 428 OFFCURVE",
"40 232 CURVE SMOOTH"
);
}
);
width = 532;
}
);
leftKerningGroup = c;
note = c;
rightKerningGroup = c;
unicode = 0063;
},
{
glyphname = d;
lastChange = "2020-07-10 12:19:54 +0000";
layers = (
{
anchors = (
{
name = bottom;
position = "{251, 0}";
},
{
name = center;
position = "{526, 656}";
},
{
name = top;
position = "{413, 760}";
},
{
name = topright;
position = "{703, 544}";
}
);
color = 4;
layerId = "5B01CDE3-ACDA-4D2B-9E53-A993574CFD15";
paths = (
{
closed = 1;
nodes = (
"500 532 LINE",
"476 544 OFFCURVE",
"426 556 OFFCURVE",
"374 556 CURVE SMOOTH",
"182 556 OFFCURVE",
"48 424 OFFCURVE",
"48 224 CURVE SMOOTH",
"48 68 OFFCURVE",
"146 -12 OFFCURVE",
"292 -12 CURVE SMOOTH",
"360 -12 OFFCURVE",
"420 0 OFFCURVE",
"484 24 CURVE",
"488 32 LINE",
"490 68 OFFCURVE",
"496 116 OFFCURVE",
"504 156 CURVE SMOOTH",
"622 760 LINE",
"524 760 LINE",
"520 752 LINE",
"521 716 OFFCURVE",
"504 628 OFFCURVE",
"496 588 CURVE SMOOTH",
"412 156 LINE SMOOTH",
"406 126 OFFCURVE",
"404 92 OFFCURVE",
"404 64 CURVE",
"424 92 LINE",
"396 76 OFFCURVE",
"352 68 OFFCURVE",
"304 68 CURVE SMOOTH",
"196 68 OFFCURVE",
"142 116 OFFCURVE",
"142 224 CURVE SMOOTH",
"142 384 OFFCURVE",
"236 476 OFFCURVE",
"368 476 CURVE SMOOTH",
"432 476 OFFCURVE",
"464 464 OFFCURVE",
"484 452 CURVE"
);
}
);
width = 618;
},
{
anchors = (
{
name = bottom;
position = "{284, 0}";
},
{
name = center;
position = "{574, 650}";
},
{
name = top;
position = "{445, 760}";
},
{
name = topright;
position = "{808, 548}";
}
);
color = 4;
layerId = "FA792B6B-505C-4DC3-9C40-F9BEDA01661E";
paths = (
{
closed = 1;
nodes = (
"500 540 LINE",
"476 552 OFFCURVE",
"444 564 OFFCURVE",
"388 564 CURVE SMOOTH",
"132 564 OFFCURVE",
"40 384 OFFCURVE",
"40 240 CURVE SMOOTH",
"40 52 OFFCURVE",
"164 -12 OFFCURVE",
"328 -12 CURVE SMOOTH",
"440 -12 OFFCURVE",
"516 8 OFFCURVE",
"580 28 CURVE",
"588 36 LINE",
"588 88 OFFCURVE",
"598 150 OFFCURVE",
"608 200 CURVE SMOOTH",
"716 760 LINE",
"494 760 LINE",
"486 748 LINE",
"488 696 OFFCURVE",
"480 636 OFFCURVE",
"472 596 CURVE SMOOTH",
"404 240 LINE SMOOTH",
"394 186 OFFCURVE",
"392 136 OFFCURVE",
"396 100 CURVE",
"436 164 LINE",
"416 156 OFFCURVE",
"388 140 OFFCURVE",
"348 140 CURVE SMOOTH",
"284 140 OFFCURVE",
"256 180 OFFCURVE",
"256 240 CURVE SMOOTH",
"256 340 OFFCURVE",
"308 416 OFFCURVE",
"396 416 CURVE SMOOTH",
"424 416 OFFCURVE",
"448 408 OFFCURVE",
"464 400 CURVE"
);
}
);
width = 684;
}
);
leftKerningGroup = c;
note = d;
rightKerningGroup = d;
unicode = 0064;
},
{
glyphname = e;
lastChange = "2020-07-10 12:19:54 +0000";
layers = (
{
anchors = (
{
name = bottom;
position = "{252, 0}";
},
{
name = ogonek;
position = "{461, 20}";
},
{
name = top;
position = "{357, 544}";
}
);
color = 4;
layerId = "5B01CDE3-ACDA-4D2B-9E53-A993574CFD15";
paths = (
{
closed = 1;
nodes = (
"369 -8 OFFCURVE",
"429 4 OFFCURVE",
"461 20 CURVE",
"477 104 LINE",
"469 104 LINE",
"438 88 OFFCURVE",
"381 72 OFFCURVE",
"313 72 CURVE SMOOTH",
"209 72 OFFCURVE",
"143 120 OFFCURVE",
"143 220 CURVE SMOOTH",
"143 240 LINE SMOOTH",
"143 352 OFFCURVE",
"217 476 OFFCURVE",
"345 476 CURVE SMOOTH",
"433 476 OFFCURVE",
"467 432 OFFCURVE",
"467 360 CURVE SMOOTH",
"467 350 OFFCURVE",
"465 332 OFFCURVE",
"461 316 CURVE",
"113 316 LINE",
"113 240 LINE",
"541 240 LINE",
"551 276 OFFCURVE",
"561 320 OFFCURVE",
"561 364 CURVE SMOOTH",
"561 476 OFFCURVE",
"489 556 OFFCURVE",
"349 556 CURVE SMOOTH",
"161 556 OFFCURVE",
"49 392 OFFCURVE",
"49 220 CURVE SMOOTH",
"49 76 OFFCURVE",
"137 -8 OFFCURVE",
"305 -8 CURVE SMOOTH"
);
}
);
width = 598;
},
{
anchors = (
{
name = bottom;
position = "{275, 0}";
},
{
name = ogonek;
position = "{514, 12}";
},
{
name = top;
position = "{380, 548}";
}
);
color = 4;
layerId = "FA792B6B-505C-4DC3-9C40-F9BEDA01661E";
paths = (
{
closed = 1;
nodes = (
"414 -12 OFFCURVE",
"466 -4 OFFCURVE",
"514 12 CURVE",
"546 172 LINE",
"534 172 LINE",
"502 156 OFFCURVE",
"442 144 OFFCURVE",
"390 144 CURVE SMOOTH",
"302 144 OFFCURVE",
"250 172 OFFCURVE",
"250 252 CURVE",
"250 264 LINE",
"250 368 OFFCURVE",
"294 424 OFFCURVE",
"354 424 CURVE SMOOTH",
"398 424 OFFCURVE",
"422 400 OFFCURVE",
"422 364 CURVE SMOOTH",
"422 352 OFFCURVE",
"420 342 OFFCURVE",
"418 332 CURVE",
"170 332 LINE",
"170 220 LINE",
"594 220 LINE",
"606 264 OFFCURVE",
"614 312 OFFCURVE",
"614 352 CURVE SMOOTH",
"614 480 OFFCURVE",
"542 564 OFFCURVE",
"362 564 CURVE SMOOTH",
"182 564 OFFCURVE",
"42 440 OFFCURVE",
"42 236 CURVE SMOOTH",
"42 52 OFFCURVE",
"182 -12 OFFCURVE",
"354 -12 CURVE SMOOTH"
);
}
);
width = 638;
}
);
leftKerningGroup = c;
leftMetricsKey = o;
note = e;
rightKerningGroup = e;
unicode = 0065;
},
{
glyphname = f;
lastChange = "2020-07-10 12:19:54 +0000";
layers = (
{
anchors = (
{
name = bottom;
position = "{115, 0}";
},
{
name = top;
position = "{263, 760}";
}
);
color = 4;
layerId = "5B01CDE3-ACDA-4D2B-9E53-A993574CFD15";
paths = (
{
closed = 1;
nodes = (
"144 0 LINE",
"250 544 LINE",
"264 632 OFFCURVE",
"300 680 OFFCURVE",
"380 680 CURVE SMOOTH",
"412 680 OFFCURVE",
"428 676 OFFCURVE",
"448 668 CURVE",
"456 668 LINE",
"472 748 LINE",
"454 756 OFFCURVE",
"420 760 OFFCURVE",
"388 760 CURVE SMOOTH",
"264 760 OFFCURVE",
"188 696 OFFCURVE",
"158 544 CURVE SMOOTH",
"52 0 LINE"
);
},
{
closed = 1;
nodes = (
"388 464 LINE",
"404 544 LINE",
"76 544 LINE",
"60 464 LINE"
);
}
);
width = 336;
},
{
anchors = (
{
name = bottom;
position = "{179, 0}";
},
{
name = top;
position = "{326, 760}";
}
);
color = 4;
layerId = "FA792B6B-505C-4DC3-9C40-F9BEDA01661E";
paths = (
{
closed = 1;
nodes = (
"264 0 LINE",
"370 548 LINE",
"380 600 OFFCURVE",
"412 624 OFFCURVE",
"468 624 CURVE SMOOTH",
"496 624 OFFCURVE",
"518 618 OFFCURVE",
"528 612 CURVE",
"540 612 LINE",
"570 764 LINE",
"550 770 OFFCURVE",
"508 776 OFFCURVE",
"468 776 CURVE SMOOTH",
"304 776 OFFCURVE",
"192 720 OFFCURVE",
"158 548 CURVE",
"52 0 LINE"
);
},
{
closed = 1;
nodes = (
"456 388 LINE",
"488 548 LINE",
"64 548 LINE",
"32 388 LINE"
);
}
);
width = 464;
}
);
leftKerningGroup = f;
note = f;
rightKerningGroup = f;
unicode = 0066;
},
{
glyphname = g;
lastChange = "2020-07-10 12:19:54 +0000";
layers = (
{
anchors = (
{
name = bottom;
position = "{209, -240}";
},
{
name = top;
position = "{362, 544}";
}
);
color = 4;
layerId = "5B01CDE3-ACDA-4D2B-9E53-A993574CFD15";
paths = (
{
closed = 1;
nodes = (
"356 -240 OFFCURVE",
"446 -144 OFFCURVE",
"476 8 CURVE SMOOTH",
"552 396 LINE SMOOTH",
"560 436 OFFCURVE",
"572 480 OFFCURVE",
"584 512 CURVE",
"580 520 LINE",
"524 544 OFFCURVE",
"456 556 OFFCURVE",
"384 556 CURVE SMOOTH",
"188 556 OFFCURVE",
"52 428 OFFCURVE",
"52 232 CURVE SMOOTH",
"52 76 OFFCURVE",
"160 4 OFFCURVE",
"304 4 CURVE SMOOTH",
"344 4 OFFCURVE",
"376 12 OFFCURVE",
"396 20 CURVE",
"412 100 LINE",
"392 92 OFFCURVE",
"364 84 OFFCURVE",
"316 84 CURVE SMOOTH",
"210 84 OFFCURVE",
"146 124 OFFCURVE",
"146 232 CURVE SMOOTH",
"146 388 OFFCURVE",
"240 476 OFFCURVE",
"376 476 CURVE SMOOTH",
"432 476 OFFCURVE",
"460 468 OFFCURVE",
"500 448 CURVE",
"480 474 LINE",
"474 458 OFFCURVE",
"467 436 OFFCURVE",
"460 400 CURVE SMOOTH",
"388 28 LINE",
"368 -92 OFFCURVE",
"300 -160 OFFCURVE",
"172 -160 CURVE SMOOTH",
"128 -160 OFFCURVE",
"76 -152 OFFCURVE",
"36 -132 CURVE",
"28 -132 LINE",
"12 -216 LINE",
"52 -232 OFFCURVE",
"116 -240 OFFCURVE",
"164 -240 CURVE SMOOTH"
);
}
);
width = 618;
},
{
anchors = (
{
name = bottom;
position = "{240, -240}";
},
{
name = top;
position = "{393, 548}";
}
);
color = 4;
layerId = "FA792B6B-505C-4DC3-9C40-F9BEDA01661E";
paths = (
{
closed = 1;
nodes = (
"392 -240 OFFCURVE",
"532 -156 OFFCURVE",
"572 48 CURVE SMOOTH",
"633 360 LINE SMOOTH",
"641 400 OFFCURVE",
"656 468 OFFCURVE",
"672 504 CURVE",
"664 516 LINE",
"591 540 OFFCURVE",
"510 556 OFFCURVE",
"412 556 CURVE SMOOTH",
"176 556 OFFCURVE",
"36 436 OFFCURVE",
"36 232 CURVE SMOOTH",
"36 80 OFFCURVE",
"128 0 OFFCURVE",
"272 0 CURVE SMOOTH",
"304 0 OFFCURVE",
"356 8 OFFCURVE",
"372 20 CURVE",
"400 168 LINE",
"388 160 OFFCURVE",
"368 152 OFFCURVE",
"340 152 CURVE SMOOTH",
"272 152 OFFCURVE",
"252 192 OFFCURVE",
"252 248 CURVE SMOOTH",
"252 332 OFFCURVE",
"296 408 OFFCURVE",
"384 408 CURVE SMOOTH",
"412 408 OFFCURVE",
"424 405 OFFCURVE",
"444 396 CURVE",
"444 428 LINE",
"430 404 OFFCURVE",
"424 372 OFFCURVE",
"416 332 CURVE SMOOTH",
"360 52 LINE",
"348 -44 OFFCURVE",
"296 -76 OFFCURVE",
"188 -76 CURVE SMOOTH",
"140 -76 OFFCURVE",
"84 -64 OFFCURVE",
"52 -44 CURVE",
"40 -44 LINE",
"8 -208 LINE",
"44 -228 OFFCURVE",
"120 -240 OFFCURVE",
"176 -240 CURVE SMOOTH"
);
}
);
width = 680;
}
);
leftKerningGroup = c;
note = g;
rightKerningGroup = g;
unicode = 0067;
},
{
glyphname = h;
lastChange = "2020-07-10 12:19:54 +0000";
layers = (
{
anchors = (
{
name = bottom;
position = "{270, 0}";
},
{
name = center;
position = "{246, 656}";
},
{
name = top;
position = "{223, 760}";
}
);
color = 4;
layerId = "5B01CDE3-ACDA-4D2B-9E53-A993574CFD15";
paths = (
{
closed = 1;
nodes = (
"284 760 LINE",
"186 760 LINE",
"182 752 LINE",
"183 716 OFFCURVE",
"166 628 OFFCURVE",
"158 588 CURVE SMOOTH",
"44 0 LINE",
"136 0 LINE"
);
},
{
closed = 1;
nodes = (
"204 444 LINE",
"246 462 OFFCURVE",
"296 476 OFFCURVE",
"344 476 CURVE SMOOTH",
"420 476 OFFCURVE",
"470 452 OFFCURVE",
"470 370 CURVE SMOOTH",
"470 354 OFFCURVE",
"468 334 OFFCURVE",
"464 312 CURVE SMOOTH",
"404 0 LINE",
"496 0 LINE",
"556 312 LINE SMOOTH",
"561 339 OFFCURVE",
"564 364 OFFCURVE",
"564 384 CURVE SMOOTH",
"564 512 OFFCURVE",
"476 556 OFFCURVE",
"364 556 CURVE SMOOTH",
"316 556 OFFCURVE",
"264 544 OFFCURVE",
"228 532 CURVE"
);
}
);
width = 640;
},
{
anchors = (
{
name = bottom;
position = "{300, 0}";
},
{
name = center;
position = "{267, 650}";
},
{
name = top;
position = "{274, 760}";
}
);
color = 4;
layerId = "FA792B6B-505C-4DC3-9C40-F9BEDA01661E";
paths = (
{
closed = 1;
nodes = (
"380 760 LINE",
"157 760 LINE",
"149 748 LINE",
"151 696 OFFCURVE",
"144 644 OFFCURVE",
"135 596 CURVE SMOOTH",
"20 0 LINE",
"232 0 LINE"
);
},
{
closed = 1;
nodes = (
"272 388 LINE",
"300 396 OFFCURVE",
"332 400 OFFCURVE",
"352 400 CURVE SMOOTH",
"412 400 OFFCURVE",
"428 368 OFFCURVE",
"428 332 CURVE SMOOTH",
"428 323 OFFCURVE",
"427 308 OFFCURVE",
"424 292 CURVE SMOOTH",
"368 0 LINE",
"580 0 LINE",
"636 292 LINE SMOOTH",
"642 322 OFFCURVE",
"644 348 OFFCURVE",
"644 372 CURVE SMOOTH",
"644 472 OFFCURVE",
"580 564 OFFCURVE",
"420 564 CURVE SMOOTH",
"368 564 OFFCURVE",
"328 556 OFFCURVE",
"284 540 CURVE"
);
}
);
width = 692;
}
);
leftKerningGroup = b;
note = h;
rightKerningGroup = a;
rightMetricsKey = n;
unicode = 0068;
},
{
glyphname = k;
lastChange = "2020-07-10 12:19:54 +0000";
layers = (
{
anchors = (
{
name = bottom;
position = "{217, 0}";
},
{
name = top;
position = "{365, 760}";
}
);
color = 4;
layerId = "5B01CDE3-ACDA-4D2B-9E53-A993574CFD15";
paths = (
{
closed = 1;
nodes = (
"176 284 LINE",
"370 0 LINE",
"478 0 LINE",
"478 12 LINE",
"456 36 OFFCURVE",
"429 79 OFFCURVE",
"408 108 CURVE SMOOTH",
"264 308 LINE",
"260 259 LINE",
"492 460 LINE SMOOTH",
"526 488 OFFCURVE",
"561 516 OFFCURVE",
"584 532 CURVE",
"584 544 LINE",
"474 544 LINE"
);
},
{
closed = 1;
nodes = (
"284 760 LINE",
"186 760 LINE",
"182 752 LINE",
"183 716 OFFCURVE",
"166 628 OFFCURVE",
"158 588 CURVE SMOOTH",
"44 0 LINE",
"136 0 LINE"
);
}
);
width = 540;
},
{
anchors = (
{
name = bottom;
position = "{287, 0}";
},
{
name = top;
position = "{434, 760}";
}
);
color = 4;
layerId = "FA792B6B-505C-4DC3-9C40-F9BEDA01661E";
paths = (
{
closed = 1;
nodes = (
"244 288 LINE",
"384 0 LINE",
"612 0 LINE",
"612 12 LINE",
"592 40 OFFCURVE",
"578 63 OFFCURVE",
"560 96 CURVE SMOOTH",
"416 368 LINE",
"396 221 LINE",
"612 432 LINE SMOOTH",
"644 463 OFFCURVE",
"704 516 OFFCURVE",
"732 536 CURVE",
"732 548 LINE",
"500 548 LINE"
);
},
{
closed = 1;
nodes = (
"376 760 LINE",
"153 760 LINE",
"145 748 LINE",
"147 696 OFFCURVE",
"140 644 OFFCURVE",
"131 596 CURVE SMOOTH",
"16 0 LINE",
"228 0 LINE"
);
}
);
width = 680;
}
);
leftKerningGroup = b;
note = k;
rightKerningGroup = k;
unicode = 006B;
},
{
glyphname = l;
lastChange = "2020-07-10 12:19:54 +0000";
layers = (
{
anchors = (
{
name = bottom;
position = "{84, 0}";
},
{
name = center;
position = "{180, 390}";
},
{
name = periodCAT;
position = "{349, 360}";
},
{
name = top;
position = "{246, 760}";
},
{
name = topright;
position = "{362, 544}";
}
);
color = 4;
layerId = "5B01CDE3-ACDA-4D2B-9E53-A993574CFD15";
paths = (
{
closed = 1;
nodes = (
"136 0 LINE",
"284 760 LINE",
"186 760 LINE",
"182 752 LINE",
"183 716 OFFCURVE",
"166 628 OFFCURVE",
"158 588 CURVE SMOOTH",
"44 0 LINE"
);
}
);
width = 284;
},
{
anchors = (
{
name = bottom;
position = "{116, 0}";
},
{
name = center;
position = "{204, 380}";
},
{
name = periodCAT;
position = "{439, 356}";
},
{
name = top;
position = "{277, 760}";
},
{
name = topright;
position = "{482, 548}";
}
);
color = 4;
layerId = "FA792B6B-505C-4DC3-9C40-F9BEDA01661E";
paths = (
{
closed = 1;
nodes = (
"232 0 LINE",
"380 760 LINE",
"157 760 LINE",
"149 748 LINE",
"151 696 OFFCURVE",
"144 644 OFFCURVE",
"135 596 CURVE SMOOTH",
"20 0 LINE"
);
}
);
width = 348;
}
);
leftKerningGroup = b;
note = l;
rightKerningGroup = d;
unicode = 006C;
},
{
glyphname = m;
lastChange = "2020-07-10 12:19:54 +0000";
layers = (
{
anchors = (
{
name = bottom;
position = "{425, 0}";
},
{
name = top;
position = "{531, 544}";
}
);
color = 4;
layerId = "5B01CDE3-ACDA-4D2B-9E53-A993574CFD15";
paths = (
{
closed = 1;
nodes = (
"136 0 LINE",
"212 392 LINE SMOOTH",
"217 422 OFFCURVE",
"219 453 OFFCURVE",
"220 476 CURVE",
"200 452 LINE",
"238 466 OFFCURVE",
"288 476 OFFCURVE",
"332 476 CURVE SMOOTH",
"416 476 OFFCURVE",
"457 452 OFFCURVE",
"457 370 CURVE SMOOTH",
"457 353 OFFCURVE",
"455 334 OFFCURVE",
"451 312 CURVE SMOOTH",
"391 0 LINE",
"483 0 LINE",
"543 312 LINE SMOOTH",
"548 339 OFFCURVE",
"551 364 OFFCURVE",
"551 384 CURVE SMOOTH",
"551 504 OFFCURVE",
"480 556 OFFCURVE",
"348 556 CURVE SMOOTH",
"296 556 OFFCURVE",
"200 540 OFFCURVE",
"140 516 CURVE",
"136 508 LINE",
"134 472 OFFCURVE",
"128 432 OFFCURVE",
"120 392 CURVE SMOOTH",
"44 0 LINE"
);
},
{
closed = 1;
nodes = (
"812 0 LINE",
"872 312 LINE SMOOTH",
"877 339 OFFCURVE",
"880 364 OFFCURVE",
"880 384 CURVE SMOOTH",
"880 512 OFFCURVE",
"800 556 OFFCURVE",
"675 556 CURVE SMOOTH",
"612 556 OFFCURVE",
"540 536 OFFCURVE",
"484 512 CURVE",
"528 444 LINE",
"568 464 OFFCURVE",
"608 476 OFFCURVE",
"660 476 CURVE SMOOTH",
"744 476 OFFCURVE",
"786 452 OFFCURVE",
"786 370 CURVE SMOOTH",
"786 353 OFFCURVE",
"784 334 OFFCURVE",
"780 312 CURVE SMOOTH",
"720 0 LINE"
);
}
);
width = 956;
},
{
anchors = (
{
name = bottom;
position = "{463, 0}";
},
{
name = top;
position = "{569, 548}";
}
);
color = 4;
layerId = "FA792B6B-505C-4DC3-9C40-F9BEDA01661E";
paths = (
{
closed = 1;
nodes = (
"232 0 LINE",
"292 312 LINE SMOOTH",
"301 361 OFFCURVE",
"308 412 OFFCURVE",
"296 444 CURVE",
"268 380 LINE",
"296 392 OFFCURVE",
"316 400 OFFCURVE",
"348 400 CURVE SMOOTH",
"408 400 OFFCURVE",
"424 368 OFFCURVE",
"424 332 CURVE SMOOTH",
"424 323 OFFCURVE",
"423 308 OFFCURVE",
"420 292 CURVE SMOOTH",
"364 0 LINE",
"576 0 LINE",
"632 292 LINE SMOOTH",
"638 322 OFFCURVE",
"640 348 OFFCURVE",
"640 372 CURVE SMOOTH",
"640 520 OFFCURVE",
"532 564 OFFCURVE",
"364 564 CURVE SMOOTH",
"272 564 OFFCURVE",
"176 544 OFFCURVE",
"116 524 CURVE",
"108 516 LINE",
"108 464 OFFCURVE",
"98 403 OFFCURVE",
"88 352 CURVE SMOOTH",
"20 0 LINE"
);
},
{
closed = 1;
nodes = (
"916 0 LINE",
"972 292 LINE SMOOTH",
"978 322 OFFCURVE",
"980 348 OFFCURVE",
"980 372 CURVE SMOOTH",
"980 512 OFFCURVE",
"884 564 OFFCURVE",
"744 564 CURVE SMOOTH",
"668 564 OFFCURVE",
"600 544 OFFCURVE",
"540 520 CURVE",
"620 384 LINE",
"644 396 OFFCURVE",
"668 400 OFFCURVE",
"688 400 CURVE SMOOTH",
"748 400 OFFCURVE",
"764 368 OFFCURVE",
"764 332 CURVE SMOOTH",
"764 323 OFFCURVE",
"763 308 OFFCURVE",
"760 292 CURVE SMOOTH",
"704 0 LINE"
);
}
);
width = 1032;
}
);
leftKerningGroup = m;
note = m;
rightKerningGroup = a;
unicode = 006D;
},
{
glyphname = n;
lastChange = "2020-07-10 12:19:54 +0000";
layers = (
{
anchors = (
{
name = bottom;
position = "{267, 0}";
},
{
name = top;
position = "{373, 544}";
}
);
color = 4;
layerId = "5B01CDE3-ACDA-4D2B-9E53-A993574CFD15";
paths = (
{
closed = 1;
nodes = (
"136 0 LINE",
"212 392 LINE SMOOTH",
"217 422 OFFCURVE",
"219 453 OFFCURVE",
"220 476 CURVE",
"200 452 LINE",
"236 464 OFFCURVE",
"288 476 OFFCURVE",
"336 476 CURVE SMOOTH",
"420 476 OFFCURVE",
"470 452 OFFCURVE",
"470 370 CURVE SMOOTH",
"470 353 OFFCURVE",
"468 334 OFFCURVE",
"464 312 CURVE SMOOTH",
"404 0 LINE",
"496 0 LINE",
"556 312 LINE SMOOTH",
"561 339 OFFCURVE",
"564 364 OFFCURVE",
"564 384 CURVE SMOOTH",
"564 512 OFFCURVE",
"476 556 OFFCURVE",
"352 556 CURVE SMOOTH",
"300 556 OFFCURVE",
"200 540 OFFCURVE",
"140 516 CURVE",
"136 508 LINE",
"134 472 OFFCURVE",
"128 432 OFFCURVE",
"120 392 CURVE SMOOTH",
"44 0 LINE"
);
}
);
width = 640;
},
{
anchors = (
{
name = bottom;
position = "{293, 0}";
},
{
name = top;
position = "{399, 548}";
}
);
color = 4;
layerId = "FA792B6B-505C-4DC3-9C40-F9BEDA01661E";
paths = (
{
closed = 1;
nodes = (
"232 0 LINE",
"292 312 LINE SMOOTH",
"301 361 OFFCURVE",
"308 408 OFFCURVE",
"296 440 CURVE",
"268 376 LINE",
"284 388 OFFCURVE",
"316 400 OFFCURVE",
"352 400 CURVE SMOOTH",
"412 400 OFFCURVE",
"428 368 OFFCURVE",
"428 332 CURVE SMOOTH",
"428 323 OFFCURVE",
"427 308 OFFCURVE",
"424 292 CURVE SMOOTH",
"368 0 LINE",
"580 0 LINE",
"636 292 LINE SMOOTH",
"642 322 OFFCURVE",
"644 348 OFFCURVE",
"644 372 CURVE SMOOTH",
"644 512 OFFCURVE",
"548 564 OFFCURVE",
"368 564 CURVE SMOOTH",
"276 564 OFFCURVE",
"176 544 OFFCURVE",
"116 524 CURVE",
"108 516 LINE",
"108 464 OFFCURVE",
"98 403 OFFCURVE",
"88 352 CURVE SMOOTH",
"20 0 LINE"
);
}
);
width = 692;
}
);
leftKerningGroup = m;
note = n;
rightKerningGroup = a;
unicode = 006E;
},
{
glyphname = o;
lastChange = "2020-07-10 12:19:54 +0000";
layers = (
{
anchors = (
{
name = bottom;
position = "{249, 0}";
},
{
name = center;
position = "{302, 272}";
},
{
name = ogonek;
position = "{334, 0}";
},
{
name = top;
position = "{355, 544}";
},
{
name = topright;
position = "{424, 544}";
}
);
color = 4;
layerId = "5B01CDE3-ACDA-4D2B-9E53-A993574CFD15";
paths = (
{
closed = 1;
nodes = (
"48 76 OFFCURVE",
"128 -8 OFFCURVE",
"264 -8 CURVE SMOOTH",
"464 -8 OFFCURVE",
"564 168 OFFCURVE",
"564 340 CURVE SMOOTH",
"564 472 OFFCURVE",
"484 556 OFFCURVE",
"348 556 CURVE SMOOTH",
"148 556 OFFCURVE",
"48 380 OFFCURVE",
"48 208 CURVE SMOOTH"
);
},
{
closed = 1;
nodes = (
"142 332 OFFCURVE",
"200 476 OFFCURVE",
"340 476 CURVE SMOOTH",
"420 476 OFFCURVE",
"470 432 OFFCURVE",
"470 340 CURVE SMOOTH",
"470 216 OFFCURVE",
"412 72 OFFCURVE",
"272 72 CURVE SMOOTH",
"192 72 OFFCURVE",
"142 116 OFFCURVE",
"142 208 CURVE SMOOTH"
);
}
);
width = 604;
},
{
anchors = (
{
name = bottom;
position = "{283, 0}";
},
{
name = center;
position = "{336, 274}";
},
{
name = ogonek;
position = "{407, 0}";
},
{
name = top;
position = "{393, 548}";
},
{
name = topright;
position = "{482, 548}";
}
);
color = 4;
layerId = "FA792B6B-505C-4DC3-9C40-F9BEDA01661E";
paths = (
{
closed = 1;
nodes = (
"40 68 OFFCURVE",
"136 -12 OFFCURVE",
"308 -12 CURVE SMOOTH",
"532 -12 OFFCURVE",
"640 148 OFFCURVE",
"640 328 CURVE SMOOTH",
"640 484 OFFCURVE",
"544 564 OFFCURVE",
"372 564 CURVE SMOOTH",
"148 564 OFFCURVE",
"40 404 OFFCURVE",
"40 224 CURVE SMOOTH"
);
},
{
closed = 1;
nodes = (
"256 284 OFFCURVE",
"284 416 OFFCURVE",
"364 416 CURVE SMOOTH",
"404 416 OFFCURVE",
"424 388 OFFCURVE",
"424 340 CURVE SMOOTH",
"424 268 OFFCURVE",
"396 136 OFFCURVE",
"316 136 CURVE SMOOTH",
"276 136 OFFCURVE",
"256 164 OFFCURVE",
"256 212 CURVE SMOOTH"
);
}
);
width = 672;
}
);
leftKerningGroup = c;
note = o;
rightKerningGroup = b;
unicode = 006F;
},
{
glyphname = p;
lastChange = "2020-07-10 12:19:54 +0000";
layers = (
{
anchors = (
{
name = bottom;
position = "{256, 0}";
},
{
name = top;
position = "{362, 544}";
}
);
color = 4;
layerId = "5B01CDE3-ACDA-4D2B-9E53-A993574CFD15";
paths = (
{
closed = 1;
nodes = (
"124 12 LINE",
"148 0 OFFCURVE",
"200 -12 OFFCURVE",
"252 -12 CURVE SMOOTH",
"444 -12 OFFCURVE",
"578 120 OFFCURVE",
"578 320 CURVE SMOOTH",
"578 476 OFFCURVE",
"480 556 OFFCURVE",
"344 556 CURVE SMOOTH",
"272 556 OFFCURVE",
"200 540 OFFCURVE",
"142 520 CURVE",
"138 512 LINE",
"136 476 OFFCURVE",
"130 436 OFFCURVE",
"122 396 CURVE SMOOTH",
"0 -232 LINE",
"92 -232 LINE",
"214 396 LINE SMOOTH",
"220 425 OFFCURVE",
"221 455 OFFCURVE",
"220 480 CURVE",
"204 452 LINE",
"238 466 OFFCURVE",
"280 476 OFFCURVE",
"328 476 CURVE SMOOTH",
"428 476 OFFCURVE",
"484 428 OFFCURVE",
"484 320 CURVE SMOOTH",
"484 160 OFFCURVE",
"392 68 OFFCURVE",
"256 68 CURVE SMOOTH",
"192 68 OFFCURVE",
"160 80 OFFCURVE",
"140 92 CURVE"
);
}
);
width = 618;
},
{
anchors = (
{
name = bottom;
position = "{291, 0}";
},
{
name = top;
position = "{397, 548}";
}
);
color = 4;
layerId = "FA792B6B-505C-4DC3-9C40-F9BEDA01661E";
paths = (
{
closed = 1;
nodes = (
"200 16 LINE",
"216 0 OFFCURVE",
"252 -12 OFFCURVE",
"308 -12 CURVE SMOOTH",
"564 -12 OFFCURVE",
"656 168 OFFCURVE",
"656 312 CURVE SMOOTH",
"656 500 OFFCURVE",
"532 564 OFFCURVE",
"368 564 CURVE SMOOTH",
"256 564 OFFCURVE",
"180 544 OFFCURVE",
"116 524 CURVE",
"108 516 LINE",
"108 464 OFFCURVE",
"98 404 OFFCURVE",
"88 352 CURVE SMOOTH",
"-24 -232 LINE",
"188 -232 LINE",
"292 312 LINE SMOOTH",
"302 366 OFFCURVE",
"306 418 OFFCURVE",
"296 444 CURVE",
"260 380 LINE",
"276 396 OFFCURVE",
"312 412 OFFCURVE",
"348 412 CURVE SMOOTH",
"416 412 OFFCURVE",
"440 368 OFFCURVE",
"440 312 CURVE SMOOTH",
"440 212 OFFCURVE",
"388 136 OFFCURVE",
"300 136 CURVE SMOOTH",
"252 136 OFFCURVE",
"244 148 OFFCURVE",
"220 168 CURVE"
);
}
);
width = 688;
}
);
leftKerningGroup = m;
note = p;
rightKerningGroup = b;
unicode = 0070;
},
{
glyphname = q;
lastChange = "2020-07-10 12:19:54 +0000";
layers = (
{
anchors = (
{
name = bottom;
position = "{256, 0}";
},
{
name = top;
position = "{362, 544}";
}
);
color = 4;
layerId = "5B01CDE3-ACDA-4D2B-9E53-A993574CFD15";
paths = (
{
closed = 1;
nodes = (
"424 92 LINE",
"392 76 OFFCURVE",
"352 68 OFFCURVE",
"304 68 CURVE SMOOTH",
"200 68 OFFCURVE",
"142 116 OFFCURVE",
"142 224 CURVE SMOOTH",
"142 384 OFFCURVE",
"232 476 OFFCURVE",
"372 476 CURVE SMOOTH",
"428 476 OFFCURVE",
"460 468 OFFCURVE",
"496 448 CURVE",
"484 476 LINE",
"472 452 OFFCURVE",
"466 429 OFFCURVE",
"460 396 CURVE SMOOTH",
"338 -232 LINE",
"430 -232 LINE",
"554 404 LINE SMOOTH",
"562 444 OFFCURVE",
"572 480 OFFCURVE",
"584 512 CURVE",
"580 520 LINE",
"524 544 OFFCURVE",
"452 556 OFFCURVE",
"380 556 CURVE SMOOTH",
"180 556 OFFCURVE",
"48 424 OFFCURVE",
"48 224 CURVE SMOOTH",
"48 68 OFFCURVE",
"148 -12 OFFCURVE",
"292 -12 CURVE SMOOTH",
"332 -12 OFFCURVE",
"372 -4 OFFCURVE",
"404 8 CURVE"
);
}
);
width = 618;
},
{
anchors = (
{
name = bottom;
position = "{289, 0}";
},
{
name = top;
position = "{395, 548}";
}
);
color = 4;
layerId = "FA792B6B-505C-4DC3-9C40-F9BEDA01661E";
paths = (
{
closed = 1;
nodes = (
"416 160 LINE",
"396 148 OFFCURVE",
"376 140 OFFCURVE",
"348 140 CURVE SMOOTH",
"280 140 OFFCURVE",
"256 184 OFFCURVE",
"256 244 CURVE SMOOTH",
"256 340 OFFCURVE",
"304 416 OFFCURVE",
"392 416 CURVE SMOOTH",
"428 416 OFFCURVE",
"436 412 OFFCURVE",
"480 392 CURVE",
"464 450 LINE",
"440 422 OFFCURVE",
"434 389 OFFCURVE",
"424 340 CURVE SMOOTH",
"312 -232 LINE",
"524 -232 LINE",
"642 372 LINE SMOOTH",
"650 412 OFFCURVE",
"664 476 OFFCURVE",
"680 512 CURVE",
"672 524 LINE",
"599 548 OFFCURVE",
"518 564 OFFCURVE",
"420 564 CURVE SMOOTH",
"184 564 OFFCURVE",
"40 444 OFFCURVE",
"40 228 CURVE SMOOTH",
"40 64 OFFCURVE",
"136 -12 OFFCURVE",
"292 -12 CURVE SMOOTH",
"344 -12 OFFCURVE",
"372 0 OFFCURVE",
"400 20 CURVE"
);
}
);
width = 684;
}
);
leftKerningGroup = c;
note = q;
rightKerningGroup = g;
unicode = 0071;
},
{
glyphname = r;
lastChange = "2020-07-10 12:19:54 +0000";
layers = (
{
anchors = (
{
name = bottom;
position = "{88, 0}";
},
{
name = top;
position = "{245, 544}";
}
);
color = 4;
layerId = "5B01CDE3-ACDA-4D2B-9E53-A993574CFD15";
paths = (
{
closed = 1;
nodes = (
"44 0 LINE",
"136 0 LINE",
"212 392 LINE SMOOTH",
"217 421 OFFCURVE",
"219 452 OFFCURVE",
"220 476 CURVE",
"201 453 LINE",
"236 461 OFFCURVE",
"284 468 OFFCURVE",
"328 468 CURVE SMOOTH",
"348 468 OFFCURVE",
"372 466 OFFCURVE",
"388 464 CURVE",
"396 464 LINE",
"412 544 LINE",
"398 546 OFFCURVE",
"368 548 OFFCURVE",
"336 548 CURVE SMOOTH",
"284 548 OFFCURVE",
"195 536 OFFCURVE",
"140 516 CURVE",
"136 508 LINE",
"134 472 OFFCURVE",
"128 432 OFFCURVE",
"120 392 CURVE SMOOTH"
);
}
);
width = 384;
},
{
anchors = (
{
name = bottom;
position = "{120, 0}";
},
{
name = top;
position = "{275, 548}";
}
);
color = 4;
layerId = "FA792B6B-505C-4DC3-9C40-F9BEDA01661E";
paths = (
{
closed = 1;
nodes = (
"16 0 LINE",
"228 0 LINE",
"288 312 LINE SMOOTH",
"298 364 OFFCURVE",
"300 412 OFFCURVE",
"296 448 CURVE",
"260 380 LINE",
"282 398 OFFCURVE",
"312 404 OFFCURVE",
"364 404 CURVE SMOOTH",
"392 404 OFFCURVE",
"416 400 OFFCURVE",
"440 392 CURVE",
"452 392 LINE",
"484 556 LINE",
"435 563 OFFCURVE",
"392 564 OFFCURVE",
"376 564 CURVE SMOOTH",
"248 564 OFFCURVE",
"172 544 OFFCURVE",
"112 524 CURVE",
"104 516 LINE",
"104 464 OFFCURVE",
"94 403 OFFCURVE",
"84 352 CURVE SMOOTH"
);
}
);
width = 444;
}
);
leftKerningGroup = m;
note = r;
rightKerningGroup = r;
unicode = 0072;
},
{
glyphname = s;
lastChange = "2020-07-10 12:19:54 +0000";
layers = (
{
anchors = (
{
name = bottom;
position = "{197, 0}";
},
{
name = top;
position = "{303, 544}";
}
);
color = 4;
layerId = "5B01CDE3-ACDA-4D2B-9E53-A993574CFD15";
paths = (
{
closed = 1;
nodes = (
"12 20 LINE",
"60 0 OFFCURVE",
"136 -8 OFFCURVE",
"200 -8 CURVE SMOOTH",
"344 -8 OFFCURVE",
"442 44 OFFCURVE",
"442 156 CURVE SMOOTH",
"442 240 OFFCURVE",
"374 280 OFFCURVE",
"296 300 CURVE SMOOTH",
"264 308 LINE SMOOTH",
"205 323 OFFCURVE",
"160 332 OFFCURVE",
"160 384 CURVE SMOOTH",
"160 444 OFFCURVE",
"224 472 OFFCURVE",
"316 472 CURVE SMOOTH",
"376 472 OFFCURVE",
"407 462 OFFCURVE",
"448 446 CURVE",
"456 446 LINE",
"472 528 LINE",
"432 544 OFFCURVE",
"388 552 OFFCURVE",
"324 552 CURVE SMOOTH",
"152 552 OFFCURVE",
"70 472 OFFCURVE",
"70 376 CURVE SMOOTH",
"70 296 OFFCURVE",
"126 260 OFFCURVE",
"220 236 CURVE SMOOTH",
"252 228 LINE SMOOTH",
"310 214 OFFCURVE",
"352 200 OFFCURVE",
"352 152 CURVE SMOOTH",
"352 80 OFFCURVE",
"268 72 OFFCURVE",
"204 72 CURVE SMOOTH",
"140 72 OFFCURVE",
"80 84 OFFCURVE",
"36 106 CURVE",
"28 106 LINE"
);
}
);
width = 500;
},
{
anchors = (
{
name = bottom;
position = "{231, 0}";
},
{
name = top;
position = "{337, 548}";
}
);
color = 4;
layerId = "FA792B6B-505C-4DC3-9C40-F9BEDA01661E";
paths = (
{
closed = 1;
nodes = (
"4 20 LINE",
"64 0 OFFCURVE",
"136 -8 OFFCURVE",
"212 -8 CURVE SMOOTH",
"412 -8 OFFCURVE",
"520 60 OFFCURVE",
"520 180 CURVE SMOOTH",
"520 276 OFFCURVE",
"452 314 OFFCURVE",
"372 332 CURVE SMOOTH",
"336 340 LINE SMOOTH",
"295 349 OFFCURVE",
"272 356 OFFCURVE",
"272 376 CURVE SMOOTH",
"272 400 OFFCURVE",
"300 408 OFFCURVE",
"352 408 CURVE SMOOTH",
"396 408 OFFCURVE",
"453 401 OFFCURVE",
"508 376 CURVE",
"520 376 LINE",
"552 540 LINE",
"496 556 OFFCURVE",
"428 560 OFFCURVE",
"364 560 CURVE SMOOTH",
"152 560 OFFCURVE",
"62 476 OFFCURVE",
"62 364 CURVE SMOOTH",
"62 268 OFFCURVE",
"126 234 OFFCURVE",
"208 216 CURVE SMOOTH",
"244 208 LINE SMOOTH",
"285 199 OFFCURVE",
"308 194 OFFCURVE",
"308 172 CURVE SMOOTH",
"308 152 OFFCURVE",
"280 144 OFFCURVE",
"216 144 CURVE SMOOTH",
"156 144 OFFCURVE",
"92 160 OFFCURVE",
"48 184 CURVE",
"36 184 LINE"
);
}
);
width = 568;
}
);
leftKerningGroup = s;
note = s;
rightKerningGroup = s;
unicode = 0073;
},
{
glyphname = t;
lastChange = "2020-07-10 12:19:54 +0000";
layers = (
{
anchors = (
{
name = bottom;
position = "{144, 0}";
},
{
name = center;
position = "{182, 280}";
},
{
name = top;
position = "{238, 692}";
},
{
name = topright;
position = "{394, 568}";
}
);
color = 4;
layerId = "5B01CDE3-ACDA-4D2B-9E53-A993574CFD15";
paths = (
{
closed = 1;
nodes = (
"284 -8 OFFCURVE",
"318 -2 OFFCURVE",
"340 8 CURVE",
"352 88 LINE",
"344 88 LINE",
"322 78 OFFCURVE",
"296 72 OFFCURVE",
"268 72 CURVE SMOOTH",
"204 72 OFFCURVE",
"180 100 OFFCURVE",
"180 144 CURVE SMOOTH",
"180 152 OFFCURVE",
"181 167 OFFCURVE",
"184 180 CURVE",
"284 692 LINE",
"192 692 LINE",
"92 180 LINE SMOOTH",
"89 165 OFFCURVE",
"88 148 OFFCURVE",
"88 136 CURVE SMOOTH",
"88 44 OFFCURVE",
"148 -8 OFFCURVE",
"248 -8 CURVE SMOOTH"
);
},
{
closed = 1;
nodes = (
"396 464 LINE",
"412 544 LINE",
"80 544 LINE",
"64 464 LINE"
);
}
);
width = 404;
},
{
anchors = (
{
name = bottom;
position = "{245, 0}";
},
{
name = center;
position = "{250, 274}";
},
{
name = top;
position = "{286, 680}";
},
{
name = topright;
position = "{516, 616}";
}
);
color = 4;
layerId = "FA792B6B-505C-4DC3-9C40-F9BEDA01661E";
paths = (
{
closed = 1;
nodes = (
"360 -8 OFFCURVE",
"392 -2 OFFCURVE",
"428 8 CURVE",
"460 172 LINE",
"448 172 LINE",
"428 162 OFFCURVE",
"404 156 OFFCURVE",
"380 156 CURVE SMOOTH",
"328 156 OFFCURVE",
"305 180 OFFCURVE",
"305 216 CURVE SMOOTH",
"305 223 OFFCURVE",
"306 235 OFFCURVE",
"308 244 CURVE SMOOTH",
"392 680 LINE",
"180 680 LINE",
"98 248 LINE SMOOTH",
"93 222 OFFCURVE",
"90 198 OFFCURVE",
"90 176 CURVE SMOOTH",
"90 44 OFFCURVE",
"176 -8 OFFCURVE",
"312 -8 CURVE SMOOTH"
);
},
{
closed = 1;
nodes = (
"476 388 LINE",
"508 548 LINE",
"64 548 LINE",
"32 388 LINE"
);
}
);
width = 500;
}
);
leftKerningGroup = t;
note = t;
rightKerningGroup = t;
unicode = 0074;
},
{
glyphname = u;
lastChange = "2020-07-10 12:19:54 +0000";
layers = (
{
anchors = (
{
name = bottom;
position = "{263, 0}";
},
{
name = ogonek;
position = "{500, 28}";
},
{
name = top;
position = "{369, 544}";
},
{
name = topright;
position = "{529, 544}";
}
);
color = 4;
layerId = "5B01CDE3-ACDA-4D2B-9E53-A993574CFD15";
paths = (
{
closed = 1;
nodes = (
"76 32 OFFCURVE",
"164 -12 OFFCURVE",
"288 -12 CURVE SMOOTH",
"340 -12 OFFCURVE",
"440 4 OFFCURVE",
"500 28 CURVE",
"504 36 LINE",
"506 72 OFFCURVE",
"512 112 OFFCURVE",
"520 152 CURVE SMOOTH",
"596 544 LINE",
"498 544 LINE",
"494 536 LINE",
"495 500 OFFCURVE",
"480 420 OFFCURVE",
"472 380 CURVE SMOOTH",
"428 152 LINE SMOOTH",
"421 122 OFFCURVE",
"420 90 OFFCURVE",
"420 68 CURVE",
"440 92 LINE",
"400 76 OFFCURVE",
"348 68 OFFCURVE",
"304 68 CURVE SMOOTH",
"220 68 OFFCURVE",
"170 92 OFFCURVE",
"170 174 CURVE SMOOTH",
"170 191 OFFCURVE",
"172 210 OFFCURVE",
"176 232 CURVE SMOOTH",
"236 544 LINE",
"138 544 LINE",
"134 536 LINE",
"135 500 OFFCURVE",
"120 420 OFFCURVE",
"112 380 CURVE SMOOTH",
"84 232 LINE SMOOTH",
"79 205 OFFCURVE",
"76 180 OFFCURVE",
"76 160 CURVE SMOOTH"
);
}
);
width = 632;
},
{
anchors = (
{
name = bottom;
position = "{293, 0}";
},
{
name = ogonek;
position = "{584, 28}";
},
{
name = top;
position = "{399, 548}";
},
{
name = topright;
position = "{573, 548}";
}
);
color = 4;
layerId = "FA792B6B-505C-4DC3-9C40-F9BEDA01661E";
paths = (
{
closed = 1;
nodes = (
"56 40 OFFCURVE",
"152 -12 OFFCURVE",
"332 -12 CURVE SMOOTH",
"424 -12 OFFCURVE",
"524 8 OFFCURVE",
"584 28 CURVE",
"592 36 LINE",
"592 88 OFFCURVE",
"602 149 OFFCURVE",
"612 200 CURVE SMOOTH",
"680 548 LINE",
"458 548 LINE",
"450 536 LINE",
"452 484 OFFCURVE",
"445 432 OFFCURVE",
"436 384 CURVE SMOOTH",
"408 240 LINE SMOOTH",
"398 190 OFFCURVE",
"396 144 OFFCURVE",
"400 108 CURVE",
"448 176 LINE",
"420 164 OFFCURVE",
"384 152 OFFCURVE",
"348 152 CURVE SMOOTH",
"288 152 OFFCURVE",
"272 184 OFFCURVE",
"272 220 CURVE SMOOTH",
"272 229 OFFCURVE",
"273 244 OFFCURVE",
"276 260 CURVE SMOOTH",
"332 548 LINE",
"110 548 LINE",
"102 536 LINE",
"104 484 OFFCURVE",
"97 432 OFFCURVE",
"88 384 CURVE SMOOTH",
"64 260 LINE SMOOTH",
"58 230 OFFCURVE",
"56 204 OFFCURVE",
"56 180 CURVE SMOOTH"
);
}
);
width = 692;
}
);
leftKerningGroup = u;
note = u;
rightKerningGroup = g;
unicode = 0075;
},
{
glyphname = v;
lastChange = "2020-07-10 12:19:54 +0000";
layers = (
{
anchors = (
{
name = bottom;
position = "{215, 0}";
},
{
name = top;
position = "{321, 544}";
}
);
color = 4;
layerId = "5B01CDE3-ACDA-4D2B-9E53-A993574CFD15";
paths = (
{
closed = 1;
nodes = (
"160 0 LINE",
"280 0 LINE",
"580 532 LINE",
"580 544 LINE",
"488 544 LINE",
"220 56 LINE",
"240 48 LINE",
"164 544 LINE",
"68 544 LINE",
"68 532 LINE"
);
}
);
width = 536;
},
{
anchors = (
{
name = bottom;
position = "{267, 0}";
},
{
name = top;
position = "{373, 548}";
}
);
color = 4;
layerId = "FA792B6B-505C-4DC3-9C40-F9BEDA01661E";
paths = (
{
closed = 1;
nodes = (
"132 0 LINE",
"396 0 LINE",
"692 536 LINE",
"692 548 LINE",
"468 548 LINE",
"272 124 LINE",
"320 96 LINE",
"280 548 LINE",
"60 548 LINE",
"60 536 LINE"
);
}
);
width = 640;
}
);
leftKerningGroup = v;
note = v;
rightKerningGroup = v;
unicode = 0076;
},
{
glyphname = w;
lastChange = "2020-07-10 12:19:54 +0000";
layers = (
{
anchors = (
{
name = bottom;
position = "{333, 0}";
},
{
name = top;
position = "{439, 544}";
}
);
color = 4;
layerId = "5B01CDE3-ACDA-4D2B-9E53-A993574CFD15";
paths = (
{
closed = 1;
nodes = (
"112 0 LINE",
"220 0 LINE",
"436 424 LINE",
"408 424 LINE",
"456 0 LINE",
"564 0 LINE",
"816 532 LINE",
"816 544 LINE",
"724 544 LINE",
"512 76 LINE",
"528 72 LINE",
"480 544 LINE",
"412 544 LINE",
"172 76 LINE",
"192 56 LINE",
"164 544 LINE",
"68 544 LINE",
"68 532 LINE"
);
}
);
width = 772;
},
{
anchors = (
{
name = bottom;
position = "{429, 0}";
},
{
name = top;
position = "{535, 548}";
}
);
color = 4;
layerId = "FA792B6B-505C-4DC3-9C40-F9BEDA01661E";
paths = (
{
closed = 1;
nodes = (
"112 0 LINE",
"344 0 LINE",
"524 356 LINE",
"476 356 LINE",
"512 0 LINE",
"740 0 LINE",
"1012 536 LINE",
"1012 548 LINE",
"788 548 LINE",
"612 128 LINE",
"656 120 LINE",
"612 548 LINE",
"460 548 LINE",
"256 140 LINE",
"304 136 LINE",
"280 548 LINE",
"60 548 LINE",
"60 536 LINE"
);
}
);
width = 964;
}
);
leftKerningGroup = w;
note = w;
rightKerningGroup = w;
unicode = 0077;
},
{
glyphname = x;
lastChange = "2020-07-10 12:19:54 +0000";
layers = (
{
anchors = (
{
name = bottom;
position = "{213, 0}";
},
{
name = top;
position = "{319, 544}";
}
);
color = 4;
layerId = "5B01CDE3-ACDA-4D2B-9E53-A993574CFD15";
paths = (
{
closed = 1;
nodes = (
"76 0 LINE",
"288 236 LINE",
"564 536 LINE",
"564 544 LINE",
"468 544 LINE",
"252 304 LINE",
"-20 8 LINE",
"-20 0 LINE"
);
},
{
closed = 1;
nodes = (
"452 0 LINE",
"452 8 LINE",
"296 300 LINE",
"168 544 LINE",
"76 544 LINE",
"76 536 LINE",
"236 232 LINE",
"360 0 LINE"
);
}
);
width = 532;
},
{
anchors = (
{
name = bottom;
position = "{277, 0}";
},
{
name = top;
position = "{383, 548}";
}
);
color = 4;
layerId = "FA792B6B-505C-4DC3-9C40-F9BEDA01661E";
paths = (
{
closed = 1;
nodes = (
"196 0 LINE",
"424 248 LINE",
"708 536 LINE",
"708 548 LINE",
"484 548 LINE",
"296 340 LINE",
"-28 12 LINE",
"-28 0 LINE"
);
},
{
closed = 1;
nodes = (
"600 0 LINE",
"600 12 LINE",
"412 324 LINE",
"296 548 LINE",
"64 548 LINE",
"64 536 LINE",
"252 224 LINE",
"368 0 LINE"
);
}
);
width = 660;
}
);
leftKerningGroup = x;
note = x;
rightKerningGroup = x;
unicode = 0078;
},
{
glyphname = y;
lastChange = "2020-07-10 12:19:54 +0000";
layers = (
{
anchors = (
{
name = bottom;
position = "{354, 0}";
},
{
name = top;
position = "{321, 544}";
}
);
color = 4;
layerId = "5B01CDE3-ACDA-4D2B-9E53-A993574CFD15";
paths = (
{
closed = 1;
nodes = (
"126 -232 LINE",
"578 532 LINE",
"578 544 LINE",
"486 544 LINE",
"188 28 LINE",
"34 -220 LINE",
"34 -232 LINE"
);
},
{
closed = 1;
nodes = (
"240 104 LINE",
"162 544 LINE",
"66 544 LINE",
"66 532 LINE",
"176 -28 LINE"
);
}
);
width = 536;
},
{
anchors = (
{
name = bottom;
position = "{454, 0}";
},
{
name = top;
position = "{365, 548}";
}
);
color = 4;
layerId = "FA792B6B-505C-4DC3-9C40-F9BEDA01661E";
paths = (
{
closed = 1;
nodes = (
"244 -232 LINE",
"680 536 LINE",
"680 548 LINE",
"464 548 LINE",
"268 152 LINE",
"24 -220 LINE",
"24 -232 LINE"
);
},
{
closed = 1;
nodes = (
"312 180 LINE",
"276 548 LINE",
"56 548 LINE",
"56 536 LINE",
"152 -84 LINE"
);
}
);
width = 624;
}
);
leftKerningGroup = v;
note = y;
rightKerningGroup = v;
unicode = 0079;
},
{
glyphname = z;
lastChange = "2020-07-10 12:19:54 +0000";
layers = (
{
anchors = (
{
name = bottom;
position = "{207, 0}";
},
{
name = top;
position = "{313, 544}";
}
);
color = 4;
guideLines = (
{
angle = 42.4209;
position = "{220, 294}";
}
);
layerId = "5B01CDE3-ACDA-4D2B-9E53-A993574CFD15";
paths = (
{
closed = 1;
nodes = (
"428 462 LINE",
"408 484 LINE",
"392 448 OFFCURVE",
"364 425 OFFCURVE",
"336 400 CURVE",
"104 188 LINE SMOOTH",
"63 150 OFFCURVE",
"-4 100 OFFCURVE",
"-4 8 CURVE",
"4 0 LINE",
"432 0 LINE",
"446 78 LINE",
"80 78 LINE",
"104 60 LINE",
"112 88 OFFCURVE",
"150 121 OFFCURVE",
"176 144 CURVE SMOOTH",
"408 356 LINE SMOOTH",
"449 394 OFFCURVE",
"516 444 OFFCURVE",
"516 536 CURVE",
"508 544 LINE",
"108 544 LINE",
"92 462 LINE"
);
}
);
width = 520;
},
{
anchors = (
{
name = bottom;
position = "{243, 0}";
},
{
name = top;
position = "{349, 548}";
}
);
color = 4;
layerId = "FA792B6B-505C-4DC3-9C40-F9BEDA01661E";
paths = (
{
closed = 1;
nodes = (
"388 388 LINE",
"316 432 LINE",
"316 404 OFFCURVE",
"286 372 OFFCURVE",
"256 344 CURVE SMOOTH",
"72 172 LINE SMOOTH",
"20 124 OFFCURVE",
"-4 80 OFFCURVE",
"0 12 CURVE",
"8 0 LINE",
"512 0 LINE",
"544 160 LINE",
"228 160 LINE",
"288 124 LINE",
"288 144 OFFCURVE",
"318 176 OFFCURVE",
"348 204 CURVE SMOOTH",
"532 376 LINE SMOOTH",
"584 424 OFFCURVE",
"608 468 OFFCURVE",
"604 536 CURVE",
"596 548 LINE",
"104 548 LINE",
"72 388 LINE"
);
}
);
width = 592;
}
);
leftKerningGroup = z;
note = z;
rightKerningGroup = z;
unicode = 007A;
},
{
glyphname = AE;
lastChange = "2020-07-10 12:19:54 +0000";
layers = (
{
anchors = (
{
name = bottom;
position = "{439, 0}";
},
{
name = top;
position = "{592, 720}";
}
);
color = 4;
layerId = "5B01CDE3-ACDA-4D2B-9E53-A993574CFD15";
paths = (
{
closed = 1;
nodes = (
"98 0 LINE",
"268 480 LINE SMOOTH",
"305 584 OFFCURVE",
"362 644 OFFCURVE",
"494 644 CURVE SMOOTH",
"525 644 OFFCURVE",
"556 640 OFFCURVE",
"568 632 CURVE",
"560 660 LINE",
"547 641 OFFCURVE",
"542 618 OFFCURVE",
"538 596 CURVE SMOOTH",
"422 0 LINE",
"518 0 LINE",
"626 556 LINE SMOOTH",
"634 596 OFFCURVE",
"644 660 OFFCURVE",
"658 700 CURVE",
"658 712 LINE",
"608 724 OFFCURVE",
"562 728 OFFCURVE",
"514 728 CURVE SMOOTH",
"314 728 OFFCURVE",
"229 648 OFFCURVE",
"172 488 CURVE SMOOTH",
"-2 0 LINE"
);
},
{
closed = 1;
nodes = (
"484 220 LINE",
"500 304 LINE",
"184 304 LINE",
"156 220 LINE"
);
},
{
closed = 1;
nodes = (
"888 0 LINE",
"904 84 LINE",
"500 84 LINE",
"484 0 LINE"
);
},
{
closed = 1;
nodes = (
"888 336 LINE",
"904 420 LINE",
"568 420 LINE",
"552 336 LINE"
);
},
{
closed = 1;
nodes = (
"1000 636 LINE",
"1016 720 LINE",
"604 720 LINE",
"588 636 LINE"
);
}
);
width = 994;
},
{
anchors = (
{
name = bottom;
position = "{442, 0}";
},
{
name = top;
position = "{595, 720}";
}
);
color = 4;
layerId = "FA792B6B-505C-4DC3-9C40-F9BEDA01661E";
paths = (
{
closed = 1;
nodes = (
"195 0 LINE",
"359 460 LINE SMOOTH",
"382 523 OFFCURVE",
"415 552 OFFCURVE",
"491 552 CURVE SMOOTH",
"501 552 OFFCURVE",
"524 549 OFFCURVE",
"540 544 CURVE",
"534 590 LINE",
"526 570 OFFCURVE",
"511 531 OFFCURVE",
"503 488 CURVE SMOOTH",
"407 0 LINE",
"619 0 LINE",
"727 552 LINE SMOOTH",
"735 592 OFFCURVE",
"750 652 OFFCURVE",
"766 688 CURVE",
"758 700 LINE",
"703 716 OFFCURVE",
"639 728 OFFCURVE",
"563 728 CURVE SMOOTH",
"383 728 OFFCURVE",
"229 698 OFFCURVE",
"147 468 CURVE SMOOTH",
"-21 0 LINE"
);
},
{
closed = 1;
nodes = (
"492 168 LINE",
"524 336 LINE",
"236 336 LINE",
"188 168 LINE"
);
},
{
closed = 1;
nodes = (
"900 0 LINE",
"934 184 LINE",
"592 184 LINE",
"556 0 LINE"
);
},
{
closed = 1;
nodes = (
"896 268 LINE",
"928 440 LINE",
"644 440 LINE",
"612 268 LINE"
);
},
{
closed = 1;
nodes = (
"998 536 LINE",
"1032 720 LINE",
"636 720 LINE",
"600 536 LINE"
);
}
);
width = 1000;
}
);
leftKerningGroup = A;
leftMetricsKey = A;
note = AE;
rightKerningGroup = E;
rightMetricsKey = E;
unicode = 00C6;
},
{
glyphname = Eng;
lastChange = "2020-07-10 12:19:54 +0000";
layers = (
{
color = 4;
layerId = "5B01CDE3-ACDA-4D2B-9E53-A993574CFD15";
paths = (
{
closed = 1;
nodes = (
"580 284 LINE",
"260 720 LINE",
"184 720 LINE",
"44 0 LINE",
"140 0 LINE",
"256 608 LINE",
"220 616 LINE",
"560 156 LINE"
);
},
{
closed = 1;
nodes = (
"465 -240 OFFCURVE",
"551 -177 OFFCURVE",
"579 -34 CURVE SMOOTH",
"728 720 LINE",
"632 720 LINE",
"483 -34 LINE SMOOTH",
"464 -129 OFFCURVE",
"413 -156 OFFCURVE",
"333 -156 CURVE SMOOTH",
"297 -156 OFFCURVE",
"261 -148 OFFCURVE",
"245 -140 CURVE",
"237 -140 LINE",
"221 -224 LINE",
"245 -232 OFFCURVE",
"281 -240 OFFCURVE",
"329 -240 CURVE SMOOTH"
);
}
);
width = 736;
},
{
color = 4;
layerId = "FA792B6B-505C-4DC3-9C40-F9BEDA01661E";
paths = (
{
closed = 1;
nodes = (
"600 364 LINE",
"324 720 LINE",
"156 720 LINE",
"20 0 LINE",
"232 0 LINE",
"320 468 LINE",
"268 472 LINE",
"552 104 LINE"
);
},
{
closed = 1;
nodes = (
"528 -240 OFFCURVE",
"639 -163 OFFCURVE",
"676 24 CURVE SMOOTH",
"812 720 LINE",
"600 720 LINE",
"466 36 LINE SMOOTH",
"452 -36 OFFCURVE",
"408 -68 OFFCURVE",
"336 -68 CURVE SMOOTH",
"308 -68 OFFCURVE",
"292 -62 OFFCURVE",
"276 -52 CURVE",
"264 -52 LINE",
"232 -224 LINE",
"258 -232 OFFCURVE",
"316 -240 OFFCURVE",
"356 -240 CURVE SMOOTH"
);
}
);
width = 784;
}
);
leftKerningGroup = B;
leftMetricsKey = N;
note = Eng;
rightKerningGroup = A;
rightMetricsKey = N;
unicode = 014A;
},
{
glyphname = OE;
lastChange = "2020-07-10 12:19:54 +0000";
layers = (
{
anchors = (
{
name = bottom;
position = "{472, 0}";
},
{
name = top;
position = "{625, 720}";
}
);
color = 4;
layerId = "5B01CDE3-ACDA-4D2B-9E53-A993574CFD15";
paths = (
{
closed = 1;
nodes = (
"628 -12 OFFCURVE",
"756 228 OFFCURVE",
"756 436 CURVE SMOOTH",
"756 616 OFFCURVE",
"648 732 OFFCURVE",
"460 732 CURVE SMOOTH",
"200 732 OFFCURVE",
"68 492 OFFCURVE",
"68 284 CURVE SMOOTH",
"68 104 OFFCURVE",
"176 -12 OFFCURVE",
"364 -12 CURVE SMOOTH"
);
},
{
closed = 1;
nodes = (
"248 76 OFFCURVE",
"168 144 OFFCURVE",
"168 284 CURVE SMOOTH",
"168 452 OFFCURVE",
"260 644 OFFCURVE",
"456 644 CURVE SMOOTH",
"576 644 OFFCURVE",
"656 576 OFFCURVE",
"656 436 CURVE SMOOTH",
"656 268 OFFCURVE",
"564 76 OFFCURVE",
"368 76 CURVE SMOOTH"
);
},
{
closed = 1;
nodes = (
"954 0 LINE",
"970 84 LINE",
"468 84 LINE",
"452 0 LINE"
);
},
{
closed = 1;
nodes = (
"954 336 LINE",
"970 420 LINE",
"680 420 LINE",
"664 336 LINE"
);
},
{
closed = 1;
nodes = (
"1066 636 LINE",
"1082 720 LINE",
"520 720 LINE",
"584 636 LINE"
);
}
);
width = 1060;
},
{
anchors = (
{
name = bottom;
position = "{507, 0}";
},
{
name = top;
position = "{660, 720}";
}
);
color = 4;
layerId = "FA792B6B-505C-4DC3-9C40-F9BEDA01661E";
paths = (
{
closed = 1;
nodes = (
"660 -12 OFFCURVE",
"824 180 OFFCURVE",
"824 416 CURVE SMOOTH",
"824 608 OFFCURVE",
"696 732 OFFCURVE",
"480 732 CURVE SMOOTH",
"212 732 OFFCURVE",
"48 532 OFFCURVE",
"48 304 CURVE SMOOTH",
"48 104 OFFCURVE",
"176 -12 OFFCURVE",
"392 -12 CURVE SMOOTH"
);
},
{
closed = 1;
nodes = (
"320 164 OFFCURVE",
"264 212 OFFCURVE",
"264 316 CURVE SMOOTH",
"264 412 OFFCURVE",
"328 556 OFFCURVE",
"468 556 CURVE SMOOTH",
"552 556 OFFCURVE",
"608 508 OFFCURVE",
"608 404 CURVE SMOOTH",
"608 308 OFFCURVE",
"544 164 OFFCURVE",
"404 164 CURVE SMOOTH"
);
},
{
closed = 1;
nodes = (
"1030 0 LINE",
"1064 184 LINE",
"512 184 LINE",
"476 0 LINE"
);
},
{
closed = 1;
nodes = (
"1026 268 LINE",
"1058 440 LINE",
"772 440 LINE",
"740 268 LINE"
);
},
{
closed = 1;
nodes = (
"1128 536 LINE",
"1162 720 LINE",
"540 720 LINE",
"592 536 LINE"
);
}
);
width = 1130;
}
);
leftKerningGroup = C;
leftMetricsKey = O;
note = OE;
rightKerningGroup = E;
rightMetricsKey = E;
unicode = 0152;
},
{
glyphname = Tbar;
lastChange = "2020-07-10 12:19:54 +0000";
layers = (
{
color = 4;
components = (
{
name = T;
}
);
layerId = "5B01CDE3-ACDA-4D2B-9E53-A993574CFD15";
paths = (
{
closed = 1;
nodes = (
"509 324 LINE",
"524 404 LINE",
"116 404 LINE",
"101 324 LINE"
);
}
);
width = 584;
},
{
color = 4;
components = (
{
name = T;
}
);
layerId = "FA792B6B-505C-4DC3-9C40-F9BEDA01661E";
paths = (
{
closed = 1;
nodes = (
"574 260 LINE",
"602 396 LINE",
"118 396 LINE",
"90 260 LINE"
);
}
);
width = 656;
}
);
leftKerningGroup = T;
leftMetricsKey = T;
note = Tbar;
rightKerningGroup = T;
unicode = 0166;
},
{
glyphname = Thorn;
lastChange = "2020-07-10 12:19:54 +0000";
layers = (
{
color = 4;
layerId = "5B01CDE3-ACDA-4D2B-9E53-A993574CFD15";
paths = (
{
closed = 1;
nodes = (
"208 520 LINE",
"372 520 LINE SMOOTH",
"440 520 OFFCURVE",
"480 488 OFFCURVE",
"480 412 CURVE SMOOTH",
"480 304 OFFCURVE",
"416 208 OFFCURVE",
"280 208 CURVE SMOOTH",
"144 208 LINE",
"128 124 LINE",
"280 124 LINE SMOOTH",
"496 124 OFFCURVE",
"580 288 OFFCURVE",
"580 412 CURVE SMOOTH",
"580 536 OFFCURVE",
"504 604 OFFCURVE",
"368 604 CURVE SMOOTH",
"224 604 LINE"
);
},
{
closed = 1;
nodes = (
"44 0 LINE",
"140 0 LINE",
"280 720 LINE",
"184 720 LINE"
);
}
);
width = 594;
},
{
color = 4;
layerId = "FA792B6B-505C-4DC3-9C40-F9BEDA01661E";
paths = (
{
closed = 1;
nodes = (
"264 464 LINE",
"416 464 LINE SMOOTH",
"468 464 OFFCURVE",
"504 440 OFFCURVE",
"504 384 CURVE SMOOTH",
"504 316 OFFCURVE",
"456 248 OFFCURVE",
"360 248 CURVE SMOOTH",
"220 248 LINE",
"188 80 LINE",
"360 80 LINE SMOOTH",
"564 80 OFFCURVE",
"716 224 OFFCURVE",
"716 400 CURVE SMOOTH",
"716 564 OFFCURVE",
"612 640 OFFCURVE",
"432 640 CURVE SMOOTH",
"296 640 LINE"
);
},
{
closed = 1;
nodes = (
"20 0 LINE",
"232 0 LINE",
"372 720 LINE",
"160 720 LINE"
);
}
);
width = 708;
}
);
leftKerningGroup = B;
leftMetricsKey = P;
note = Thorn;
rightKerningGroup = Thorn;
unicode = 00DE;
},
{
glyphname = Germandbls;
lastChange = "2020-07-10 12:19:54 +0000";
layers = (
{
color = 4;
layerId = "5B01CDE3-ACDA-4D2B-9E53-A993574CFD15";
paths = (
{
closed = 1;
nodes = (
"528 -12 OFFCURVE",
"620 83 OFFCURVE",
"620 220 CURVE SMOOTH",
"620 312 OFFCURVE",
"560 392 OFFCURVE",
"428 400 CURVE",
"428 369 LINE",
"632 624 LINE SMOOTH",
"668 669 OFFCURVE",
"664 697 OFFCURVE",
"664 712 CURVE",
"656 720 LINE",
"221 720 LINE",
"206 640 LINE",
"578 640 LINE",
"560 668 LINE",
"324 368 LINE",
"336 324 LINE",
"396 324 LINE SMOOTH",
"496 324 OFFCURVE",
"528 276 OFFCURVE",
"528 216 CURVE SMOOTH",
"528 139 OFFCURVE",
"484 72 OFFCURVE",
"360 72 CURVE SMOOTH",
"316 72 OFFCURVE",
"283 78 OFFCURVE",
"245 94 CURVE",
"237 94 LINE",
"221 8 LINE",
"260 -4 OFFCURVE",
"300 -12 OFFCURVE",
"352 -12 CURVE SMOOTH"
);
},
{
closed = 1;
nodes = (
"140 0 LINE",
"280 720 LINE",
"184 720 LINE",
"44 0 LINE"
);
}
);
width = 672;
},
{
color = 4;
layerId = "FA792B6B-505C-4DC3-9C40-F9BEDA01661E";
paths = (
{
closed = 1;
nodes = (
"592 -12 OFFCURVE",
"712 82 OFFCURVE",
"712 220 CURVE SMOOTH",
"712 315 OFFCURVE",
"644 388 OFFCURVE",
"506 388 CURVE",
"544 339 LINE",
"708 560 LINE SMOOTH",
"739 602 OFFCURVE",
"768 660 OFFCURVE",
"746 711 CURVE",
"736 720 LINE",
"276 720 LINE",
"243 556 LINE",
"564 556 LINE",
"564 628 LINE",
"363 344 LINE",
"380 272 LINE",
"428 272 LINE SMOOTH",
"480 272 OFFCURVE",
"508 256 OFFCURVE",
"508 216 CURVE SMOOTH",
"508 164 OFFCURVE",
"464 140 OFFCURVE",
"396 140 CURVE SMOOTH",
"372 140 OFFCURVE",
"348 144 OFFCURVE",
"333 148 CURVE",
"324 148 LINE",
"295 0 LINE",
"322 -7 OFFCURVE",
"364 -12 OFFCURVE",
"412 -12 CURVE SMOOTH"
);
},
{
closed = 1;
nodes = (
"232 0 LINE",
"372 720 LINE",
"160 720 LINE",
"20 0 LINE"
);
}
);
width = 730;
}
);
leftKerningGroup = B;
leftMetricsKey = H;
unicode = 1E9E;
},
{
glyphname = ae;
lastChange = "2020-07-10 12:19:54 +0000";
layers = (
{
anchors = (
{
name = bottom;
position = "{428, 0}";
},
{
name = top;
position = "{534, 544}";
}
);
color = 4;
layerId = "5B01CDE3-ACDA-4D2B-9E53-A993574CFD15";
paths = (
{
closed = 1;
nodes = (
"732 -8 OFFCURVE",
"792 4 OFFCURVE",
"824 20 CURVE",
"840 104 LINE",
"832 104 LINE",
"801 88 OFFCURVE",
"744 72 OFFCURVE",
"676 72 CURVE SMOOTH",
"572 72 OFFCURVE",
"506 120 OFFCURVE",
"506 220 CURVE SMOOTH",
"506 240 LINE SMOOTH",
"506 352 OFFCURVE",
"580 476 OFFCURVE",
"708 476 CURVE SMOOTH",
"796 476 OFFCURVE",
"830 432 OFFCURVE",
"830 360 CURVE SMOOTH",
"830 350 OFFCURVE",
"828 332 OFFCURVE",
"824 316 CURVE",
"476 316 LINE",
"476 240 LINE",
"904 240 LINE",
"914 276 OFFCURVE",
"924 320 OFFCURVE",
"924 364 CURVE SMOOTH",
"924 476 OFFCURVE",
"852 556 OFFCURVE",
"712 556 CURVE SMOOTH",
"524 556 OFFCURVE",
"414 392 OFFCURVE",
"414 220 CURVE SMOOTH",
"414 76 OFFCURVE",
"501 -8 OFFCURVE",
"668 -8 CURVE SMOOTH"
);
},
{
closed = 1;
nodes = (
"360 -12 OFFCURVE",
"420 16 OFFCURVE",
"496 68 CURVE",
"468 132 LINE",
"452 132 LINE",
"396 88 OFFCURVE",
"332 64 OFFCURVE",
"256 64 CURVE SMOOTH",
"184 64 OFFCURVE",
"132 88 OFFCURVE",
"132 148 CURVE SMOOTH",
"132 224 OFFCURVE",
"192 256 OFFCURVE",
"296 256 CURVE SMOOTH",
"356 256 OFFCURVE",
"392 244 OFFCURVE",
"428 228 CURVE",
"452 228 LINE",
"452 308 LINE",
"428 308 LINE",
"411 314 OFFCURVE",
"364 332 OFFCURVE",
"292 332 CURVE SMOOTH",
"156 332 OFFCURVE",
"40 276 OFFCURVE",
"40 144 CURVE SMOOTH",
"40 44 OFFCURVE",
"116 -12 OFFCURVE",
"252 -12 CURVE SMOOTH"
);
},
{
closed = 1;
nodes = (
"524 388 LINE",
"524 496 OFFCURVE",
"456 556 OFFCURVE",
"312 556 CURVE SMOOTH",
"248 556 OFFCURVE",
"204 546 OFFCURVE",
"152 528 CURVE",
"136 444 LINE",
"148 444 LINE",
"184 460 OFFCURVE",
"236 476 OFFCURVE",
"296 476 CURVE SMOOTH",
"412 476 OFFCURVE",
"450 433 OFFCURVE",
"427 328 CURVE",
"416 280 LINE"
);
}
);
width = 961;
},
{
anchors = (
{
name = bottom;
position = "{421, 0}";
},
{
name = top;
position = "{527, 548}";
}
);
color = 4;
layerId = "FA792B6B-505C-4DC3-9C40-F9BEDA01661E";
paths = (
{
closed = 1;
nodes = (
"724 -12 OFFCURVE",
"776 -4 OFFCURVE",
"824 12 CURVE",
"856 172 LINE",
"844 172 LINE",
"812 156 OFFCURVE",
"752 144 OFFCURVE",
"700 144 CURVE SMOOTH",
"612 144 OFFCURVE",
"560 172 OFFCURVE",
"560 252 CURVE",
"560 264 LINE",
"560 368 OFFCURVE",
"604 424 OFFCURVE",
"664 424 CURVE SMOOTH",
"708 424 OFFCURVE",
"732 400 OFFCURVE",
"732 364 CURVE SMOOTH",
"732 352 OFFCURVE",
"730 342 OFFCURVE",
"728 332 CURVE",
"480 332 LINE",
"480 220 LINE",
"904 220 LINE",
"916 264 OFFCURVE",
"924 312 OFFCURVE",
"924 352 CURVE SMOOTH",
"924 480 OFFCURVE",
"852 564 OFFCURVE",
"672 564 CURVE SMOOTH",
"501 564 OFFCURVE",
"368 440 OFFCURVE",
"368 236 CURVE SMOOTH",
"368 52 OFFCURVE",
"492 -12 OFFCURVE",
"664 -12 CURVE SMOOTH"
);
},
{
closed = 1;
nodes = (
"372 -12 OFFCURVE",
"456 20 OFFCURVE",
"524 64 CURVE",
"524 140 LINE",
"420 160 LINE",
"372 128 OFFCURVE",
"332 120 OFFCURVE",
"292 120 CURVE SMOOTH",
"244 120 OFFCURVE",
"216 130 OFFCURVE",
"216 166 CURVE SMOOTH",
"216 202 OFFCURVE",
"252 220 OFFCURVE",
"300 220 CURVE SMOOTH",
"336 220 OFFCURVE",
"352 216 OFFCURVE",
"376 208 CURVE",
"420 208 LINE",
"420 324 LINE",
"388 324 LINE",
"368 330 OFFCURVE",
"328 336 OFFCURVE",
"292 336 CURVE SMOOTH",
"140 336 OFFCURVE",
"24 284 OFFCURVE",
"24 152 CURVE SMOOTH",
"24 28 OFFCURVE",
"112 -12 OFFCURVE",
"284 -12 CURVE SMOOTH"
);
},
{
closed = 1;
nodes = (
"572 416 LINE",
"572 508 OFFCURVE",
"468 564 OFFCURVE",
"316 564 CURVE SMOOTH",
"256 564 OFFCURVE",
"192 556 OFFCURVE",
"142 544 CURVE",
"112 388 LINE",
"124 388 LINE",
"158 402 OFFCURVE",
"212 412 OFFCURVE",
"272 412 CURVE SMOOTH",
"356 412 OFFCURVE",
"408 384 OFFCURVE",
"364 288 CURVE",
"364 256 LINE"
);
}
);
width = 948;
}
);
leftKerningGroup = a;
leftMetricsKey = a;
note = ae;
rightKerningGroup = e;
rightMetricsKey = e;
unicode = 00E6;
},
{
glyphname = eth;
lastChange = "2020-07-10 12:19:54 +0000";
layers = (
{
color = 4;
layerId = "5B01CDE3-ACDA-4D2B-9E53-A993574CFD15";
paths = (
{
closed = 1;
nodes = (
"488 -12 OFFCURVE",
"586 236 OFFCURVE",
"586 456 CURVE SMOOTH",
"586 628 OFFCURVE",
"488 732 OFFCURVE",
"324 732 CURVE SMOOTH",
"268 732 OFFCURVE",
"224 722 OFFCURVE",
"188 708 CURVE",
"172 624 LINE",
"180 624 LINE",
"212 640 OFFCURVE",
"248 652 OFFCURVE",
"304 652 CURVE SMOOTH",
"436 652 OFFCURVE",
"492 584 OFFCURVE",
"492 456 CURVE",
"492 304 OFFCURVE",
"432 68 OFFCURVE",
"256 68 CURVE SMOOTH",
"168 68 OFFCURVE",
"132 116 OFFCURVE",
"132 184 CURVE SMOOTH",
"132 304 OFFCURVE",
"204 388 OFFCURVE",
"324 388 CURVE SMOOTH",
"408 388 OFFCURVE",
"460 348 OFFCURVE",
"488 280 CURVE",
"512 368 LINE",
"480 428 OFFCURVE",
"432 468 OFFCURVE",
"324 468 CURVE SMOOTH",
"184 468 OFFCURVE",
"40 368 OFFCURVE",
"40 184 CURVE SMOOTH",
"40 68 OFFCURVE",
"104 -12 OFFCURVE",
"252 -12 CURVE SMOOTH"
);
},
{
closed = 1;
nodes = (
"592 732 LINE",
"552 780 LINE",
"312 580 LINE",
"352 532 LINE"
);
}
);
width = 610;
},
{
color = 4;
layerId = "FA792B6B-505C-4DC3-9C40-F9BEDA01661E";
paths = (
{
closed = 1;
nodes = (
"552 -12 OFFCURVE",
"656 220 OFFCURVE",
"656 420 CURVE SMOOTH",
"656 628 OFFCURVE",
"540 732 OFFCURVE",
"340 732 CURVE SMOOTH",
"292 732 OFFCURVE",
"248 726 OFFCURVE",
"200 716 CURVE",
"168 548 LINE",
"180 548 LINE",
"212 560 OFFCURVE",
"244 572 OFFCURVE",
"284 572 CURVE SMOOTH",
"392 572 OFFCURVE",
"456 540 OFFCURVE",
"456 404 CURVE SMOOTH",
"456 304 OFFCURVE",
"408 144 OFFCURVE",
"316 144 CURVE SMOOTH",
"260 144 OFFCURVE",
"236 168 OFFCURVE",
"236 220 CURVE SMOOTH",
"236 276 OFFCURVE",
"280 324 OFFCURVE",
"348 324 CURVE SMOOTH",
"408 324 OFFCURVE",
"460 296 OFFCURVE",
"468 272 CURVE",
"492 408 LINE",
"460 440 OFFCURVE",
"424 464 OFFCURVE",
"324 464 CURVE SMOOTH",
"144 464 OFFCURVE",
"40 344 OFFCURVE",
"40 200 CURVE SMOOTH",
"40 52 OFFCURVE",
"148 -12 OFFCURVE",
"288 -12 CURVE SMOOTH"
);
},
{
closed = 1;
nodes = (
"600 724 LINE",
"536 788 LINE",
"288 548 LINE",
"352 484 LINE"
);
}
);
width = 672;
}
);
leftKerningGroup = c;
note = eth;
rightKerningGroup = b;
unicode = 00F0;
},
{
glyphname = idotless;
lastChange = "2020-07-10 12:19:54 +0000";
layers = (
{
anchors = (
{
name = bottom;
position = "{89, 0}";
},
{
name = ogonek;
position = "{136, 0}";
},
{
name = top;
position = "{197, 544}";
}
);
color = 4;
layerId = "5B01CDE3-ACDA-4D2B-9E53-A993574CFD15";
paths = (
{
closed = 1;
nodes = (
"136 0 LINE",
"242 544 LINE",
"144 544 LINE",
"140 536 LINE",
"141 500 OFFCURVE",
"124 412 OFFCURVE",
"116 372 CURVE SMOOTH",
"44 0 LINE"
);
}
);
width = 284;
},
{
anchors = (
{
name = bottom;
position = "{122, 0}";
},
{
name = ogonek;
position = "{228, 0}";
},
{
name = top;
position = "{228, 548}";
}
);
color = 4;
layerId = "FA792B6B-505C-4DC3-9C40-F9BEDA01661E";
paths = (
{
closed = 1;
nodes = (
"228 0 LINE",
"334 548 LINE",
"112 548 LINE",
"104 536 LINE",
"106 484 OFFCURVE",
"99 432 OFFCURVE",
"90 384 CURVE SMOOTH",
"16 0 LINE"
);
}
);
width = 348;
}
);
leftKerningGroup = b;
note = dotlessi;
rightKerningGroup = d;
unicode = 0131;
},
{
glyphname = jdotless;
lastChange = "2020-07-10 12:19:54 +0000";
layers = (
{
anchors = (
{
name = bottom;
position = "{42, -240}";
},
{
name = top;
position = "{195, 544}";
}
);
color = 4;
layerId = "5B01CDE3-ACDA-4D2B-9E53-A993574CFD15";
paths = (
{
closed = 1;
nodes = (
"-162 -234 OFFCURVE",
"-128 -240 OFFCURVE",
"-92 -240 CURVE SMOOTH",
"48 -240 OFFCURVE",
"108 -156 OFFCURVE",
"128 -52 CURVE SMOOTH",
"244 544 LINE",
"146 544 LINE",
"142 536 LINE",
"143 500 OFFCURVE",
"126 412 OFFCURVE",
"118 372 CURVE SMOOTH",
"36 -52 LINE SMOOTH",
"22 -124 OFFCURVE",
"-12 -160 OFFCURVE",
"-84 -160 CURVE SMOOTH",
"-108 -160 OFFCURVE",
"-130 -156 OFFCURVE",
"-152 -148 CURVE",
"-160 -148 LINE",
"-176 -228 LINE"
);
}
);
width = 284;
},
{
anchors = (
{
name = bottom;
position = "{65, -240}";
},
{
name = top;
position = "{232, 548}";
}
);
color = 4;
layerId = "FA792B6B-505C-4DC3-9C40-F9BEDA01661E";
paths = (
{
closed = 1;
nodes = (
"-158 -236 OFFCURVE",
"-124 -240 OFFCURVE",
"-80 -240 CURVE SMOOTH",
"78 -240 OFFCURVE",
"199 -168 OFFCURVE",
"234 12 CURVE SMOOTH",
"338 548 LINE",
"116 548 LINE",
"108 536 LINE",
"110 484 OFFCURVE",
"103 432 OFFCURVE",
"94 384 CURVE SMOOTH",
"20 0 LINE SMOOTH",
"10 -54 OFFCURVE",
"-24 -76 OFFCURVE",
"-80 -76 CURVE SMOOTH",
"-108 -76 OFFCURVE",
"-120 -72 OFFCURVE",
"-140 -64 CURVE",
"-152 -64 LINE",
"-184 -228 LINE"
);
}
);
width = 348;
}
);
leftKerningGroup = b;
note = dotlessj;
rightKerningGroup = d;
unicode = 0237;
},
{
glyphname = kgreenlandic;
lastChange = "2020-07-10 12:19:54 +0000";
layers = (
{
anchors = (
{
name = bottom;
position = "{217, 0}";
},
{
name = top;
position = "{365, 760}";
}
);
color = 4;
layerId = "5B01CDE3-ACDA-4D2B-9E53-A993574CFD15";
paths = (
{
closed = 1;
nodes = (
"176 284 LINE",
"370 0 LINE",
"478 0 LINE",
"478 12 LINE",
"456 36 OFFCURVE",
"429 79 OFFCURVE",
"408 108 CURVE SMOOTH",
"264 308 LINE",
"260 259 LINE",
"492 460 LINE SMOOTH",
"526 488 OFFCURVE",
"561 516 OFFCURVE",
"584 532 CURVE",
"584 544 LINE",
"474 544 LINE"
);
},
{
closed = 1;
nodes = (
"284 760 LINE",
"186 760 LINE",
"182 752 LINE",
"183 716 OFFCURVE",
"166 628 OFFCURVE",
"158 588 CURVE SMOOTH",
"44 0 LINE",
"136 0 LINE"
);
}
);
width = 540;
},
{
anchors = (
{
name = bottom;
position = "{287, 0}";
},
{
name = top;
position = "{434, 760}";
}
);
color = 4;
layerId = "FA792B6B-505C-4DC3-9C40-F9BEDA01661E";
paths = (
{
closed = 1;
nodes = (
"244 288 LINE",
"368 0 LINE",
"596 0 LINE",
"596 12 LINE",
"576 40 OFFCURVE",
"561 61 OFFCURVE",
"544 96 CURVE SMOOTH",
"416 358 LINE",
"396 231 LINE",
"596 432 LINE SMOOTH",
"628 464 OFFCURVE",
"688 516 OFFCURVE",
"716 536 CURVE",
"716 548 LINE",
"484 548 LINE"
);
},
{
closed = 1;
nodes = (
"334 548 LINE",
"111 548 LINE",
"103 536 LINE",
"105 484 OFFCURVE",
"98 432 OFFCURVE",
"89 384 CURVE SMOOTH",
"16 0 LINE",
"228 0 LINE"
);
}
);
width = 680;
}
);
leftKerningGroup = b;
note = k;
rightKerningGroup = k;
unicode = 0138;
},
{
glyphname = eng;
lastChange = "2020-07-10 12:19:54 +0000";
layers = (
{
color = 4;
components = (
{
name = n;
}
);
layerId = "5B01CDE3-ACDA-4D2B-9E53-A993574CFD15";
paths = (
{
closed = 1;
nodes = (
"410 -240 OFFCURVE",
"467 -152 OFFCURVE",
"486 -52 CURVE SMOOTH",
"506 52 LINE",
"414 52 LINE",
"394 -52 LINE SMOOTH",
"380 -124 OFFCURVE",
"344 -160 OFFCURVE",
"274 -160 CURVE SMOOTH",
"250 -160 OFFCURVE",
"228 -156 OFFCURVE",
"206 -148 CURVE",
"198 -148 LINE",
"182 -228 LINE",
"196 -234 OFFCURVE",
"230 -240 OFFCURVE",
"266 -240 CURVE SMOOTH"
);
}
);
width = 640;
},
{
color = 4;
components = (
{
name = n;
}
);
layerId = "FA792B6B-505C-4DC3-9C40-F9BEDA01661E";
paths = (
{
closed = 1;
nodes = (
"416 -240 OFFCURVE",
"548 -168 OFFCURVE",
"580 0 CURVE",
"593 68 LINE",
"381 68 LINE",
"368 0 LINE",
"360 -44 OFFCURVE",
"332 -76 OFFCURVE",
"268 -76 CURVE SMOOTH",
"240 -76 OFFCURVE",
"228 -72 OFFCURVE",
"208 -64 CURVE",
"196 -64 LINE",
"164 -228 LINE",
"190 -236 OFFCURVE",
"224 -240 OFFCURVE",
"268 -240 CURVE SMOOTH"
);
}
);
width = 692;
}
);
leftKerningGroup = m;
note = eng;
rightKerningGroup = a;
unicode = 014B;
},
{
glyphname = oe;
lastChange = "2020-07-10 12:19:54 +0000";
layers = (
{
color = 4;
layerId = "5B01CDE3-ACDA-4D2B-9E53-A993574CFD15";
paths = (
{
closed = 1;
nodes = (
"464 -8 OFFCURVE",
"564 168 OFFCURVE",
"564 340 CURVE SMOOTH",
"564 472 OFFCURVE",
"484 556 OFFCURVE",
"348 556 CURVE SMOOTH",
"148 556 OFFCURVE",
"48 380 OFFCURVE",
"48 208 CURVE SMOOTH",
"48 76 OFFCURVE",
"128 -8 OFFCURVE",
"264 -8 CURVE SMOOTH"
);
},
{
closed = 1;
nodes = (
"192 72 OFFCURVE",
"142 116 OFFCURVE",
"142 208 CURVE SMOOTH",
"142 332 OFFCURVE",
"200 476 OFFCURVE",
"340 476 CURVE SMOOTH",
"420 476 OFFCURVE",
"470 432 OFFCURVE",
"470 340 CURVE SMOOTH",
"470 216 OFFCURVE",
"412 72 OFFCURVE",
"272 72 CURVE SMOOTH"
);
},
{
closed = 1;
nodes = (
"780 -8 OFFCURVE",
"840 4 OFFCURVE",
"872 20 CURVE",
"888 104 LINE",
"880 104 LINE",
"849 88 OFFCURVE",
"792 72 OFFCURVE",
"724 72 CURVE SMOOTH",
"620 72 OFFCURVE",
"554 120 OFFCURVE",
"554 220 CURVE SMOOTH",
"554 240 LINE SMOOTH",
"554 352 OFFCURVE",
"628 476 OFFCURVE",
"756 476 CURVE SMOOTH",
"844 476 OFFCURVE",
"878 432 OFFCURVE",
"878 360 CURVE SMOOTH",
"878 350 OFFCURVE",
"876 332 OFFCURVE",
"872 316 CURVE",
"524 316 LINE",
"524 240 LINE",
"952 240 LINE",
"962 276 OFFCURVE",
"972 320 OFFCURVE",
"972 364 CURVE SMOOTH",
"972 476 OFFCURVE",
"900 556 OFFCURVE",
"760 556 CURVE SMOOTH",
"575 556 OFFCURVE",
"464 392 OFFCURVE",
"464 220 CURVE SMOOTH",
"464 76 OFFCURVE",
"551 -8 OFFCURVE",
"716 -8 CURVE SMOOTH"
);
}
);
width = 1009;
},
{
color = 4;
layerId = "FA792B6B-505C-4DC3-9C40-F9BEDA01661E";
paths = (
{
closed = 1;
nodes = (
"512 -12 OFFCURVE",
"612 148 OFFCURVE",
"612 328 CURVE SMOOTH",
"612 484 OFFCURVE",
"524 564 OFFCURVE",
"372 564 CURVE SMOOTH",
"148 564 OFFCURVE",
"40 404 OFFCURVE",
"40 224 CURVE SMOOTH",
"40 68 OFFCURVE",
"136 -12 OFFCURVE",
"308 -12 CURVE SMOOTH"
);
},
{
closed = 1;
nodes = (
"276 136 OFFCURVE",
"256 164 OFFCURVE",
"256 212 CURVE SMOOTH",
"256 284 OFFCURVE",
"284 416 OFFCURVE",
"364 416 CURVE SMOOTH",
"404 416 OFFCURVE",
"424 388 OFFCURVE",
"424 340 CURVE SMOOTH",
"424 268 OFFCURVE",
"396 136 OFFCURVE",
"316 136 CURVE SMOOTH"
);
},
{
closed = 1;
nodes = (
"776 -12 OFFCURVE",
"828 -4 OFFCURVE",
"876 12 CURVE",
"908 172 LINE",
"896 172 LINE",
"864 156 OFFCURVE",
"804 144 OFFCURVE",
"752 144 CURVE SMOOTH",
"664 144 OFFCURVE",
"612 172 OFFCURVE",
"612 252 CURVE",
"612 264 LINE",
"612 368 OFFCURVE",
"656 424 OFFCURVE",
"716 424 CURVE SMOOTH",
"760 424 OFFCURVE",
"784 400 OFFCURVE",
"784 364 CURVE SMOOTH",
"784 352 OFFCURVE",
"782 342 OFFCURVE",
"780 332 CURVE",
"532 332 LINE",
"532 220 LINE",
"956 220 LINE",
"968 264 OFFCURVE",
"976 312 OFFCURVE",
"976 352 CURVE SMOOTH",
"976 480 OFFCURVE",
"904 564 OFFCURVE",
"724 564 CURVE SMOOTH",
"552 564 OFFCURVE",
"420 452 OFFCURVE",
"420 224 CURVE SMOOTH",
"420 52 OFFCURVE",
"552 -12 OFFCURVE",
"716 -12 CURVE SMOOTH"
);
}
);
width = 1000;
}
);
leftKerningGroup = c;
leftMetricsKey = o;
rightKerningGroup = e;
rightMetricsKey = e;
unicode = 0153;
},
{
glyphname = tbar;
lastChange = "2020-07-10 12:19:54 +0000";
layers = (
{
color = 4;
components = (
{
name = t;
}
);
layerId = "5B01CDE3-ACDA-4D2B-9E53-A993574CFD15";
paths = (
{
closed = 1;
nodes = (
"38 316 LINE",
"24 248 LINE",
"356 248 LINE",
"370 316 LINE"
);
}
);
width = 404;
},
{
color = 4;
components = (
{
name = t;
}
);
layerId = "FA792B6B-505C-4DC3-9C40-F9BEDA01661E";
paths = (
{
closed = 1;
nodes = (
"20 324 LINE",
"0 224 LINE",
"444 224 LINE",
"464 324 LINE"
);
}
);
width = 500;
}
);
leftKerningGroup = t;
note = tbar;
rightKerningGroup = t;
rightMetricsKey = t;
unicode = 0167;
},
{
glyphname = thorn;
lastChange = "2020-07-10 12:19:54 +0000";
layers = (
{
color = 4;
layerId = "5B01CDE3-ACDA-4D2B-9E53-A993574CFD15";
paths = (
{
closed = 1;
nodes = (
"92 -232 LINE",
"286 760 LINE",
"188 760 LINE",
"184 752 LINE",
"185 716 OFFCURVE",
"168 628 OFFCURVE",
"160 588 CURVE SMOOTH",
"0 -232 LINE"
);
},
{
closed = 1;
nodes = (
"444 -12 OFFCURVE",
"578 120 OFFCURVE",
"578 320 CURVE SMOOTH",
"578 476 OFFCURVE",
"480 556 OFFCURVE",
"344 556 CURVE SMOOTH",
"304 556 OFFCURVE",
"264 552 OFFCURVE",
"228 544 CURVE",
"200 456 LINE",
"212 456 LINE",
"244 468 OFFCURVE",
"284 476 OFFCURVE",
"328 476 CURVE SMOOTH",
"428 476 OFFCURVE",
"484 428 OFFCURVE",
"484 320 CURVE SMOOTH",
"484 160 OFFCURVE",
"392 68 OFFCURVE",
"256 68 CURVE SMOOTH",
"204 68 OFFCURVE",
"164 76 OFFCURVE",
"140 92 CURVE",
"112 92 LINE",
"100 12 LINE",
"124 12 LINE",
"148 0 OFFCURVE",
"200 -12 OFFCURVE",
"252 -12 CURVE SMOOTH"
);
}
);
width = 618;
},
{
color = 4;
layerId = "FA792B6B-505C-4DC3-9C40-F9BEDA01661E";
paths = (
{
closed = 1;
nodes = (
"188 -232 LINE",
"380 760 LINE",
"157 760 LINE",
"149 748 LINE",
"151 696 OFFCURVE",
"144 644 OFFCURVE",
"135 596 CURVE SMOOTH",
"-24 -232 LINE"
);
},
{
closed = 1;
nodes = (
"496 -12 OFFCURVE",
"652 96 OFFCURVE",
"652 320 CURVE SMOOTH",
"652 468 OFFCURVE",
"568 556 OFFCURVE",
"432 556 CURVE SMOOTH",
"388 556 OFFCURVE",
"352 552 OFFCURVE",
"268 508 CURVE",
"236 384 LINE",
"284 384 LINE",
"304 400 OFFCURVE",
"324 404 OFFCURVE",
"344 404 CURVE SMOOTH",
"404 404 OFFCURVE",
"436 368 OFFCURVE",
"436 300 CURVE SMOOTH",
"436 208 OFFCURVE",
"388 136 OFFCURVE",
"300 136 CURVE SMOOTH",
"280 136 OFFCURVE",
"256 136 OFFCURVE",
"240 152 CURVE",
"184 152 LINE",
"144 -8 LINE",
"212 -8 LINE",
"232 -12 OFFCURVE",
"244 -12 OFFCURVE",
"260 -12 CURVE SMOOTH"
);
}
);
width = 684;
}
);
leftKerningGroup = b;
note = thorn;
rightKerningGroup = b;
unicode = 00FE;
},
{
glyphname = germandbls;
lastChange = "2020-07-10 12:19:54 +0000";
layers = (
{
color = 4;
layerId = "5B01CDE3-ACDA-4D2B-9E53-A993574CFD15";
paths = (
{
closed = 1;
nodes = (
"456 -8 OFFCURVE",
"536 48 OFFCURVE",
"536 160 CURVE SMOOTH",
"536 216 OFFCURVE",
"504 256 OFFCURVE",
"476 284 CURVE SMOOTH",
"464 296 LINE SMOOTH",
"444 316 OFFCURVE",
"424 332 OFFCURVE",
"424 368 CURVE SMOOTH",
"424 408 OFFCURVE",
"456 437 OFFCURVE",
"488 472 CURVE SMOOTH",
"519 506 OFFCURVE",
"550 548 OFFCURVE",
"550 612 CURVE SMOOTH",
"550 696 OFFCURVE",
"492 760 OFFCURVE",
"388 760 CURVE SMOOTH",
"256 760 OFFCURVE",
"184 688 OFFCURVE",
"156 540 CURVE SMOOTH",
"52 0 LINE",
"144 0 LINE",
"252 556 LINE SMOOTH",
"268 640 OFFCURVE",
"308 680 OFFCURVE",
"380 680 CURVE SMOOTH",
"440 680 OFFCURVE",
"464 652 OFFCURVE",
"464 608 CURVE SMOOTH",
"464 564 OFFCURVE",
"434 530 OFFCURVE",
"404 496 CURVE SMOOTH",
"371 459 OFFCURVE",
"336 420 OFFCURVE",
"336 360 CURVE SMOOTH",
"336 304 OFFCURVE",
"367 273 OFFCURVE",
"392 248 CURVE SMOOTH",
"404 236 LINE SMOOTH",
"426 214 OFFCURVE",
"448 196 OFFCURVE",
"448 156 CURVE SMOOTH",
"448 96 OFFCURVE",
"412 68 OFFCURVE",
"344 68 CURVE SMOOTH",
"304 68 OFFCURVE",
"278 78 OFFCURVE",
"260 88 CURVE",
"252 88 LINE",
"236 8 LINE",
"268 -1 OFFCURVE",
"296 -8 OFFCURVE",
"344 -8 CURVE SMOOTH"
);
},
{
closed = 1;
nodes = (
"168 464 LINE",
"184 544 LINE",
"76 544 LINE",
"60 464 LINE"
);
}
);
width = 588;
},
{
color = 4;
layerId = "FA792B6B-505C-4DC3-9C40-F9BEDA01661E";
paths = (
{
closed = 1;
nodes = (
"576 -8 OFFCURVE",
"692 48 OFFCURVE",
"692 188 CURVE SMOOTH",
"692 244 OFFCURVE",
"673 272 OFFCURVE",
"652 300 CURVE SMOOTH",
"640 316 LINE SMOOTH",
"623 339 OFFCURVE",
"614 352 OFFCURVE",
"614 376 CURVE SMOOTH",
"614 412 OFFCURVE",
"635 436 OFFCURVE",
"656 468 CURVE SMOOTH",
"681 507 OFFCURVE",
"704 548 OFFCURVE",
"704 604 CURVE SMOOTH",
"704 728 OFFCURVE",
"608 776 OFFCURVE",
"472 776 CURVE SMOOTH",
"308 776 OFFCURVE",
"192 724 OFFCURVE",
"156 536 CURVE SMOOTH",
"52 0 LINE",
"264 0 LINE",
"368 536 LINE SMOOTH",
"380 596 OFFCURVE",
"400 624 OFFCURVE",
"448 624 CURVE SMOOTH",
"496 624 OFFCURVE",
"504 596 OFFCURVE",
"504 568 CURVE SMOOTH",
"504 536 OFFCURVE",
"488 502 OFFCURVE",
"468 476 CURVE SMOOTH",
"440 440 OFFCURVE",
"420 404 OFFCURVE",
"420 364 CURVE SMOOTH",
"420 324 OFFCURVE",
"438 294 OFFCURVE",
"458 268 CURVE SMOOTH",
"470 252 LINE SMOOTH",
"480 239 OFFCURVE",
"492 228 OFFCURVE",
"492 200 CURVE SMOOTH",
"492 172 OFFCURVE",
"476 148 OFFCURVE",
"432 148 CURVE SMOOTH",
"404 148 OFFCURVE",
"392 156 OFFCURVE",
"376 164 CURVE",
"364 164 LINE",
"332 8 LINE",
"364 -1 OFFCURVE",
"398 -8 OFFCURVE",
"450 -8 CURVE SMOOTH"
);
},
{
closed = 1;
nodes = (
"168 388 LINE",
"200 548 LINE",
"64 548 LINE",
"32 388 LINE"
);
}
);
width = 732;
}
);
leftKerningGroup = f;
leftMetricsKey = longs;
note = germandbls;
rightKerningGroup = b;
unicode = 00DF;
},
{
glyphname = a.sc;
lastChange = "2020-07-10 12:19:54 +0000";
layers = (
{
anchors = (
{
name = bottom;
position = "{250, 0}";
},
{
name = ogonek;
position = "{464, 0}";
},
{
name = top;
position = "{376, 572}";
}
);
color = 4;
layerId = "5B01CDE3-ACDA-4D2B-9E53-A993574CFD15";
paths = (
{
closed = 1;
nodes = (
"104 0 LINE",
"244 376 LINE SMOOTH",
"274 456 OFFCURVE",
"320 500 OFFCURVE",
"428 500 CURVE SMOOTH",
"452 500 OFFCURVE",
"476 496 OFFCURVE",
"492 492 CURVE",
"480 516 LINE",
"473 500 OFFCURVE",
"467 482 OFFCURVE",
"464 464 CURVE SMOOTH",
"372 0 LINE",
"464 0 LINE",
"552 448 LINE SMOOTH",
"558 480 OFFCURVE",
"568 521 OFFCURVE",
"580 552 CURVE",
"576 564 LINE",
"532 574 OFFCURVE",
"491 580 OFFCURVE",
"448 580 CURVE SMOOTH",
"277 580 OFFCURVE",
"204 517 OFFCURVE",
"152 380 CURVE SMOOTH",
"8 0 LINE"
);
},
{
closed = 1;
nodes = (
"432 168 LINE",
"448 248 LINE",
"160 248 LINE",
"132 168 LINE"
);
}
);
width = 612;
},
{
anchors = (
{
name = bottom;
position = "{278, 0}";
},
{
name = ogonek;
position = "{556, 0}";
},
{
name = top;
position = "{435, 572}";
}
);
color = 4;
layerId = "FA792B6B-505C-4DC3-9C40-F9BEDA01661E";
paths = (
{
closed = 1;
nodes = (
"188 0 LINE",
"324 360 LINE SMOOTH",
"340 401 OFFCURVE",
"364 420 OFFCURVE",
"408 420 CURVE SMOOTH",
"428 420 OFFCURVE",
"440 416 OFFCURVE",
"444 416 CURVE",
"448 448 LINE",
"440 444 OFFCURVE",
"424 402 OFFCURVE",
"416 360 CURVE SMOOTH",
"348 0 LINE",
"556 0 LINE",
"640 444 LINE SMOOTH",
"646 476 OFFCURVE",
"656 512 OFFCURVE",
"668 540 CURVE",
"664 552 LINE",
"615 566 OFFCURVE",
"560 580 OFFCURVE",
"480 580 CURVE SMOOTH",
"332 580 OFFCURVE",
"192 561 OFFCURVE",
"116 364 CURVE SMOOTH",
"-24 0 LINE"
);
},
{
closed = 1;
nodes = (
"408 120 LINE",
"436 272 LINE",
"248 272 LINE",
"204 120 LINE"
);
}
);
width = 668;
}
);
leftKerningGroup = a.sc;
note = a.sc;
},
{
glyphname = b.sc;
lastChange = "2020-07-10 12:19:54 +0000";
layers = (
{
anchors = (
{
name = bottom;
position = "{234, 0}";
},
{
name = top;
position = "{346, 572}";
}
);
color = 4;
layerId = "5B01CDE3-ACDA-4D2B-9E53-A993574CFD15";
paths = (
{
closed = 1;
nodes = (
"300 0 LINE SMOOTH",
"436 0 OFFCURVE",
"504 76 OFFCURVE",
"504 160 CURVE SMOOTH",
"504 212 OFFCURVE",
"472 252 OFFCURVE",
"416 272 CURVE",
"416 248 LINE",
"508 284 OFFCURVE",
"548 360 OFFCURVE",
"548 432 CURVE SMOOTH",
"548 520 OFFCURVE",
"488 572 OFFCURVE",
"364 572 CURVE SMOOTH",
"216 572 LINE",
"200 492 LINE",
"360 492 LINE SMOOTH",
"416 492 OFFCURVE",
"456 476 OFFCURVE",
"456 424 CURVE SMOOTH",
"456 360 OFFCURVE",
"408 292 OFFCURVE",
"320 292 CURVE SMOOTH",
"164 292 LINE",
"148 220 LINE",
"332 220 LINE SMOOTH",
"380 220 OFFCURVE",
"412 200 OFFCURVE",
"412 164 CURVE SMOOTH",
"412 108 OFFCURVE",
"368 80 OFFCURVE",
"308 80 CURVE SMOOTH",
"128 80 LINE",
"108 0 LINE"
);
},
{
closed = 1;
nodes = (
"136 0 LINE",
"248 572 LINE",
"156 572 LINE",
"44 0 LINE"
);
}
);
width = 580;
},
{
anchors = (
{
name = bottom;
position = "{262, 0}";
},
{
name = top;
position = "{374, 572}";
}
);
color = 4;
layerId = "FA792B6B-505C-4DC3-9C40-F9BEDA01661E";
paths = (
{
closed = 1;
nodes = (
"320 0 LINE SMOOTH",
"460 0 OFFCURVE",
"580 52 OFFCURVE",
"580 176 CURVE SMOOTH",
"580 244 OFFCURVE",
"524 284 OFFCURVE",
"428 284 CURVE",
"452 236 LINE",
"544 280 OFFCURVE",
"612 328 OFFCURVE",
"612 424 CURVE SMOOTH",
"612 496 OFFCURVE",
"544 572 OFFCURVE",
"396 572 CURVE SMOOTH",
"260 572 LINE",
"236 424 LINE",
"360 424 LINE SMOOTH",
"380 424 OFFCURVE",
"404 416 OFFCURVE",
"404 388 CURVE SMOOTH",
"404 360 OFFCURVE",
"380 336 OFFCURVE",
"348 336 CURVE SMOOTH",
"224 336 LINE",
"200 204 LINE",
"344 204 LINE SMOOTH",
"364 204 OFFCURVE",
"372 196 OFFCURVE",
"372 180 CURVE SMOOTH",
"372 156 OFFCURVE",
"360 148 OFFCURVE",
"340 148 CURVE SMOOTH",
"188 148 LINE",
"160 0 LINE"
);
},
{
closed = 1;
nodes = (
"224 0 LINE",
"336 572 LINE",
"128 572 LINE",
"16 0 LINE"
);
}
);
width = 636;
}
);
leftKerningGroup = b.sc;
note = b.sc;
rightKerningGroup = b.sc;
},
{
glyphname = c.sc;
lastChange = "2020-07-10 12:19:54 +0000";
layers = (
{
anchors = (
{
name = bottom;
position = "{310, 0}";
},
{
name = top;
position = "{347, 572}";
}
);
color = 4;
layerId = "5B01CDE3-ACDA-4D2B-9E53-A993574CFD15";
paths = (
{
closed = 1;
nodes = (
"56 92 OFFCURVE",
"149 -12 OFFCURVE",
"328 -12 CURVE SMOOTH",
"380 -12 OFFCURVE",
"424 0 OFFCURVE",
"460 16 CURVE",
"480 100 LINE",
"472 100 LINE",
"436 80 OFFCURVE",
"388 68 OFFCURVE",
"348 68 CURVE SMOOTH",
"220 68 OFFCURVE",
"152 124 OFFCURVE",
"152 248 CURVE SMOOTH",
"152 392 OFFCURVE",
"244 504 OFFCURVE",
"396 504 CURVE SMOOTH",
"472 504 OFFCURVE",
"508 488 OFFCURVE",
"540 472 CURVE",
"548 472 LINE",
"566 552 LINE",
"524 572 OFFCURVE",
"468 584 OFFCURVE",
"412 584 CURVE SMOOTH",
"172 584 OFFCURVE",
"56 424 OFFCURVE",
"56 244 CURVE SMOOTH"
);
}
);
width = 552;
},
{
anchors = (
{
name = bottom;
position = "{290, 0}";
},
{
name = top;
position = "{402, 572}";
}
);
color = 4;
layerId = "FA792B6B-505C-4DC3-9C40-F9BEDA01661E";
paths = (
{
closed = 1;
nodes = (
"32 88 OFFCURVE",
"148 -12 OFFCURVE",
"368 -12 CURVE SMOOTH",
"420 -12 OFFCURVE",
"464 0 OFFCURVE",
"488 8 CURVE",
"516 164 LINE",
"504 164 LINE",
"484 156 OFFCURVE",
"440 148 OFFCURVE",
"396 148 CURVE SMOOTH",
"284 148 OFFCURVE",
"248 200 OFFCURVE",
"248 264 CURVE SMOOTH",
"248 356 OFFCURVE",
"308 420 OFFCURVE",
"440 420 CURVE SMOOTH",
"492 420 OFFCURVE",
"533 409 OFFCURVE",
"552 400 CURVE",
"564 400 LINE",
"592 560 LINE",
"572 568 OFFCURVE",
"516 580 OFFCURVE",
"436 580 CURVE SMOOTH",
"192 580 OFFCURVE",
"32 456 OFFCURVE",
"32 252 CURVE SMOOTH"
);
}
);
width = 580;
}
);
leftKerningGroup = c.sc;
note = c.sc;
rightKerningGroup = c.sc;
},
{
glyphname = d.sc;
lastChange = "2020-07-10 12:19:54 +0000";
layers = (
{
anchors = (
{
name = bottom;
position = "{266, 0}";
},
{
name = center;
position = "{162, 290}";
},
{
name = top;
position = "{378, 572}";
}
);
color = 4;
layerId = "5B01CDE3-ACDA-4D2B-9E53-A993574CFD15";
paths = (
{
closed = 1;
nodes = (
"252 0 LINE SMOOTH",
"492 0 OFFCURVE",
"604 192 OFFCURVE",
"604 356 CURVE SMOOTH",
"604 488 OFFCURVE",
"508 572 OFFCURVE",
"348 572 CURVE SMOOTH",
"220 572 LINE",
"204 492 LINE",
"348 492 LINE SMOOTH",
"452 492 OFFCURVE",
"508 448 OFFCURVE",
"508 356 CURVE SMOOTH",
"508 248 OFFCURVE",
"440 80 OFFCURVE",
"252 80 CURVE SMOOTH",
"120 80 LINE",
"104 0 LINE"
);
},
{
closed = 1;
nodes = (
"136 0 LINE",
"248 572 LINE",
"156 572 LINE",
"44 0 LINE"
);
}
);
width = 644;
},
{
anchors = (
{
name = bottom;
position = "{292, 0}";
},
{
name = center;
position = "{176, 286}";
},
{
name = top;
position = "{404, 572}";
}
);
color = 4;
layerId = "FA792B6B-505C-4DC3-9C40-F9BEDA01661E";
paths = (
{
closed = 1;
nodes = (
"292 0 LINE SMOOTH",
"556 0 OFFCURVE",
"676 164 OFFCURVE",
"676 336 CURVE SMOOTH",
"676 496 OFFCURVE",
"560 572 OFFCURVE",
"360 572 CURVE SMOOTH",
"240 572 LINE",
"204 412 LINE",
"336 412 LINE SMOOTH",
"432 412 OFFCURVE",
"460 380 OFFCURVE",
"460 324 CURVE SMOOTH",
"460 212 OFFCURVE",
"392 160 OFFCURVE",
"300 160 CURVE SMOOTH",
"180 160 LINE",
"148 0 LINE"
);
},
{
closed = 1;
nodes = (
"224 0 LINE",
"336 572 LINE",
"128 572 LINE",
"16 0 LINE"
);
}
);
width = 696;
}
);
leftKerningGroup = b.sc;
note = d.sc;
rightKerningGroup = d.sc;
},
{
glyphname = e.sc;
lastChange = "2020-07-10 12:19:54 +0000";
layers = (
{
anchors = (
{
name = bottom;
position = "{244, 0}";
},
{
name = ogonek;
position = "{448, 0}";
},
{
name = top;
position = "{332, 572}";
},
{
name = topleft;
position = "{76, 572}";
}
);
color = 4;
layerId = "5B01CDE3-ACDA-4D2B-9E53-A993574CFD15";
paths = (
{
closed = 1;
nodes = (
"136 0 LINE",
"248 572 LINE",
"156 572 LINE",
"44 0 LINE"
);
},
{
closed = 1;
nodes = (
"448 0 LINE",
"464 80 LINE",
"112 80 LINE",
"92 0 LINE"
);
},
{
closed = 1;
nodes = (
"440 260 LINE",
"456 336 LINE",
"164 336 LINE",
"148 260 LINE"
);
},
{
closed = 1;
nodes = (
"536 492 LINE",
"552 572 LINE",
"208 572 LINE",
"192 492 LINE"
);
}
);
width = 552;
},
{
anchors = (
{
name = bottom;
position = "{224, 0}";
},
{
name = ogonek;
position = "{444, 0}";
},
{
name = top;
position = "{326, 572}";
},
{
name = topleft;
position = "{76, 572}";
}
);
color = 4;
layerId = "FA792B6B-505C-4DC3-9C40-F9BEDA01661E";
paths = (
{
closed = 1;
nodes = (
"224 0 LINE",
"332 572 LINE",
"124 572 LINE",
"16 0 LINE"
);
},
{
closed = 1;
nodes = (
"444 0 LINE",
"476 160 LINE",
"172 160 LINE",
"140 0 LINE"
);
},
{
closed = 1;
nodes = (
"440 208 LINE",
"468 356 LINE",
"208 356 LINE",
"180 208 LINE"
);
},
{
closed = 1;
nodes = (
"520 412 LINE",
"552 572 LINE",
"248 572 LINE",
"216 412 LINE"
);
}
);
width = 540;
}
);
leftKerningGroup = b.sc;
note = e.sc;
rightKerningGroup = e.sc;
},
{
glyphname = f.sc;
lastChange = "2020-07-10 12:19:54 +0000";
layers = (
{
anchors = (
{
name = bottom;
position = "{204, 0}";
},
{
name = top;
position = "{316, 572}";
}
);
color = 4;
layerId = "5B01CDE3-ACDA-4D2B-9E53-A993574CFD15";
paths = (
{
closed = 1;
nodes = (
"140 216 LINE",
"420 216 LINE",
"436 292 LINE",
"156 292 LINE"
);
},
{
closed = 1;
nodes = (
"188 492 LINE",
"520 492 LINE",
"536 572 LINE",
"204 572 LINE"
);
},
{
closed = 1;
nodes = (
"248 572 LINE",
"156 572 LINE",
"44 0 LINE",
"136 0 LINE"
);
}
);
width = 520;
},
{
anchors = (
{
name = bottom;
position = "{206, 0}";
},
{
name = top;
position = "{318, 572}";
}
);
color = 4;
layerId = "FA792B6B-505C-4DC3-9C40-F9BEDA01661E";
paths = (
{
closed = 1;
nodes = (
"176 164 LINE",
"432 164 LINE",
"460 312 LINE",
"204 312 LINE"
);
},
{
closed = 1;
nodes = (
"216 412 LINE",
"520 412 LINE",
"552 572 LINE",
"248 572 LINE"
);
},
{
closed = 1;
nodes = (
"332 572 LINE",
"124 572 LINE",
"16 0 LINE",
"224 0 LINE"
);
}
);
width = 524;
}
);
leftKerningGroup = b.sc;
note = f.sc;
rightKerningGroup = f.sc;
},
{
glyphname = g.sc;
lastChange = "2020-07-10 12:19:54 +0000";
layers = (
{
anchors = (
{
name = bottom;
position = "{248, 0}";
},
{
name = top;
position = "{360, 572}";
}
);
color = 4;
layerId = "5B01CDE3-ACDA-4D2B-9E53-A993574CFD15";
paths = (
{
closed = 1;
nodes = (
"380 -12 OFFCURVE",
"440 0 OFFCURVE",
"484 20 CURVE",
"536 288 LINE",
"448 288 LINE",
"400 48 LINE",
"440 92 LINE",
"404 76 OFFCURVE",
"372 68 OFFCURVE",
"328 68 CURVE SMOOTH",
"212 68 OFFCURVE",
"148 124 OFFCURVE",
"148 236 CURVE SMOOTH",
"148 380 OFFCURVE",
"236 504 OFFCURVE",
"408 504 CURVE SMOOTH",
"468 504 OFFCURVE",
"516 492 OFFCURVE",
"552 476 CURVE",
"560 476 LINE",
"576 560 LINE",
"540 576 OFFCURVE",
"472 584 OFFCURVE",
"416 584 CURVE SMOOTH",
"172 584 OFFCURVE",
"52 420 OFFCURVE",
"52 236 CURVE SMOOTH",
"52 84 OFFCURVE",
"144 -12 OFFCURVE",
"324 -12 CURVE SMOOTH"
);
}
);
width = 607;
},
{
anchors = (
{
name = bottom;
position = "{268, 0}";
},
{
name = top;
position = "{380, 572}";
}
);
color = 4;
layerId = "FA792B6B-505C-4DC3-9C40-F9BEDA01661E";
paths = (
{
closed = 1;
nodes = (
"420 -12 OFFCURVE",
"500 0 OFFCURVE",
"544 16 CURVE",
"600 296 LINE",
"408 296 LINE",
"360 60 LINE",
"424 168 LINE",
"400 152 OFFCURVE",
"376 144 OFFCURVE",
"356 144 CURVE SMOOTH",
"272 144 OFFCURVE",
"248 204 OFFCURVE",
"248 260 CURVE SMOOTH",
"248 360 OFFCURVE",
"312 424 OFFCURVE",
"452 424 CURVE SMOOTH",
"512 424 OFFCURVE",
"556 412 OFFCURVE",
"580 400 CURVE",
"592 400 LINE",
"624 564 LINE",
"580 576 OFFCURVE",
"508 584 OFFCURVE",
"444 584 CURVE SMOOTH",
"188 584 OFFCURVE",
"32 448 OFFCURVE",
"32 252 CURVE SMOOTH",
"32 84 OFFCURVE",
"144 -12 OFFCURVE",
"372 -12 CURVE SMOOTH"
);
}
);
width = 647;
}
);
leftKerningGroup = c.sc;
note = g.sc;
rightKerningGroup = g.sc;
},
{
glyphname = h.sc;
lastChange = "2020-07-10 12:19:54 +0000";
layers = (
{
anchors = (
{
name = bottom;
position = "{276, 0}";
},
{
name = center;
position = "{372, 456}";
},
{
name = top;
position = "{398, 572}";
},
{
name = topleft;
position = "{84, 572}";
}
);
color = 4;
layerId = "5B01CDE3-ACDA-4D2B-9E53-A993574CFD15";
paths = (
{
closed = 1;
nodes = (
"520 0 LINE",
"632 572 LINE",
"540 572 LINE",
"428 0 LINE"
);
},
{
closed = 1;
nodes = (
"136 0 LINE",
"248 572 LINE",
"156 572 LINE",
"44 0 LINE"
);
},
{
closed = 1;
nodes = (
"516 256 LINE",
"532 336 LINE",
"168 336 LINE",
"152 256 LINE"
);
}
);
width = 668;
},
{
anchors = (
{
name = bottom;
position = "{294, 0}";
},
{
name = center;
position = "{392, 470}";
},
{
name = top;
position = "{415, 572}";
},
{
name = topleft;
position = "{83, 572}";
}
);
color = 4;
layerId = "FA792B6B-505C-4DC3-9C40-F9BEDA01661E";
paths = (
{
closed = 1;
nodes = (
"592 0 LINE",
"700 572 LINE",
"492 572 LINE",
"384 0 LINE"
);
},
{
closed = 1;
nodes = (
"224 0 LINE",
"332 572 LINE",
"124 572 LINE",
"16 0 LINE"
);
},
{
closed = 1;
nodes = (
"480 196 LINE",
"512 364 LINE",
"224 364 LINE",
"192 196 LINE"
);
}
);
width = 704;
}
);
leftKerningGroup = b.sc;
note = h.sc;
},
{
glyphname = i.sc;
lastChange = "2020-07-10 12:19:54 +0000";
layers = (
{
anchors = (
{
name = bottom;
position = "{86, 0}";
},
{
name = ogonek;
position = "{136, 0}";
},
{
name = top;
position = "{198, 572}";
}
);
color = 4;
layerId = "5B01CDE3-ACDA-4D2B-9E53-A993574CFD15";
paths = (
{
closed = 1;
nodes = (
"44 0 LINE",
"136 0 LINE",
"248 572 LINE",
"156 572 LINE"
);
}
);
width = 284;
},
{
anchors = (
{
name = bottom;
position = "{112, 0}";
},
{
name = ogonek;
position = "{224, 0}";
},
{
name = top;
position = "{224, 572}";
}
);
color = 4;
layerId = "FA792B6B-505C-4DC3-9C40-F9BEDA01661E";
paths = (
{
closed = 1;
nodes = (
"16 0 LINE",
"224 0 LINE",
"332 572 LINE",
"124 572 LINE"
);
}
);
width = 336;
}
);
leftKerningGroup = b.sc;
note = i.sc;
},
{
glyphname = j.sc;
lastChange = "2020-07-10 12:19:54 +0000";
layers = (
{
anchors = (
{
name = bottom;
position = "{146, 0}";
},
{
name = top;
position = "{330, 572}";
}
);
color = 4;
layerId = "5B01CDE3-ACDA-4D2B-9E53-A993574CFD15";
paths = (
{
closed = 1;
nodes = (
"192 -12 OFFCURVE",
"272 36 OFFCURVE",
"296 160 CURVE SMOOTH",
"376 572 LINE",
"284 572 LINE",
"204 164 LINE SMOOTH",
"192 104 OFFCURVE",
"156 68 OFFCURVE",
"76 68 CURVE SMOOTH",
"48 68 OFFCURVE",
"20 72 OFFCURVE",
"4 80 CURVE",
"-4 80 LINE",
"-20 4 LINE",
"1 -2 OFFCURVE",
"36 -12 OFFCURVE",
"76 -12 CURVE SMOOTH"
);
}
);
width = 404;
},
{
anchors = (
{
name = bottom;
position = "{164, 0}";
},
{
name = top;
position = "{340, 572}";
}
);
color = 4;
layerId = "FA792B6B-505C-4DC3-9C40-F9BEDA01661E";
paths = (
{
closed = 1;
nodes = (
"260 -12 OFFCURVE",
"348 64 OFFCURVE",
"376 212 CURVE SMOOTH",
"444 572 LINE",
"236 572 LINE",
"172 224 LINE SMOOTH",
"162 172 OFFCURVE",
"136 144 OFFCURVE",
"76 144 CURVE SMOOTH",
"54 144 OFFCURVE",
"34 148 OFFCURVE",
"20 156 CURVE",
"8 156 LINE",
"-24 0 LINE",
"-2 -6 OFFCURVE",
"56 -12 OFFCURVE",
"88 -12 CURVE SMOOTH"
);
}
);
width = 440;
}
);
leftKerningGroup = j.sc;
note = j.sc;
rightKerningGroup = j.sc;
},
{
glyphname = k.sc;
lastChange = "2020-07-10 12:19:54 +0000";
layers = (
{
anchors = (
{
name = bottom;
position = "{238, 0}";
},
{
name = top;
position = "{350, 572}";
}
);
color = 4;
layerId = "5B01CDE3-ACDA-4D2B-9E53-A993574CFD15";
paths = (
{
closed = 1;
nodes = (
"248 216 LINE SMOOTH",
"328 216 OFFCURVE",
"396 256 OFFCURVE",
"452 336 CURVE SMOOTH",
"612 564 LINE",
"612 572 LINE",
"516 572 LINE",
"372 360 LINE SMOOTH",
"345 321 OFFCURVE",
"312 296 OFFCURVE",
"252 296 CURVE SMOOTH",
"148 296 LINE",
"132 216 LINE"
);
},
{
closed = 1;
nodes = (
"136 0 LINE",
"248 572 LINE",
"156 572 LINE",
"44 0 LINE"
);
},
{
closed = 1;
nodes = (
"500 0 LINE",
"500 8 LINE",
"356 296 LINE",
"280 260 LINE",
"400 0 LINE"
);
}
);
width = 588;
},
{
anchors = (
{
name = bottom;
position = "{270, 0}";
},
{
name = top;
position = "{382, 572}";
}
);
color = 4;
layerId = "FA792B6B-505C-4DC3-9C40-F9BEDA01661E";
paths = (
{
closed = 1;
nodes = (
"312 172 LINE",
"416 172 OFFCURVE",
"525 244 OFFCURVE",
"576 348 CURVE SMOOTH",
"680 560 LINE",
"680 572 LINE",
"476 572 LINE",
"400 400 LINE SMOOTH",
"384 364 OFFCURVE",
"352 336 OFFCURVE",
"296 336 CURVE SMOOTH",
"188 336 LINE",
"156 172 LINE"
);
},
{
closed = 1;
nodes = (
"224 0 LINE",
"336 572 LINE",
"128 572 LINE",
"16 0 LINE"
);
},
{
closed = 1;
nodes = (
"584 0 LINE",
"584 8 LINE",
"444 296 LINE",
"280 208 LINE",
"368 0 LINE"
);
}
);
width = 652;
}
);
leftKerningGroup = b.sc;
note = k.sc;
rightKerningGroup = k.sc;
},
{
glyphname = l.sc;
lastChange = "2020-07-10 12:19:54 +0000";
layers = (
{
anchors = (
{
name = bottom;
position = "{242, 0}";
},
{
name = center;
position = "{186, 318}";
},
{
name = periodCAT;
position = "{333, 312}";
},
{
name = top;
position = "{242, 572}";
},
{
name = topright;
position = "{356, 368}";
}
);
color = 4;
layerId = "5B01CDE3-ACDA-4D2B-9E53-A993574CFD15";
paths = (
{
closed = 1;
nodes = (
"96 0 LINE",
"396 0 LINE",
"412 80 LINE",
"116 80 LINE"
);
},
{
closed = 1;
nodes = (
"248 572 LINE",
"156 572 LINE",
"44 0 LINE",
"136 0 LINE"
);
}
);
width = 484;
},
{
anchors = (
{
name = bottom;
position = "{256, 0}";
},
{
name = center;
position = "{202, 324}";
},
{
name = periodCAT;
position = "{411, 360}";
},
{
name = top;
position = "{256, 572}";
},
{
name = topright;
position = "{428, 372}";
}
);
color = 4;
layerId = "FA792B6B-505C-4DC3-9C40-F9BEDA01661E";
paths = (
{
closed = 1;
nodes = (
"148 0 LINE",
"428 0 LINE",
"460 160 LINE",
"180 160 LINE"
);
},
{
closed = 1;
nodes = (
"332 572 LINE",
"124 572 LINE",
"16 0 LINE",
"224 0 LINE"
);
}
);
width = 512;
}
);
leftKerningGroup = b.sc;
note = l.sc;
rightKerningGroup = l.sc;
},
{
glyphname = m.sc;
lastChange = "2020-07-10 12:19:54 +0000";
layers = (
{
anchors = (
{
name = bottom;
position = "{316, 0}";
},
{
name = top;
position = "{428, 572}";
}
);
color = 4;
layerId = "5B01CDE3-ACDA-4D2B-9E53-A993574CFD15";
paths = (
{
closed = 1;
nodes = (
"44 0 LINE",
"136 0 LINE",
"224 444 LINE",
"208 420 LINE",
"324 180 LINE",
"392 180 LINE",
"600 416 LINE",
"588 432 LINE",
"504 0 LINE",
"596 0 LINE",
"708 572 LINE",
"632 572 LINE",
"352 256 LINE",
"388 252 LINE",
"232 572 LINE",
"156 572 LINE"
);
}
);
width = 744;
},
{
anchors = (
{
name = bottom;
position = "{348, 0}";
},
{
name = top;
position = "{460, 572}";
}
);
color = 4;
layerId = "FA792B6B-505C-4DC3-9C40-F9BEDA01661E";
paths = (
{
closed = 1;
nodes = (
"16 0 LINE",
"224 0 LINE",
"284 304 LINE",
"232 296 LINE",
"324 72 LINE",
"416 72 LINE",
"576 272 LINE",
"540 276 LINE",
"484 0 LINE",
"692 0 LINE",
"804 572 LINE",
"624 572 LINE",
"352 236 LINE",
"432 236 LINE",
"300 572 LINE",
"128 572 LINE"
);
}
);
width = 808;
}
);
note = m.sc;
},
{
glyphname = n.sc;
lastChange = "2020-07-10 12:19:54 +0000";
layers = (
{
anchors = (
{
name = bottom;
position = "{278, 0}";
},
{
name = top;
position = "{390, 572}";
}
);
color = 4;
layerId = "5B01CDE3-ACDA-4D2B-9E53-A993574CFD15";
paths = (
{
closed = 1;
nodes = (
"428 0 LINE",
"520 0 LINE",
"632 572 LINE",
"540 572 LINE"
);
},
{
closed = 1;
nodes = (
"504 232 LINE",
"228 572 LINE",
"156 572 LINE",
"44 0 LINE",
"136 0 LINE",
"228 468 LINE",
"200 464 LINE",
"480 120 LINE"
);
}
);
width = 668;
},
{
anchors = (
{
name = bottom;
position = "{304, 0}";
},
{
name = top;
position = "{416, 572}";
}
);
color = 4;
layerId = "FA792B6B-505C-4DC3-9C40-F9BEDA01661E";
paths = (
{
closed = 1;
nodes = (
"396 0 LINE",
"604 0 LINE",
"716 572 LINE",
"508 572 LINE"
);
},
{
closed = 1;
nodes = (
"520 308 LINE",
"292 572 LINE",
"128 572 LINE",
"16 0 LINE",
"224 0 LINE",
"300 388 LINE",
"224 368 LINE",
"460 92 LINE"
);
}
);
width = 720;
}
);
leftKerningGroup = b.sc;
note = n.sc;
},
{
glyphname = o.sc;
lastChange = "2020-07-10 12:19:54 +0000";
layers = (
{
anchors = (
{
name = bottom;
position = "{288, 0}";
},
{
name = center;
position = "{344, 286}";
},
{
name = ogonek;
position = "{406, 0}";
},
{
name = top;
position = "{400, 572}";
},
{
name = topleft;
position = "{76, 572}";
},
{
name = topright;
position = "{479, 572}";
}
);
color = 4;
layerId = "5B01CDE3-ACDA-4D2B-9E53-A993574CFD15";
paths = (
{
closed = 1;
nodes = (
"540 -12 OFFCURVE",
"644 176 OFFCURVE",
"644 344 CURVE SMOOTH",
"644 488 OFFCURVE",
"552 584 OFFCURVE",
"388 584 CURVE SMOOTH",
"160 584 OFFCURVE",
"56 396 OFFCURVE",
"56 228 CURVE SMOOTH",
"56 84 OFFCURVE",
"148 -12 OFFCURVE",
"312 -12 CURVE SMOOTH"
);
},
{
closed = 1;
nodes = (
"216 68 OFFCURVE",
"152 120 OFFCURVE",
"152 228 CURVE SMOOTH",
"152 352 OFFCURVE",
"220 504 OFFCURVE",
"384 504 CURVE SMOOTH",
"484 504 OFFCURVE",
"548 452 OFFCURVE",
"548 344 CURVE SMOOTH",
"548 220 OFFCURVE",
"480 68 OFFCURVE",
"316 68 CURVE SMOOTH"
);
}
);
width = 688;
},
{
anchors = (
{
name = bottom;
position = "{312, 0}";
},
{
name = center;
position = "{368, 286}";
},
{
name = ogonek;
position = "{450, 0}";
},
{
name = top;
position = "{424, 572}";
},
{
name = topleft;
position = "{76, 572}";
},
{
name = topright;
position = "{516, 572}";
}
);
color = 4;
layerId = "FA792B6B-505C-4DC3-9C40-F9BEDA01661E";
paths = (
{
closed = 1;
nodes = (
"572 -12 OFFCURVE",
"716 132 OFFCURVE",
"716 324 CURVE SMOOTH",
"716 476 OFFCURVE",
"612 584 OFFCURVE",
"408 584 CURVE SMOOTH",
"176 584 OFFCURVE",
"32 440 OFFCURVE",
"32 248 CURVE SMOOTH",
"32 96 OFFCURVE",
"136 -12 OFFCURVE",
"340 -12 CURVE SMOOTH"
);
},
{
closed = 1;
nodes = (
"284 148 OFFCURVE",
"244 188 OFFCURVE",
"244 252 CURVE SMOOTH",
"244 324 OFFCURVE",
"292 424 OFFCURVE",
"396 424 CURVE SMOOTH",
"464 424 OFFCURVE",
"504 384 OFFCURVE",
"504 320 CURVE SMOOTH",
"504 248 OFFCURVE",
"456 148 OFFCURVE",
"352 148 CURVE SMOOTH"
);
}
);
width = 736;
}
);
leftKerningGroup = c.sc;
note = o.sc;
rightKerningGroup = d.sc;
},
{
glyphname = p.sc;
lastChange = "2020-07-10 12:19:54 +0000";
layers = (
{
anchors = (
{
name = bottom;
position = "{228, 0}";
},
{
name = top;
position = "{340, 572}";
}
);
color = 4;
layerId = "5B01CDE3-ACDA-4D2B-9E53-A993574CFD15";
paths = (
{
closed = 1;
nodes = (
"188 492 LINE",
"360 492 LINE SMOOTH",
"416 492 OFFCURVE",
"460 468 OFFCURVE",
"460 412 CURVE SMOOTH",
"460 328 OFFCURVE",
"396 256 OFFCURVE",
"288 256 CURVE SMOOTH",
"140 256 LINE",
"124 180 LINE",
"292 180 LINE SMOOTH",
"460 180 OFFCURVE",
"552 292 OFFCURVE",
"552 412 CURVE SMOOTH",
"552 516 OFFCURVE",
"476 572 OFFCURVE",
"364 572 CURVE SMOOTH",
"204 572 LINE"
);
},
{
closed = 1;
nodes = (
"156 572 LINE",
"44 0 LINE",
"136 0 LINE",
"248 572 LINE"
);
}
);
width = 568;
},
{
anchors = (
{
name = bottom;
position = "{265, 0}";
},
{
name = top;
position = "{377, 572}";
}
);
color = 4;
layerId = "FA792B6B-505C-4DC3-9C40-F9BEDA01661E";
paths = (
{
closed = 1;
nodes = (
"224 412 LINE",
"356 412 LINE SMOOTH",
"396 412 OFFCURVE",
"428 392 OFFCURVE",
"428 352 CURVE SMOOTH",
"428 308 OFFCURVE",
"396 260 OFFCURVE",
"320 260 CURVE SMOOTH",
"208 260 LINE",
"176 108 LINE",
"320 108 LINE SMOOTH",
"500 108 OFFCURVE",
"640 220 OFFCURVE",
"640 368 CURVE SMOOTH",
"640 508 OFFCURVE",
"540 572 OFFCURVE",
"372 572 CURVE SMOOTH",
"256 572 LINE"
);
},
{
closed = 1;
nodes = (
"128 572 LINE",
"16 0 LINE",
"224 0 LINE",
"336 572 LINE"
);
}
);
width = 641;
}
);
leftKerningGroup = b.sc;
note = p.sc;
rightKerningGroup = p.sc;
},
{
glyphname = q.sc;
lastChange = "2020-07-10 12:19:54 +0000";
layers = (
{
anchors = (
{
name = bottom;
position = "{288, 0}";
},
{
name = top;
position = "{400, 572}";
}
);
color = 4;
components = (
{
name = o.sc;
}
);
layerId = "5B01CDE3-ACDA-4D2B-9E53-A993574CFD15";
paths = (
{
closed = 1;
nodes = (
"288 48 LINE",
"468 -128 LINE",
"592 -128 LINE",
"592 -120 LINE",
"424 36 LINE"
);
}
);
width = 688;
},
{
anchors = (
{
name = bottom;
position = "{312, 0}";
},
{
name = top;
position = "{424, 572}";
}
);
color = 4;
components = (
{
name = o.sc;
}
);
layerId = "FA792B6B-505C-4DC3-9C40-F9BEDA01661E";
paths = (
{
closed = 1;
nodes = (
"248 28 LINE",
"392 -128 LINE",
"624 -128 LINE",
"624 -116 LINE",
"460 64 LINE"
);
}
);
width = 736;
}
);
leftKerningGroup = c.sc;
note = q.sc;
rightKerningGroup = d.sc;
},
{
glyphname = r.sc;
lastChange = "2020-07-10 12:19:54 +0000";
layers = (
{
anchors = (
{
name = bottom;
position = "{246, 0}";
},
{
name = top;
position = "{358, 572}";
}
);
color = 4;
layerId = "5B01CDE3-ACDA-4D2B-9E53-A993574CFD15";
paths = (
{
closed = 1;
nodes = (
"276 208 LINE",
"408 0 LINE",
"512 0 LINE",
"512 8 LINE",
"388 196 LINE"
);
},
{
closed = 1;
nodes = (
"428 164 OFFCURVE",
"556 264 OFFCURVE",
"556 408 CURVE SMOOTH",
"556 512 OFFCURVE",
"496 572 OFFCURVE",
"364 572 CURVE SMOOTH",
"156 572 LINE",
"44 0 LINE",
"136 0 LINE",
"232 492 LINE",
"360 492 LINE SMOOTH",
"424 492 OFFCURVE",
"464 468 OFFCURVE",
"464 408 CURVE SMOOTH",
"464 324 OFFCURVE",
"396 244 OFFCURVE",
"292 244 CURVE SMOOTH",
"148 244 LINE",
"132 164 LINE",
"304 164 LINE"
);
}
);
width = 604;
},
{
anchors = (
{
name = bottom;
position = "{280, 0}";
},
{
name = top;
position = "{392, 572}";
}
);
color = 4;
layerId = "FA792B6B-505C-4DC3-9C40-F9BEDA01661E";
paths = (
{
closed = 1;
nodes = (
"284 156 LINE",
"356 0 LINE",
"576 0 LINE",
"576 8 LINE",
"468 192 LINE"
);
},
{
closed = 1;
nodes = (
"468 108 OFFCURVE",
"648 212 OFFCURVE",
"648 372 CURVE SMOOTH",
"648 504 OFFCURVE",
"552 572 OFFCURVE",
"384 572 CURVE SMOOTH",
"128 572 LINE",
"16 0 LINE",
"224 0 LINE",
"304 412 LINE",
"364 412 LINE SMOOTH",
"408 412 OFFCURVE",
"436 400 OFFCURVE",
"436 360 CURVE SMOOTH",
"436 316 OFFCURVE",
"404 256 OFFCURVE",
"320 256 CURVE SMOOTH",
"200 256 LINE",
"168 108 LINE",
"324 108 LINE"
);
}
);
width = 672;
}
);
leftKerningGroup = b.sc;
note = r.sc;
rightKerningGroup = r.sc;
},
{
glyphname = s.sc;
lastChange = "2020-07-10 12:19:54 +0000";
layers = (
{
anchors = (
{
name = bottom;
position = "{216, 0}";
},
{
name = top;
position = "{328, 572}";
}
);
color = 4;
guideLines = (
{
angle = -12.9946;
position = "{302, 302}";
}
);
layerId = "5B01CDE3-ACDA-4D2B-9E53-A993574CFD15";
paths = (
{
closed = 1;
nodes = (
"28 24 LINE",
"80 4 OFFCURVE",
"144 -12 OFFCURVE",
"220 -12 CURVE SMOOTH",
"376 -12 OFFCURVE",
"468 44 OFFCURVE",
"468 156 CURVE SMOOTH",
"468 240 OFFCURVE",
"402 279 OFFCURVE",
"328 296 CURVE SMOOTH",
"276 308 LINE SMOOTH",
"220 321 OFFCURVE",
"184 344 OFFCURVE",
"184 392 CURVE SMOOTH",
"184 476 OFFCURVE",
"264 504 OFFCURVE",
"356 504 CURVE SMOOTH",
"424 504 OFFCURVE",
"472 488 OFFCURVE",
"500 476 CURVE",
"508 476 LINE",
"526 556 LINE",
"492 572 OFFCURVE",
"432 584 OFFCURVE",
"360 584 CURVE SMOOTH",
"204 584 OFFCURVE",
"92 516 OFFCURVE",
"92 388 CURVE SMOOTH",
"92 292 OFFCURVE",
"158 250 OFFCURVE",
"236 232 CURVE SMOOTH",
"288 220 LINE SMOOTH",
"340 208 OFFCURVE",
"376 196 OFFCURVE",
"376 148 CURVE SMOOTH",
"376 92 OFFCURVE",
"312 68 OFFCURVE",
"224 68 CURVE SMOOTH",
"148 68 OFFCURVE",
"92 88 OFFCURVE",
"52 108 CURVE",
"44 108 LINE"
);
}
);
width = 544;
},
{
anchors = (
{
name = bottom;
position = "{238, 0}";
},
{
name = top;
position = "{350, 572}";
}
);
color = 4;
layerId = "FA792B6B-505C-4DC3-9C40-F9BEDA01661E";
paths = (
{
closed = 1;
nodes = (
"4 28 LINE",
"64 4 OFFCURVE",
"156 -12 OFFCURVE",
"240 -12 CURVE SMOOTH",
"400 -12 OFFCURVE",
"552 36 OFFCURVE",
"552 184 CURVE SMOOTH",
"552 288 OFFCURVE",
"459 324 OFFCURVE",
"362 336 CURVE SMOOTH",
"330 340 LINE SMOOTH",
"275 347 OFFCURVE",
"256 360 OFFCURVE",
"256 384 CURVE SMOOTH",
"256 412 OFFCURVE",
"288 428 OFFCURVE",
"364 428 CURVE SMOOTH",
"440 428 OFFCURVE",
"500 416 OFFCURVE",
"542 396 CURVE",
"554 396 LINE",
"584 552 LINE",
"540 568 OFFCURVE",
"448 580 OFFCURVE",
"376 580 CURVE SMOOTH",
"124 580 OFFCURVE",
"52 492 OFFCURVE",
"52 360 CURVE SMOOTH",
"52 272 OFFCURVE",
"120 211 OFFCURVE",
"254 192 CURVE SMOOTH",
"282 188 LINE SMOOTH",
"329 182 OFFCURVE",
"344 180 OFFCURVE",
"344 164 CURVE SMOOTH",
"344 144 OFFCURVE",
"312 140 OFFCURVE",
"260 140 CURVE SMOOTH",
"176 140 OFFCURVE",
"88 160 OFFCURVE",
"44 188 CURVE",
"36 188 LINE"
);
}
);
width = 588;
}
);
leftKerningGroup = s.sc;
note = s.sc;
rightKerningGroup = s.sc;
},
{
glyphname = t.sc;
lastChange = "2020-07-10 12:19:54 +0000";
layers = (
{
anchors = (
{
name = bottom;
position = "{202, 0}";
},
{
name = center;
position = "{258, 286}";
},
{
name = top;
position = "{314, 572}";
}
);
color = 4;
layerId = "5B01CDE3-ACDA-4D2B-9E53-A993574CFD15";
paths = (
{
closed = 1;
nodes = (
"252 0 LINE",
"364 572 LINE",
"272 572 LINE",
"160 0 LINE"
);
},
{
closed = 1;
nodes = (
"544 492 LINE",
"560 572 LINE",
"76 572 LINE",
"60 492 LINE"
);
}
);
width = 516;
},
{
anchors = (
{
name = bottom;
position = "{240, 0}";
},
{
name = center;
position = "{296, 286}";
},
{
name = top;
position = "{352, 572}";
}
);
color = 4;
layerId = "FA792B6B-505C-4DC3-9C40-F9BEDA01661E";
paths = (
{
closed = 1;
nodes = (
"352 0 LINE",
"460 572 LINE",
"252 572 LINE",
"144 0 LINE"
);
},
{
closed = 1;
nodes = (
"596 412 LINE",
"628 572 LINE",
"88 572 LINE",
"56 412 LINE"
);
}
);
width = 592;
}
);
leftKerningGroup = t.sc;
note = t.sc;
rightKerningGroup = t.sc;
},
{
glyphname = u.sc;
lastChange = "2020-07-10 12:19:54 +0000";
layers = (
{
anchors = (
{
name = bottom;
position = "{260, 0}";
},
{
name = ogonek;
position = "{371, 0}";
},
{
name = top;
position = "{372, 572}";
},
{
name = topright;
position = "{592, 572}";
}
);
color = 4;
guideLines = (
{
angle = 78.4399;
position = "{112, 396}";
},
{
angle = 258.4399;
position = "{204, 396}";
},
{
angle = 78.4399;
position = "{484, 396}";
},
{
angle = 78.5663;
position = "{576, 394}";
}
);
layerId = "5B01CDE3-ACDA-4D2B-9E53-A993574CFD15";
paths = (
{
closed = 1;
nodes = (
"444 -12 OFFCURVE",
"512 76 OFFCURVE",
"540 216 CURVE SMOOTH",
"612 572 LINE",
"520 572 LINE",
"448 220 LINE SMOOTH",
"424 104 OFFCURVE",
"364 72 OFFCURVE",
"280 72 CURVE SMOOTH",
"168 72 OFFCURVE",
"152 140 OFFCURVE",
"168 220 CURVE SMOOTH",
"240 572 LINE",
"148 572 LINE",
"76 220 LINE SMOOTH",
"44 64 OFFCURVE",
"132 -12 OFFCURVE",
"276 -12 CURVE SMOOTH"
);
}
);
width = 632;
},
{
anchors = (
{
name = bottom;
position = "{288, 0}";
},
{
name = ogonek;
position = "{423, 0}";
},
{
name = top;
position = "{400, 572}";
},
{
name = topright;
position = "{624, 572}";
}
);
color = 4;
layerId = "FA792B6B-505C-4DC3-9C40-F9BEDA01661E";
paths = (
{
closed = 1;
nodes = (
"500 -12 OFFCURVE",
"596 60 OFFCURVE",
"632 252 CURVE SMOOTH",
"692 572 LINE",
"488 572 LINE",
"424 244 LINE SMOOTH",
"412 184 OFFCURVE",
"384 148 OFFCURVE",
"324 148 CURVE SMOOTH",
"264 148 OFFCURVE",
"252 184 OFFCURVE",
"264 244 CURVE SMOOTH",
"328 572 LINE",
"116 572 LINE",
"56 252 LINE SMOOTH",
"28 104 OFFCURVE",
"84 -12 OFFCURVE",
"304 -12 CURVE SMOOTH"
);
}
);
width = 688;
}
);
leftKerningGroup = u.sc;
note = u.sc;
rightKerningGroup = u.sc;
},
{
glyphname = v.sc;
lastChange = "2020-07-10 12:19:54 +0000";
layers = (
{
anchors = (
{
name = bottom;
position = "{242, 0}";
},
{
name = top;
position = "{354, 572}";
}
);
color = 4;
layerId = "5B01CDE3-ACDA-4D2B-9E53-A993574CFD15";
paths = (
{
closed = 1;
nodes = (
"44 8 LINE",
"86 -2 OFFCURVE",
"128 -8 OFFCURVE",
"172 -8 CURVE SMOOTH",
"348 -8 OFFCURVE",
"412 60 OFFCURVE",
"460 188 CURVE SMOOTH",
"604 572 LINE",
"508 572 LINE",
"368 192 LINE SMOOTH",
"340 116 OFFCURVE",
"304 72 OFFCURVE",
"192 72 CURVE SMOOTH",
"168 72 OFFCURVE",
"144 76 OFFCURVE",
"128 80 CURVE",
"132 40 LINE",
"144 64 OFFCURVE",
"151 84 OFFCURVE",
"156 108 CURVE SMOOTH",
"248 572 LINE",
"156 572 LINE",
"68 124 LINE SMOOTH",
"62 92 OFFCURVE",
"52 52 OFFCURVE",
"40 20 CURVE"
);
}
);
width = 596;
},
{
anchors = (
{
name = bottom;
position = "{262, 0}";
},
{
name = top;
position = "{374, 572}";
}
);
color = 4;
layerId = "FA792B6B-505C-4DC3-9C40-F9BEDA01661E";
paths = (
{
closed = 1;
nodes = (
"16 20 LINE",
"67 7 OFFCURVE",
"110 -8 OFFCURVE",
"202 -8 CURVE SMOOTH",
"344 -8 OFFCURVE",
"459 8 OFFCURVE",
"524 180 CURVE SMOOTH",
"672 572 LINE",
"464 572 LINE",
"332 212 LINE SMOOTH",
"316 168 OFFCURVE",
"296 152 OFFCURVE",
"240 152 CURVE SMOOTH",
"212 152 OFFCURVE",
"188 156 OFFCURVE",
"152 164 CURVE",
"212 112 LINE",
"232 132 OFFCURVE",
"256 164 OFFCURVE",
"264 208 CURVE SMOOTH",
"332 572 LINE",
"124 572 LINE",
"44 148 LINE SMOOTH",
"38 116 OFFCURVE",
"25 60 OFFCURVE",
"12 32 CURVE"
);
}
);
width = 636;
}
);
leftKerningGroup = b.sc;
note = v.sc;
rightKerningGroup = v.sc;
},
{
glyphname = w.sc;
lastChange = "2020-07-10 12:19:54 +0000";
layers = (
{
anchors = (
{
name = bottom;
position = "{408, 0}";
},
{
name = top;
position = "{520, 572}";
}
);
color = 4;
guideLines = (
{
angle = 67.0679;
position = "{454, 236}";
},
{
angle = 247.3801;
position = "{872, 380}";
}
);
layerId = "5B01CDE3-ACDA-4D2B-9E53-A993574CFD15";
paths = (
{
closed = 1;
nodes = (
"680 -8 OFFCURVE",
"742 68 OFFCURVE",
"792 188 CURVE SMOOTH",
"952 572 LINE",
"856 572 LINE",
"700 188 LINE SMOOTH",
"672 120 OFFCURVE",
"636 68 OFFCURVE",
"552 68 CURVE SMOOTH",
"524 68 OFFCURVE",
"504 72 OFFCURVE",
"480 80 CURVE",
"512 56 LINE",
"520 80 OFFCURVE",
"524 112 OFFCURVE",
"528 152 CURVE SMOOTH",
"560 572 LINE",
"468 572 LINE",
"436 140 LINE SMOOTH",
"434 107 OFFCURVE",
"421 49 OFFCURVE",
"412 16 CURVE",
"416 4 LINE",
"460 -4 OFFCURVE",
"492 -8 OFFCURVE",
"532 -8 CURVE SMOOTH"
);
},
{
closed = 1;
nodes = (
"316 -8 OFFCURVE",
"376 52 OFFCURVE",
"432 184 CURVE SMOOTH",
"476 288 LINE",
"476 472 LINE",
"356 192 LINE SMOOTH",
"324 116 OFFCURVE",
"284 68 OFFCURVE",
"208 68 CURVE SMOOTH",
"184 68 OFFCURVE",
"166 70 OFFCURVE",
"152 76 CURVE",
"164 56 LINE",
"172 76 OFFCURVE",
"176 110 OFFCURVE",
"180 152 CURVE SMOOTH",
"216 572 LINE",
"124 572 LINE",
"88 140 LINE SMOOTH",
"84 86 OFFCURVE",
"78 51 OFFCURVE",
"68 16 CURVE",
"72 4 LINE",
"108 -4 OFFCURVE",
"144 -8 OFFCURVE",
"184 -8 CURVE SMOOTH"
);
}
);
width = 928;
},
{
anchors = (
{
name = bottom;
position = "{448, 0}";
},
{
name = top;
position = "{560, 572}";
}
);
color = 4;
guideLines = (
{
angle = 254.4191;
position = "{452, 121}";
},
{
angle = 251.216;
position = "{778, 400}";
}
);
layerId = "FA792B6B-505C-4DC3-9C40-F9BEDA01661E";
paths = (
{
closed = 1;
nodes = (
"712 -4 OFFCURVE",
"865 48 OFFCURVE",
"916 191 CURVE SMOOTH",
"1047 572 LINE",
"836 572 LINE",
"722 236 LINE SMOOTH",
"704 184 OFFCURVE",
"672 152 OFFCURVE",
"592 152 CURVE SMOOTH",
"580 152 OFFCURVE",
"568 152 OFFCURVE",
"552 156 CURVE",
"604 112 LINE",
"620 132 OFFCURVE",
"626 177 OFFCURVE",
"633 225 CURVE SMOOTH",
"677 572 LINE",
"474 572 LINE",
"424 164 LINE SMOOTH",
"418 112 OFFCURVE",
"412 64 OFFCURVE",
"397 21 CURVE",
"406 11 LINE",
"456 0 OFFCURVE",
"508 -4 OFFCURVE",
"560 -4 CURVE SMOOTH"
);
},
{
closed = 1;
nodes = (
"312 -4 OFFCURVE",
"436 64 OFFCURVE",
"472 192 CURVE",
"532 408 LINE",
"492 488 LINE",
"369 233 LINE SMOOTH",
"350 192 OFFCURVE",
"320 152 OFFCURVE",
"256 152 CURVE SMOOTH",
"220 152 OFFCURVE",
"204 156 OFFCURVE",
"176 168 CURVE",
"247 117 LINE",
"253 133 OFFCURVE",
"261 177 OFFCURVE",
"267 225 CURVE SMOOTH",
"311 572 LINE",
"103 572 LINE",
"50 148 LINE SMOOTH",
"46 116 OFFCURVE",
"40 60 OFFCURVE",
"26 21 CURVE",
"35 11 LINE",
"64 2 OFFCURVE",
"128 -4 OFFCURVE",
"177 -4 CURVE SMOOTH"
);
}
);
width = 1008;
}
);
leftKerningGroup = w.sc;
note = w.sc;
rightKerningGroup = w.sc;
},
{
glyphname = x.sc;
lastChange = "2020-07-10 12:19:54 +0000";
layers = (
{
anchors = (
{
name = bottom;
position = "{238, 0}";
},
{
name = top;
position = "{350, 572}";
}
);
color = 4;
layerId = "5B01CDE3-ACDA-4D2B-9E53-A993574CFD15";
paths = (
{
closed = 1;
nodes = (
"84 0 LINE",
"320 248 LINE",
"612 564 LINE",
"612 572 LINE",
"512 572 LINE",
"280 320 LINE",
"-16 8 LINE",
"-16 0 LINE"
);
},
{
closed = 1;
nodes = (
"500 0 LINE",
"500 8 LINE",
"332 316 LINE",
"192 572 LINE",
"96 572 LINE",
"96 564 LINE",
"268 248 LINE",
"404 0 LINE"
);
}
);
width = 588;
},
{
anchors = (
{
name = bottom;
position = "{274, 0}";
},
{
name = top;
position = "{386, 572}";
}
);
color = 4;
layerId = "FA792B6B-505C-4DC3-9C40-F9BEDA01661E";
paths = (
{
closed = 1;
nodes = (
"196 0 LINE",
"372 208 LINE",
"712 560 LINE",
"712 572 LINE",
"476 572 LINE",
"300 360 LINE",
"-40 8 LINE",
"-40 0 LINE"
);
},
{
closed = 1;
nodes = (
"600 0 LINE",
"600 8 LINE",
"412 364 LINE",
"304 572 LINE",
"68 572 LINE",
"68 560 LINE",
"260 200 LINE",
"368 0 LINE"
);
}
);
width = 660;
}
);
leftKerningGroup = x.sc;
note = x.sc;
rightKerningGroup = x.sc;
},
{
glyphname = y.sc;
lastChange = "2020-07-10 12:19:54 +0000";
layers = (
{
anchors = (
{
name = bottom;
position = "{207, 0}";
},
{
name = top;
position = "{319, 572}";
},
{
name = topleft;
position = "{76, 572}";
}
);
color = 4;
layerId = "5B01CDE3-ACDA-4D2B-9E53-A993574CFD15";
paths = (
{
closed = 1;
nodes = (
"252 0 LINE",
"298 235 LINE",
"580 564 LINE",
"580 572 LINE",
"480 572 LINE",
"252 300 LINE",
"277 288 LINE",
"156 572 LINE",
"64 572 LINE",
"64 564 LINE",
"207 238 LINE",
"160 0 LINE"
);
}
);
width = 526;
},
{
anchors = (
{
name = bottom;
position = "{244, 0}";
},
{
name = top;
position = "{356, 572}";
},
{
name = topleft;
position = "{76, 572}";
}
);
color = 4;
layerId = "FA792B6B-505C-4DC3-9C40-F9BEDA01661E";
paths = (
{
closed = 1;
nodes = (
"352 0 LINE",
"395 227 LINE",
"660 560 LINE",
"660 572 LINE",
"444 572 LINE",
"276 332 LINE",
"356 320 LINE",
"272 572 LINE",
"60 572 LINE",
"60 560 LINE",
"185 238 LINE",
"140 0 LINE"
);
}
);
width = 600;
}
);
leftKerningGroup = y.sc;
note = y.sc;
rightKerningGroup = y.sc;
},
{
glyphname = z.sc;
lastChange = "2020-07-10 12:19:54 +0000";
layers = (
{
anchors = (
{
name = bottom;
position = "{213, 0}";
},
{
name = top;
position = "{325, 572}";
}
);
color = 4;
layerId = "5B01CDE3-ACDA-4D2B-9E53-A993574CFD15";
paths = (
{
closed = 1;
nodes = (
"103 492 LINE",
"444 492 LINE",
"424 524 LINE",
"31 80 LINE SMOOTH",
"-1 44 OFFCURVE",
"-2 25 OFFCURVE",
"-1 8 CURVE",
"7 0 LINE",
"439 0 LINE",
"451 80 LINE",
"108 80 LINE",
"124 60 LINE",
"507 492 LINE SMOOTH",
"539 528 OFFCURVE",
"540 546 OFFCURVE",
"539 564 CURVE",
"531 572 LINE",
"115 572 LINE"
);
}
);
width = 538;
},
{
anchors = (
{
name = bottom;
position = "{246, 0}";
},
{
name = top;
position = "{358, 572}";
}
);
color = 4;
layerId = "FA792B6B-505C-4DC3-9C40-F9BEDA01661E";
paths = (
{
closed = 1;
nodes = (
"78 412 LINE",
"396 412 LINE",
"328 436 LINE",
"41 138 LINE SMOOTH",
"12 108 OFFCURVE",
"-17 59 OFFCURVE",
"-11 10 CURVE",
"0 0 LINE",
"508 0 LINE",
"540 160 LINE",
"208 160 LINE",
"272 132 LINE",
"563 434 LINE SMOOTH",
"596 468 OFFCURVE",
"622 508 OFFCURVE",
"615 561 CURVE",
"608 572 LINE",
"109 572 LINE"
);
}
);
width = 604;
}
);
leftKerningGroup = z.sc;
note = z.sc;
rightKerningGroup = z.sc;
},
{
glyphname = ae.sc;
lastChange = "2020-07-10 12:19:54 +0000";
layers = (
{
anchors = (
{
name = bottom;
position = "{456, 0}";
},
{
name = top;
position = "{567, 572}";
}
);
color = 4;
components = (
{
name = a.sc;
}
);
layerId = "5B01CDE3-ACDA-4D2B-9E53-A993574CFD15";
paths = (
{
closed = 1;
nodes = (
"776 0 LINE",
"792 80 LINE",
"440 80 LINE",
"420 0 LINE"
);
},
{
closed = 1;
nodes = (
"768 260 LINE",
"784 336 LINE",
"492 336 LINE",
"476 260 LINE"
);
},
{
closed = 1;
nodes = (
"864 492 LINE",
"880 572 LINE",
"536 572 LINE",
"520 492 LINE"
);
}
);
width = 880;
},
{
anchors = (
{
name = bottom;
position = "{480, 0}";
},
{
name = top;
position = "{592, 572}";
}
);
color = 4;
components = (
{
name = a.sc;
}
);
layerId = "FA792B6B-505C-4DC3-9C40-F9BEDA01661E";
paths = (
{
closed = 1;
nodes = (
"776 0 LINE",
"808 160 LINE",
"504 160 LINE",
"472 0 LINE"
);
},
{
closed = 1;
nodes = (
"772 208 LINE",
"800 356 LINE",
"540 356 LINE",
"512 208 LINE"
);
},
{
closed = 1;
nodes = (
"852 412 LINE",
"884 572 LINE",
"580 572 LINE",
"548 412 LINE"
);
}
);
width = 872;
}
);
leftKerningGroup = a.sc;
leftMetricsKey = a.sc;
note = ae.sc;
rightKerningGroup = e.sc;
rightMetricsKey = e.sc;
},
{
glyphname = kgreenlandic.sc;
lastChange = "2020-07-10 12:19:54 +0000";
layers = (
{
anchors = (
{
name = bottom;
position = "{266, 0}";
},
{
name = top;
position = "{266, 572}";
}
);
color = 4;
layerId = "5B01CDE3-ACDA-4D2B-9E53-A993574CFD15";
paths = (
{
closed = 1;
nodes = (
"468 0 LINE",
"468 12 LINE",
"454 28 OFFCURVE",
"427 69 OFFCURVE",
"408 100 CURVE SMOOTH",
"264 332 LINE",
"272 284 LINE",
"486 480 LINE SMOOTH",
"518 509 OFFCURVE",
"556 544 OFFCURVE",
"579 560 CURVE",
"582 572 LINE",
"468 572 LINE",
"183 300 LINE",
"364 0 LINE"
);
},
{
closed = 1;
nodes = (
"136 0 LINE",
"248 572 LINE",
"156 572 LINE",
"44 0 LINE"
);
}
);
width = 531;
},
{
anchors = (
{
name = bottom;
position = "{337, 0}";
},
{
name = top;
position = "{337, 572}";
}
);
color = 4;
layerId = "FA792B6B-505C-4DC3-9C40-F9BEDA01661E";
paths = (
{
closed = 1;
nodes = (
"609 0 LINE",
"609 12 LINE",
"592 28 OFFCURVE",
"568 64 OFFCURVE",
"552 98 CURVE SMOOTH",
"420 381 LINE",
"391 244 LINE",
"608 459 LINE SMOOTH",
"641 491 OFFCURVE",
"698 540 OFFCURVE",
"722 556 CURVE",
"722 572 LINE",
"479 572 LINE",
"252 300 LINE",
"375 0 LINE"
);
},
{
closed = 1;
nodes = (
"224 0 LINE",
"332 572 LINE",
"124 572 LINE",
"16 0 LINE"
);
}
);
width = 666;
}
);
leftKerningGroup = b.sc;
leftMetricsKey = h.sc;
rightKerningGroup = k.sc;
rightMetricsKey = k;
},
{
glyphname = eng.sc;
lastChange = "2020-07-10 12:19:54 +0000";
layers = (
{
color = 4;
layerId = "5B01CDE3-ACDA-4D2B-9E53-A993574CFD15";
paths = (
{
closed = 1;
nodes = (
"416 -64 LINE SMOOTH",
"402 -136 OFFCURVE",
"356 -160 OFFCURVE",
"288 -160 CURVE SMOOTH",
"260 -160 OFFCURVE",
"232 -156 OFFCURVE",
"216 -148 CURVE",
"208 -148 LINE",
"192 -224 LINE",
"212 -230 OFFCURVE",
"248 -240 OFFCURVE",
"288 -240 CURVE SMOOTH",
"404 -240 OFFCURVE",
"484 -192 OFFCURVE",
"508 -68 CURVE SMOOTH",
"632 572 LINE",
"540 572 LINE"
);
},
{
closed = 1;
nodes = (
"504 232 LINE",
"228 572 LINE",
"156 572 LINE",
"44 0 LINE",
"136 0 LINE",
"228 468 LINE",
"200 464 LINE",
"480 120 LINE"
);
}
);
width = 668;
},
{
color = 4;
layerId = "FA792B6B-505C-4DC3-9C40-F9BEDA01661E";
paths = (
{
closed = 1;
nodes = (
"396 0 LINE",
"384 -60 OFFCURVE",
"356 -84 OFFCURVE",
"300 -84 CURVE SMOOTH",
"276 -84 OFFCURVE",
"256 -80 OFFCURVE",
"243 -72 CURVE",
"231 -72 LINE",
"199 -228 LINE",
"222 -234 OFFCURVE",
"276 -240 OFFCURVE",
"312 -240 CURVE SMOOTH",
"480 -240 OFFCURVE",
"572 -164 OFFCURVE",
"604 0 CURVE SMOOTH",
"716 572 LINE",
"508 572 LINE"
);
},
{
closed = 1;
nodes = (
"520 308 LINE",
"292 572 LINE",
"128 572 LINE",
"16 0 LINE",
"224 0 LINE",
"300 388 LINE",
"224 368 LINE",
"460 92 LINE"
);
}
);
width = 715;
}
);
leftKerningGroup = b.sc;
note = eng.sc;
},
{
glyphname = oe.sc;
lastChange = "2020-07-10 12:19:54 +0000";
layers = (
{
anchors = (
{
name = bottom;
position = "{408, 0}";
},
{
name = top;
position = "{520, 572}";
}
);
color = 4;
components = (
{
name = o.sc;
}
);
layerId = "5B01CDE3-ACDA-4D2B-9E53-A993574CFD15";
paths = (
{
closed = 1;
nodes = (
"824 0 LINE",
"840 80 LINE",
"488 80 LINE",
"384 0 LINE"
);
},
{
closed = 1;
nodes = (
"816 260 LINE",
"832 336 LINE",
"584 336 LINE",
"584 260 LINE"
);
},
{
closed = 1;
nodes = (
"912 492 LINE",
"928 572 LINE",
"424 572 LINE",
"568 492 LINE"
);
}
);
width = 928;
},
{
anchors = (
{
name = bottom;
position = "{442, 0}";
},
{
name = top;
position = "{554, 572}";
}
);
color = 4;
components = (
{
name = o.sc;
}
);
layerId = "FA792B6B-505C-4DC3-9C40-F9BEDA01661E";
paths = (
{
closed = 1;
nodes = (
"900 0 LINE",
"932 160 LINE",
"628 160 LINE",
"436 0 LINE"
);
},
{
closed = 1;
nodes = (
"896 208 LINE",
"924 356 LINE",
"664 356 LINE",
"636 208 LINE"
);
},
{
closed = 1;
nodes = (
"976 412 LINE",
"1008 572 LINE",
"436 572 LINE",
"552 412 LINE"
);
}
);
width = 996;
}
);
leftKerningGroup = c.sc;
leftMetricsKey = o.sc;
note = oe.sc;
rightKerningGroup = e.sc;
rightMetricsKey = e.sc;
},
{
glyphname = thorn.sc;
lastChange = "2020-07-10 12:19:54 +0000";
layers = (
{
anchors = (
{
name = bottom;
position = "{228, 0}";
},
{
name = top;
position = "{340, 572}";
}
);
color = 4;
layerId = "5B01CDE3-ACDA-4D2B-9E53-A993574CFD15";
paths = (
{
closed = 1;
nodes = (
"176 404 LINE",
"344 404 LINE SMOOTH",
"400 404 OFFCURVE",
"436 380 OFFCURVE",
"436 324 CURVE SMOOTH",
"436 244 OFFCURVE",
"384 168 OFFCURVE",
"272 168 CURVE SMOOTH",
"132 168 LINE",
"116 92 LINE",
"272 92 LINE SMOOTH",
"456 92 OFFCURVE",
"532 216 OFFCURVE",
"532 324 CURVE SMOOTH",
"532 428 OFFCURVE",
"464 484 OFFCURVE",
"344 484 CURVE SMOOTH",
"192 484 LINE"
);
},
{
closed = 1;
nodes = (
"248 572 LINE",
"156 572 LINE",
"44 0 LINE",
"136 0 LINE"
);
}
);
width = 568;
},
{
anchors = (
{
name = bottom;
position = "{264, 0}";
},
{
name = top;
position = "{376, 572}";
}
);
color = 4;
layerId = "FA792B6B-505C-4DC3-9C40-F9BEDA01661E";
paths = (
{
closed = 1;
nodes = (
"208 356 LINE",
"348 356 LINE SMOOTH",
"388 356 OFFCURVE",
"420 336 OFFCURVE",
"420 296 CURVE SMOOTH",
"420 252 OFFCURVE",
"392 204 OFFCURVE",
"316 204 CURVE SMOOTH",
"184 204 LINE",
"156 52 LINE",
"316 52 LINE SMOOTH",
"492 52 OFFCURVE",
"632 164 OFFCURVE",
"632 312 CURVE SMOOTH",
"632 452 OFFCURVE",
"532 516 OFFCURVE",
"364 516 CURVE SMOOTH",
"240 516 LINE"
);
},
{
closed = 1;
nodes = (
"336 572 LINE",
"128 572 LINE",
"16 0 LINE",
"224 0 LINE"
);
}
);
width = 640;
}
);
leftKerningGroup = b.sc;
note = thorn.sc;
rightKerningGroup = thorn.sc;
},
{
glyphname = tbar.sc;
lastChange = "2020-07-10 12:19:54 +0000";
layers = (
{
color = 4;
components = (
{
name = t.sc;
}
);
layerId = "5B01CDE3-ACDA-4D2B-9E53-A993574CFD15";
paths = (
{
closed = 1;
nodes = (
"445 248 LINE",
"459 320 LINE",
"80 320 LINE",
"64 248 LINE"
);
}
);
width = 516;
},
{
color = 4;
components = (
{
name = t.sc;
}
);
layerId = "FA792B6B-505C-4DC3-9C40-F9BEDA01661E";
paths = (
{
closed = 1;
nodes = (
"503 192 LINE",
"529 312 LINE",
"89 312 LINE",
"63 192 LINE"
);
}
);
width = 592;
}
);
leftKerningGroup = t.sc;
leftMetricsKey = t.sc;
note = tbar.sc;
rightKerningGroup = t.sc;
rightMetricsKey = t.sc;
},
{
glyphname = germandbls.sc;
lastChange = "2020-07-10 12:19:54 +0000";
layers = (
{
color = 4;
layerId = "5B01CDE3-ACDA-4D2B-9E53-A993574CFD15";
rightMetricsKey = "=h.sc-4";
paths = (
{
closed = 1;
nodes = (
"248 572 LINE",
"156 572 LINE",
"44 0 LINE",
"136 0 LINE"
);
},
{
closed = 1;
nodes = (
"491 -12 OFFCURVE",
"556 96 OFFCURVE",
"556 176 CURVE SMOOTH",
"556 268 OFFCURVE",
"494 321 OFFCURVE",
"396 324 CURVE",
"396 292 LINE",
"528 460 LINE SMOOTH",
"571 515 OFFCURVE",
"580 532 OFFCURVE",
"573 564 CURVE",
"565 572 LINE",
"196 572 LINE",
"196 492 LINE",
"495 492 LINE",
"484 532 LINE",
"304 296 LINE",
"316 260 LINE",
"369 260 LINE SMOOTH",
"428 260 OFFCURVE",
"468 236 OFFCURVE",
"468 177 CURVE SMOOTH",
"468 116 OFFCURVE",
"420 68 OFFCURVE",
"320 68 CURVE SMOOTH",
"272 68 OFFCURVE",
"244 78 OFFCURVE",
"224 88 CURVE",
"216 88 LINE",
"200 8 LINE",
"232 -4 OFFCURVE",
"264 -12 OFFCURVE",
"312 -12 CURVE SMOOTH"
);
}
);
width = 668;
},
{
color = 4;
layerId = "FA792B6B-505C-4DC3-9C40-F9BEDA01661E";
rightMetricsKey = "=h.sc+8";
paths = (
{
closed = 1;
nodes = (
"332 572 LINE",
"124 572 LINE",
"16 0 LINE",
"224 0 LINE"
);
},
{
closed = 1;
nodes = (
"596 -12 OFFCURVE",
"648 124 OFFCURVE",
"648 196 CURVE SMOOTH",
"648 272 OFFCURVE",
"603 332 OFFCURVE",
"484 344 CURVE",
"484 272 LINE",
"589 416 LINE SMOOTH",
"635 480 OFFCURVE",
"669 509 OFFCURVE",
"650 564 CURVE",
"644 572 LINE",
"240 572 LINE",
"211 424 LINE",
"476 424 LINE",
"460 484 LINE",
"332 292 LINE",
"352 232 LINE",
"400 232 LINE SMOOTH",
"440 232 OFFCURVE",
"460 217 OFFCURVE",
"460 188 CURVE SMOOTH",
"460 160 OFFCURVE",
"439 128 OFFCURVE",
"379 128 CURVE SMOOTH",
"349 128 OFFCURVE",
"320 136 OFFCURVE",
"304 144 CURVE",
"296 144 LINE",
"268 4 LINE",
"291 -4 OFFCURVE",
"325 -12 OFFCURVE",
"376 -12 CURVE SMOOTH"
);
}
);
width = 733;
}
);
leftKerningGroup = s.sc;
leftMetricsKey = h.sc;
note = germandbls.sc;
rightKerningGroup = s.sc;
},
{
glyphname = schwa.sc;
lastChange = "2020-07-10 12:19:54 +0000";
layers = (
{
color = 4;
layerId = "5B01CDE3-ACDA-4D2B-9E53-A993574CFD15";
rightMetricsKey = "=o.sc";
paths = (
{
closed = 1;
nodes = (
"240 584 OFFCURVE",
"180 572 OFFCURVE",
"148 556 CURVE",
"132 472 LINE",
"140 472 LINE",
"171 488 OFFCURVE",
"228 504 OFFCURVE",
"296 504 CURVE SMOOTH",
"400 504 OFFCURVE",
"466 456 OFFCURVE",
"466 336 CURVE SMOOTH",
"466 304 LINE SMOOTH",
"466 192 OFFCURVE",
"392 68 OFFCURVE",
"264 68 CURVE SMOOTH",
"176 68 OFFCURVE",
"142 112 OFFCURVE",
"142 184 CURVE SMOOTH",
"142 194 OFFCURVE",
"144 212 OFFCURVE",
"148 228 CURVE",
"496 228 LINE",
"496 308 LINE",
"68 308 LINE",
"58 272 OFFCURVE",
"48 224 OFFCURVE",
"48 180 CURVE SMOOTH",
"48 68 OFFCURVE",
"120 -12 OFFCURVE",
"260 -12 CURVE SMOOTH",
"450 -12 OFFCURVE",
"562 152 OFFCURVE",
"562 336 CURVE SMOOTH",
"562 500 OFFCURVE",
"474 584 OFFCURVE",
"304 584 CURVE SMOOTH"
);
}
);
width = 608;
},
{
color = 4;
layerId = "FA792B6B-505C-4DC3-9C40-F9BEDA01661E";
rightMetricsKey = "=o.sc";
paths = (
{
closed = 1;
nodes = (
"242 584 OFFCURVE",
"190 576 OFFCURVE",
"142 560 CURVE",
"110 400 LINE",
"122 400 LINE",
"154 416 OFFCURVE",
"214 428 OFFCURVE",
"266 428 CURVE SMOOTH",
"354 428 OFFCURVE",
"406 400 OFFCURVE",
"406 300 CURVE",
"406 288 LINE",
"406 184 OFFCURVE",
"362 128 OFFCURVE",
"302 128 CURVE SMOOTH",
"258 128 OFFCURVE",
"234 152 OFFCURVE",
"234 188 CURVE SMOOTH",
"234 200 OFFCURVE",
"236 210 OFFCURVE",
"238 220 CURVE",
"486 220 LINE",
"486 332 LINE",
"62 332 LINE",
"50 288 OFFCURVE",
"42 240 OFFCURVE",
"42 200 CURVE SMOOTH",
"42 72 OFFCURVE",
"114 -12 OFFCURVE",
"294 -12 CURVE SMOOTH",
"474 -12 OFFCURVE",
"614 112 OFFCURVE",
"614 316 CURVE SMOOTH",
"614 520 OFFCURVE",
"474 584 OFFCURVE",
"302 584 CURVE SMOOTH"
);
}
);
width = 637;
}
);
},
{
glyphname = Schwa;
lastChange = "2020-07-10 12:19:54 +0000";
layers = (
{
color = 4;
layerId = "5B01CDE3-ACDA-4D2B-9E53-A993574CFD15";
rightMetricsKey = "=O";
paths = (
{
closed = 1;
nodes = (
"308 732 OFFCURVE",
"220 716 OFFCURVE",
"172 696 CURVE",
"154 602 LINE",
"165 602 LINE",
"205 623 OFFCURVE",
"296 644 OFFCURVE",
"372 644 CURVE SMOOTH",
"512 644 OFFCURVE",
"600 588 OFFCURVE",
"600 436 CURVE SMOOTH",
"600 252 OFFCURVE",
"500 76 OFFCURVE",
"320 76 CURVE SMOOTH",
"198 76 OFFCURVE",
"146 132 OFFCURVE",
"146 228 CURVE SMOOTH",
"146 256 OFFCURVE",
"152 296 OFFCURVE",
"160 316 CURVE",
"598 316 LINE",
"615 400 LINE",
"76 400 LINE",
"60 360 OFFCURVE",
"48 284 OFFCURVE",
"48 232 CURVE SMOOTH",
"48 81 OFFCURVE",
"121 -12 OFFCURVE",
"308 -12 CURVE SMOOTH",
"552 -12 OFFCURVE",
"700 208 OFFCURVE",
"700 440 CURVE SMOOTH",
"700 624 OFFCURVE",
"598 732 OFFCURVE",
"384 732 CURVE SMOOTH"
);
}
);
width = 728;
},
{
color = 4;
layerId = "FA792B6B-505C-4DC3-9C40-F9BEDA01661E";
rightMetricsKey = "=O";
paths = (
{
closed = 1;
nodes = (
"308 732 OFFCURVE",
"236 720 OFFCURVE",
"180 704 CURVE",
"144 520 LINE",
"160 520 LINE",
"203 540 OFFCURVE",
"272 556 OFFCURVE",
"340 556 CURVE SMOOTH",
"441 556 OFFCURVE",
"512 522 OFFCURVE",
"512 412 CURVE SMOOTH",
"512 309 OFFCURVE",
"468 164 OFFCURVE",
"344 164 CURVE SMOOTH",
"283 164 OFFCURVE",
"252 190 OFFCURVE",
"252 243 CURVE SMOOTH",
"252 253 OFFCURVE",
"253 264 OFFCURVE",
"257 282 CURVE",
"539 282 LINE",
"568 432 LINE",
"80 432 LINE",
"60 368 OFFCURVE",
"48 300 OFFCURVE",
"48 244 CURVE SMOOTH",
"48 96 OFFCURVE",
"123 -12 OFFCURVE",
"328 -12 CURVE SMOOTH",
"592 -12 OFFCURVE",
"724 212 OFFCURVE",
"724 412 CURVE SMOOTH",
"724 665 OFFCURVE",
"570 732 OFFCURVE",
"384 732 CURVE SMOOTH"
);
}
);
width = 733;
}
);
rightKerningGroup = D;
unicode = 018F;
},
{
glyphname = schwa;
lastChange = "2020-07-10 12:19:54 +0000";
layers = (
{
color = 4;
layerId = "5B01CDE3-ACDA-4D2B-9E53-A993574CFD15";
paths = (
{
closed = 1;
nodes = (
"240 556 OFFCURVE",
"180 544 OFFCURVE",
"148 528 CURVE",
"132 444 LINE",
"140 444 LINE",
"171 460 OFFCURVE",
"228 476 OFFCURVE",
"296 476 CURVE SMOOTH",
"400 476 OFFCURVE",
"466 428 OFFCURVE",
"466 328 CURVE SMOOTH",
"466 308 LINE SMOOTH",
"466 196 OFFCURVE",
"392 72 OFFCURVE",
"264 72 CURVE SMOOTH",
"176 72 OFFCURVE",
"142 116 OFFCURVE",
"142 188 CURVE SMOOTH",
"142 198 OFFCURVE",
"144 216 OFFCURVE",
"148 232 CURVE",
"496 232 LINE",
"496 308 LINE",
"68 308 LINE",
"58 272 OFFCURVE",
"48 228 OFFCURVE",
"48 184 CURVE SMOOTH",
"48 72 OFFCURVE",
"120 -8 OFFCURVE",
"260 -8 CURVE SMOOTH",
"448 -8 OFFCURVE",
"560 156 OFFCURVE",
"560 328 CURVE SMOOTH",
"560 472 OFFCURVE",
"472 556 OFFCURVE",
"304 556 CURVE SMOOTH"
);
}
);
width = 600;
},
{
color = 4;
layerId = "FA792B6B-505C-4DC3-9C40-F9BEDA01661E";
rightMetricsKey = "=o";
paths = (
{
closed = 1;
nodes = (
"242 564 OFFCURVE",
"190 556 OFFCURVE",
"142 540 CURVE",
"110 380 LINE",
"122 380 LINE",
"154 396 OFFCURVE",
"214 408 OFFCURVE",
"266 408 CURVE SMOOTH",
"354 408 OFFCURVE",
"406 380 OFFCURVE",
"406 300 CURVE",
"406 288 LINE",
"406 184 OFFCURVE",
"362 128 OFFCURVE",
"302 128 CURVE SMOOTH",
"258 128 OFFCURVE",
"234 152 OFFCURVE",
"234 188 CURVE SMOOTH",
"234 200 OFFCURVE",
"236 210 OFFCURVE",
"238 220 CURVE",
"486 220 LINE",
"486 332 LINE",
"62 332 LINE",
"50 288 OFFCURVE",
"42 240 OFFCURVE",
"42 200 CURVE SMOOTH",
"42 72 OFFCURVE",
"114 -12 OFFCURVE",
"294 -12 CURVE SMOOTH",
"474 -12 OFFCURVE",
"614 112 OFFCURVE",
"614 316 CURVE SMOOTH",
"614 500 OFFCURVE",
"474 564 OFFCURVE",
"302 564 CURVE SMOOTH"
);
}
);
width = 648;
}
);
rightKerningGroup = b;
unicode = 0259;
},
{
glyphname = fi;
lastChange = "2020-07-10 12:19:54 +0000";
layers = (
{
color = 4;
components = (
{
name = _part.f.liga;
}
);
layerId = "5B01CDE3-ACDA-4D2B-9E53-A993574CFD15";
paths = (
{
closed = 1;
nodes = (
"580 640 OFFCURVE",
"616 668 OFFCURVE",
"616 712 CURVE SMOOTH",
"616 740 OFFCURVE",
"596 760 OFFCURVE",
"564 760 CURVE SMOOTH",
"528 760 OFFCURVE",
"492 732 OFFCURVE",
"492 688 CURVE SMOOTH",
"492 660 OFFCURVE",
"512 640 OFFCURVE",
"544 640 CURVE SMOOTH"
);
},
{
closed = 1;
nodes = (
"376 0 LINE",
"468 0 LINE",
"574 544 LINE",
"482 544 LINE"
);
}
);
width = 615;
},
{
color = 4;
components = (
{
name = _part.f.liga;
}
);
layerId = "FA792B6B-505C-4DC3-9C40-F9BEDA01661E";
paths = (
{
closed = 1;
nodes = (
"756 620 OFFCURVE",
"812 668 OFFCURVE",
"812 740 CURVE SMOOTH",
"812 788 OFFCURVE",
"780 828 OFFCURVE",
"716 828 CURVE SMOOTH",
"648 828 OFFCURVE",
"592 780 OFFCURVE",
"592 708 CURVE SMOOTH",
"592 660 OFFCURVE",
"624 620 OFFCURVE",
"688 620 CURVE SMOOTH"
);
},
{
closed = 1;
nodes = (
"456 0 LINE",
"668 0 LINE",
"774 548 LINE",
"562 548 LINE"
);
}
);
width = 788;
}
);
leftKerningGroup = f;
leftMetricsKey = f;
note = fi;
rightKerningGroup = d;
rightMetricsKey = i;
unicode = FB01;
},
{
glyphname = ampersand;
lastChange = "2020-07-10 12:19:54 +0000";
layers = (
{
color = 4;
layerId = "5B01CDE3-ACDA-4D2B-9E53-A993574CFD15";
paths = (
{
closed = 1;
nodes = (
"36 24 OFFCURVE",
"148 -12 OFFCURVE",
"272 -12 CURVE SMOOTH",
"344 -12 OFFCURVE",
"416 4 OFFCURVE",
"468 24 CURVE",
"472 32 LINE",
"472 80 OFFCURVE",
"484 158 OFFCURVE",
"492 198 CURVE SMOOTH",
"512 300 LINE",
"592 300 LINE",
"608 384 LINE",
"304 384 LINE SMOOTH",
"230 384 OFFCURVE",
"180 412 OFFCURVE",
"180 488 CURVE SMOOTH",
"180 596 OFFCURVE",
"284 644 OFFCURVE",
"400 644 CURVE SMOOTH",
"468 644 OFFCURVE",
"528 628 OFFCURVE",
"556 612 CURVE",
"564 612 LINE",
"582 704 LINE",
"549 720 OFFCURVE",
"464 732 OFFCURVE",
"408 732 CURVE SMOOTH",
"220 732 OFFCURVE",
"84 648 OFFCURVE",
"84 484 CURVE SMOOTH",
"84 404 OFFCURVE",
"124 360 OFFCURVE",
"180 332 CURVE",
"188 356 LINE",
"100 324 OFFCURVE",
"36 260 OFFCURVE",
"36 160 CURVE SMOOTH"
);
},
{
closed = 1;
nodes = (
"192 68 OFFCURVE",
"128 88 OFFCURVE",
"128 168 CURVE SMOOTH",
"128 252 OFFCURVE",
"196 300 OFFCURVE",
"300 300 CURVE SMOOTH",
"418 300 LINE",
"388 144 LINE SMOOTH",
"383 118 OFFCURVE",
"379 87 OFFCURVE",
"380 60 CURVE",
"396 88 LINE",
"356 72 OFFCURVE",
"322 68 OFFCURVE",
"280 68 CURVE SMOOTH"
);
}
);
width = 644;
},
{
color = 4;
layerId = "FA792B6B-505C-4DC3-9C40-F9BEDA01661E";
paths = (
{
closed = 1;
nodes = (
"32 48 OFFCURVE",
"144 -12 OFFCURVE",
"308 -12 CURVE SMOOTH",
"400 -12 OFFCURVE",
"488 4 OFFCURVE",
"564 28 CURVE",
"568 36 LINE",
"572 96 OFFCURVE",
"581 148 OFFCURVE",
"592 208 CURVE SMOOTH",
"606 284 LINE",
"672 284 LINE",
"700 432 LINE",
"388 432 LINE SMOOTH",
"332 432 OFFCURVE",
"292 440 OFFCURVE",
"292 488 CURVE SMOOTH",
"292 536 OFFCURVE",
"340 564 OFFCURVE",
"436 564 CURVE SMOOTH",
"516 564 OFFCURVE",
"584 544 OFFCURVE",
"624 524 CURVE",
"636 524 LINE",
"670 700 LINE",
"629 718 OFFCURVE",
"540 732 OFFCURVE",
"448 732 CURVE SMOOTH",
"192 732 OFFCURVE",
"80 636 OFFCURVE",
"80 476 CURVE SMOOTH",
"80 400 OFFCURVE",
"132 348 OFFCURVE",
"200 316 CURVE",
"188 368 LINE",
"92 344 OFFCURVE",
"32 284 OFFCURVE",
"32 184 CURVE SMOOTH"
);
},
{
closed = 1;
nodes = (
"280 144 OFFCURVE",
"240 160 OFFCURVE",
"240 204 CURVE SMOOTH",
"240 260 OFFCURVE",
"280 284 OFFCURVE",
"344 284 CURVE SMOOTH",
"414 284 LINE",
"404 232 LINE SMOOTH",
"395 191 OFFCURVE",
"393 154 OFFCURVE",
"400 128 CURVE",
"424 176 LINE",
"404 160 OFFCURVE",
"392 144 OFFCURVE",
"328 144 CURVE SMOOTH"
);
}
);
width = 704;
}
);
leftKerningGroup = ampersand;
note = ampersand;
rightKerningGroup = ampersand;
unicode = 0026;
},
{
glyphname = at;
lastChange = "2020-07-10 12:19:54 +0000";
layers = (
{
color = 4;
layerId = "5B01CDE3-ACDA-4D2B-9E53-A993574CFD15";
paths = (
{
closed = 1;
nodes = (
"544 -156 OFFCURVE",
"610 -144 OFFCURVE",
"650 -128 CURVE",
"664 -42 LINE",
"656 -42 LINE",
"612 -62 OFFCURVE",
"544 -76 OFFCURVE",
"480 -76 CURVE SMOOTH",
"284 -76 OFFCURVE",
"140 16 OFFCURVE",
"140 224 CURVE SMOOTH",
"140 492 OFFCURVE",
"320 648 OFFCURVE",
"552 648 CURVE SMOOTH",
"732 648 OFFCURVE",
"856 556 OFFCURVE",
"856 404 CURVE SMOOTH",
"856 236 OFFCURVE",
"771 153 OFFCURVE",
"643 122 CURVE",
"648 153 OFFCURVE",
"656 190 OFFCURVE",
"660 212 CURVE SMOOTH",
"680 320 LINE SMOOTH",
"703 445 OFFCURVE",
"648 508 OFFCURVE",
"520 508 CURVE SMOOTH",
"468 508 OFFCURVE",
"424 496 OFFCURVE",
"386 480 CURVE",
"372 404 LINE",
"380 404 LINE",
"408 416 OFFCURVE",
"452 432 OFFCURVE",
"500 432 CURVE SMOOTH",
"588 432 OFFCURVE",
"620 396 OFFCURVE",
"596 304 CURVE",
"572 172 LINE SMOOTH",
"567 141 OFFCURVE",
"567 114 OFFCURVE",
"572 92 CURVE",
"612 116 LINE",
"572 108 OFFCURVE",
"536 108 OFFCURVE",
"508 108 CURVE SMOOTH",
"420 108 OFFCURVE",
"372 124 OFFCURVE",
"372 176 CURVE SMOOTH",
"372 228 OFFCURVE",
"416 260 OFFCURVE",
"504 260 CURVE SMOOTH",
"544 260 OFFCURVE",
"575 253 OFFCURVE",
"596 244 CURVE",
"608 312 LINE",
"588 320 OFFCURVE",
"564 328 OFFCURVE",
"508 328 CURVE SMOOTH",
"372 328 OFFCURVE",
"292 268 OFFCURVE",
"292 172 CURVE SMOOTH",
"292 76 OFFCURVE",
"372 36 OFFCURVE",
"504 36 CURVE SMOOTH",
"764 36 OFFCURVE",
"944 160 OFFCURVE",
"944 408 CURVE SMOOTH",
"944 604 OFFCURVE",
"792 732 OFFCURVE",
"556 732 CURVE SMOOTH",
"264 732 OFFCURVE",
"48 536 OFFCURVE",
"48 224 CURVE SMOOTH",
"48 -32 OFFCURVE",
"228 -156 OFFCURVE",
"476 -156 CURVE SMOOTH"
);
}
);
width = 966;
},
{
color = 4;
layerId = "FA792B6B-505C-4DC3-9C40-F9BEDA01661E";
paths = (
{
closed = 1;
nodes = (
"540 -188 OFFCURVE",
"604 -180 OFFCURVE",
"656 -160 CURVE",
"676 -40 LINE",
"664 -40 LINE",
"616 -60 OFFCURVE",
"544 -68 OFFCURVE",
"480 -68 CURVE SMOOTH",
"300 -68 OFFCURVE",
"168 32 OFFCURVE",
"168 228 CURVE SMOOTH",
"168 496 OFFCURVE",
"332 620 OFFCURVE",
"560 620 CURVE SMOOTH",
"748 620 OFFCURVE",
"860 536 OFFCURVE",
"860 396 CURVE SMOOTH",
"860 264 OFFCURVE",
"794 198 OFFCURVE",
"702 168 CURVE",
"703 180 OFFCURVE",
"705 192 OFFCURVE",
"708 204 CURVE",
"724 288 LINE SMOOTH",
"753 441 OFFCURVE",
"660 504 OFFCURVE",
"528 504 CURVE SMOOTH",
"476 504 OFFCURVE",
"420 494 OFFCURVE",
"386 484 CURVE",
"364 360 LINE",
"372 360 LINE",
"400 370 OFFCURVE",
"436 380 OFFCURVE",
"476 380 CURVE SMOOTH",
"560 380 OFFCURVE",
"572 352 OFFCURVE",
"556 292 CURVE",
"545 236 LINE SMOOTH",
"540 212 OFFCURVE",
"516 120 OFFCURVE",
"576 108 CURVE",
"580 144 LINE",
"557 144 OFFCURVE",
"535 144 OFFCURVE",
"512 144 CURVE SMOOTH",
"476 144 OFFCURVE",
"444 152 OFFCURVE",
"444 182 CURVE SMOOTH",
"444 212 OFFCURVE",
"472 224 OFFCURVE",
"512 224 CURVE SMOOTH",
"536 224 OFFCURVE",
"548 220 OFFCURVE",
"560 216 CURVE",
"576 300 LINE",
"556 308 OFFCURVE",
"532 316 OFFCURVE",
"492 316 CURVE SMOOTH",
"392 316 OFFCURVE",
"288 288 OFFCURVE",
"288 172 CURVE SMOOTH",
"288 80 OFFCURVE",
"368 32 OFFCURVE",
"512 32 CURVE SMOOTH",
"784 32 OFFCURVE",
"988 144 OFFCURVE",
"988 400 CURVE SMOOTH",
"988 592 OFFCURVE",
"828 740 OFFCURVE",
"564 740 CURVE SMOOTH",
"252 740 OFFCURVE",
"36 560 OFFCURVE",
"36 224 CURVE SMOOTH",
"36 -20 OFFCURVE",
"204 -188 OFFCURVE",
"468 -188 CURVE SMOOTH"
);
}
);
width = 994;
}
);
note = at;
unicode = 0040;
},
{
glyphname = asterisk;
lastChange = "2020-07-10 12:19:54 +0000";
layers = (
{
color = 4;
layerId = "5B01CDE3-ACDA-4D2B-9E53-A993574CFD15";
paths = (
{
closed = 1;
nodes = (
"322 280 LINE",
"350 500 LINE",
"406 720 LINE",
"322 720 LINE",
"290 500 LINE",
"238 280 LINE"
);
},
{
closed = 1;
nodes = (
"474 340 LINE",
"522 408 LINE",
"330 524 LINE",
"166 656 LINE",
"118 588 LINE",
"314 472 LINE"
);
},
{
closed = 1;
nodes = (
"322 472 LINE",
"554 572 LINE",
"518 648 LINE",
"318 524 LINE",
"86 428 LINE",
"122 352 LINE"
);
}
);
width = 544;
},
{
color = 4;
layerId = "FA792B6B-505C-4DC3-9C40-F9BEDA01661E";
paths = (
{
closed = 1;
nodes = (
"312 256 LINE",
"332 488 LINE",
"404 720 LINE",
"264 720 LINE",
"240 488 LINE",
"172 256 LINE"
);
},
{
closed = 1;
nodes = (
"428 316 LINE",
"508 428 LINE",
"312 524 LINE",
"152 660 LINE",
"72 548 LINE",
"260 452 LINE"
);
},
{
closed = 1;
nodes = (
"304 448 LINE",
"536 548 LINE",
"488 664 LINE",
"272 528 LINE",
"40 428 LINE",
"88 312 LINE"
);
}
);
width = 544;
}
);
leftKerningGroup = asterisk;
note = asterisk;
rightKerningGroup = asterisk;
unicode = 002A;
},
{
glyphname = copyright;
lastChange = "2020-07-10 12:19:54 +0000";
layers = (
{
color = 4;
layerId = "5B01CDE3-ACDA-4D2B-9E53-A993574CFD15";
paths = (
{
closed = 1;
nodes = (
"68 128 OFFCURVE",
"208 -12 OFFCURVE",
"416 -12 CURVE SMOOTH",
"624 -12 OFFCURVE",
"764 128 OFFCURVE",
"764 360 CURVE SMOOTH",
"764 592 OFFCURVE",
"624 732 OFFCURVE",
"416 732 CURVE SMOOTH",
"208 732 OFFCURVE",
"68 592 OFFCURVE",
"68 360 CURVE SMOOTH"
);
},
{
closed = 1;
nodes = (
"140 568 OFFCURVE",
"252 668 OFFCURVE",
"416 668 CURVE SMOOTH",
"580 668 OFFCURVE",
"692 564 OFFCURVE",
"692 360 CURVE SMOOTH",
"692 156 OFFCURVE",
"580 52 OFFCURVE",
"416 52 CURVE SMOOTH",
"252 52 OFFCURVE",
"140 152 OFFCURVE",
"140 360 CURVE SMOOTH"
);
},
{
closed = 1;
nodes = (
"236 240 OFFCURVE",
"312 156 OFFCURVE",
"448 156 CURVE SMOOTH",
"482 156 OFFCURVE",
"518 162 OFFCURVE",
"540 171 CURVE",
"540 232 LINE",
"536 232 LINE",
"514 222 OFFCURVE",
"482 216 OFFCURVE",
"448 216 CURVE SMOOTH",
"360 216 OFFCURVE",
"304 260 OFFCURVE",
"304 360 CURVE SMOOTH",
"304 460 OFFCURVE",
"360 504 OFFCURVE",
"448 504 CURVE SMOOTH",
"482 504 OFFCURVE",
"514 498 OFFCURVE",
"536 488 CURVE",
"540 488 LINE",
"540 549 LINE",
"518 558 OFFCURVE",
"482 564 OFFCURVE",
"448 564 CURVE SMOOTH",
"312 564 OFFCURVE",
"236 480 OFFCURVE",
"236 360 CURVE SMOOTH"
);
}
);
width = 792;
},
{
color = 4;
layerId = "FA792B6B-505C-4DC3-9C40-F9BEDA01661E";
paths = (
{
closed = 1;
nodes = (
"52 112 OFFCURVE",
"208 -28 OFFCURVE",
"456 -28 CURVE SMOOTH",
"704 -28 OFFCURVE",
"860 112 OFFCURVE",
"860 360 CURVE SMOOTH",
"860 608 OFFCURVE",
"704 748 OFFCURVE",
"456 748 CURVE SMOOTH",
"208 748 OFFCURVE",
"52 608 OFFCURVE",
"52 360 CURVE SMOOTH"
);
},
{
closed = 1;
nodes = (
"152 568 OFFCURVE",
"272 660 OFFCURVE",
"456 660 CURVE SMOOTH",
"640 660 OFFCURVE",
"760 568 OFFCURVE",
"760 360 CURVE SMOOTH",
"760 152 OFFCURVE",
"640 60 OFFCURVE",
"456 60 CURVE SMOOTH",
"272 60 OFFCURVE",
"152 152 OFFCURVE",
"152 360 CURVE SMOOTH"
);
},
{
closed = 1;
nodes = (
"252 235 OFFCURVE",
"333 156 OFFCURVE",
"508 156 CURVE SMOOTH",
"534 156 OFFCURVE",
"572 158 OFFCURVE",
"596 164 CURVE",
"596 272 LINE",
"588 272 LINE",
"571 266 OFFCURVE",
"540 260 OFFCURVE",
"516 260 CURVE SMOOTH",
"417 260 OFFCURVE",
"392 298 OFFCURVE",
"392 360 CURVE SMOOTH",
"392 416 OFFCURVE",
"424 460 OFFCURVE",
"516 460 CURVE SMOOTH",
"540 460 OFFCURVE",
"571 454 OFFCURVE",
"588 448 CURVE",
"596 448 LINE",
"596 556 LINE",
"572 562 OFFCURVE",
"534 564 OFFCURVE",
"508 564 CURVE SMOOTH",
"340 564 OFFCURVE",
"252 484 OFFCURVE",
"252 360 CURVE SMOOTH"
);
}
);
width = 872;
}
);
note = copyright;
unicode = 00A9;
},
{
glyphname = registered;
lastChange = "2020-07-10 12:19:54 +0000";
layers = (
{
color = 4;
layerId = "5B01CDE3-ACDA-4D2B-9E53-A993574CFD15";
paths = (
{
closed = 1;
nodes = (
"624 -12 OFFCURVE",
"764 128 OFFCURVE",
"764 360 CURVE SMOOTH",
"764 592 OFFCURVE",
"624 732 OFFCURVE",
"416 732 CURVE SMOOTH",
"208 732 OFFCURVE",
"68 592 OFFCURVE",
"68 360 CURVE SMOOTH",
"68 128 OFFCURVE",
"208 -12 OFFCURVE",
"416 -12 CURVE SMOOTH"
);
},
{
closed = 1;
nodes = (
"338 168 LINE",
"338 562 LINE",
"276 562 LINE",
"276 472 LINE",
"276 168 LINE"
);
},
{
closed = 1;
nodes = (
"604 168 LINE",
"604 176 LINE",
"470 332 LINE",
"412 312 LINE",
"536 168 LINE"
);
},
{
closed = 1;
nodes = (
"252 52 OFFCURVE",
"140 152 OFFCURVE",
"140 360 CURVE SMOOTH",
"140 568 OFFCURVE",
"252 668 OFFCURVE",
"416 668 CURVE SMOOTH",
"580 668 OFFCURVE",
"692 564 OFFCURVE",
"692 360 CURVE SMOOTH",
"692 156 OFFCURVE",
"580 52 OFFCURVE",
"416 52 CURVE SMOOTH"
);
},
{
closed = 1;
nodes = (
"414 280 LINE SMOOTH",
"528 280 OFFCURVE",
"576 360 OFFCURVE",
"576 436 CURVE SMOOTH",
"576 519 OFFCURVE",
"528 562 OFFCURVE",
"436 562 CURVE SMOOTH",
"306 562 LINE",
"306 508 LINE",
"434 508 LINE SMOOTH",
"484 508 OFFCURVE",
"514 489 OFFCURVE",
"514 436 CURVE SMOOTH",
"514 380 OFFCURVE",
"481 332 OFFCURVE",
"414 332 CURVE SMOOTH",
"306 332 LINE",
"306 280 LINE"
);
}
);
width = 792;
},
{
color = 4;
layerId = "FA792B6B-505C-4DC3-9C40-F9BEDA01661E";
paths = (
{
closed = 1;
nodes = (
"704 -28 OFFCURVE",
"860 112 OFFCURVE",
"860 360 CURVE SMOOTH",
"860 608 OFFCURVE",
"704 748 OFFCURVE",
"456 748 CURVE SMOOTH",
"208 748 OFFCURVE",
"52 608 OFFCURVE",
"52 360 CURVE SMOOTH",
"52 112 OFFCURVE",
"208 -28 OFFCURVE",
"456 -28 CURVE SMOOTH"
);
},
{
closed = 1;
nodes = (
"408 168 LINE",
"408 560 LINE",
"272 560 LINE",
"272 472 LINE",
"272 168 LINE"
);
},
{
closed = 1;
nodes = (
"660 168 LINE",
"660 176 LINE",
"528 344 LINE",
"404 324 LINE",
"512 168 LINE"
);
},
{
closed = 1;
nodes = (
"272 60 OFFCURVE",
"152 152 OFFCURVE",
"152 360 CURVE SMOOTH",
"152 568 OFFCURVE",
"272 660 OFFCURVE",
"456 660 CURVE SMOOTH",
"640 660 OFFCURVE",
"760 568 OFFCURVE",
"760 360 CURVE SMOOTH",
"760 152 OFFCURVE",
"640 60 OFFCURVE",
"456 60 CURVE SMOOTH"
);
},
{
closed = 1;
nodes = (
"432 248 LINE SMOOTH",
"560 248 OFFCURVE",
"640 319 OFFCURVE",
"640 416 CURVE SMOOTH",
"640 508 OFFCURVE",
"588 560 OFFCURVE",
"456 560 CURVE SMOOTH",
"356 560 LINE",
"356 460 LINE",
"444 460 LINE SMOOTH",
"481 460 OFFCURVE",
"504 448 OFFCURVE",
"504 415 CURVE SMOOTH",
"504 376 OFFCURVE",
"488 344 OFFCURVE",
"428 344 CURVE SMOOTH",
"356 344 LINE",
"356 248 LINE"
);
}
);
width = 872;
}
);
note = registered;
unicode = 00AE;
},
{
glyphname = trademark;
lastChange = "2020-07-10 12:19:54 +0000";
layers = (
{
color = 4;
layerId = "5B01CDE3-ACDA-4D2B-9E53-A993574CFD15";
paths = (
{
closed = 1;
nodes = (
"606 320 LINE",
"606 607 LINE",
"585 600 LINE",
"703 428 LINE",
"749 428 LINE",
"867 601 LINE",
"846 608 LINE",
"846 320 LINE",
"930 320 LINE",
"930 720 LINE",
"860 720 LINE",
"706 491 LINE",
"748 491 LINE",
"594 720 LINE",
"522 720 LINE",
"522 320 LINE"
);
},
{
closed = 1;
nodes = (
"304 320 LINE",
"304 651 LINE",
"437 651 LINE",
"437 720 LINE",
"89 720 LINE",
"89 651 LINE",
"221 651 LINE",
"221 320 LINE"
);
}
);
width = 926;
},
{
color = 4;
layerId = "FA792B6B-505C-4DC3-9C40-F9BEDA01661E";
paths = (
{
closed = 1;
nodes = (
"668 320 LINE",
"668 579 LINE",
"631 566 LINE",
"724 380 LINE",
"804 380 LINE",
"895 569 LINE",
"859 581 LINE",
"859 320 LINE",
"1007 320 LINE",
"1007 720 LINE",
"855 720 LINE",
"732 481 LINE",
"801 481 LINE",
"672 720 LINE",
"520 720 LINE",
"520 320 LINE"
);
},
{
closed = 1;
nodes = (
"356 320 LINE",
"356 600 LINE",
"471 600 LINE",
"471 720 LINE",
"85 720 LINE",
"85 600 LINE",
"199 600 LINE",
"199 320 LINE"
);
}
);
width = 1014;
}
);
leftKerningGroup = trademark;
note = trademark;
unicode = 2122;
},
{
glyphname = asciicircum;
lastChange = "2020-07-10 12:19:54 +0000";
layers = (
{
color = 4;
layerId = "5B01CDE3-ACDA-4D2B-9E53-A993574CFD15";
paths = (
{
closed = 1;
nodes = (
"173 400 LINE",
"308 620 LINE",
"443 400 LINE",
"531 400 LINE",
"531 408 LINE",
"336 732 LINE",
"280 732 LINE",
"85 408 LINE",
"85 400 LINE"
);
}
);
width = 616;
},
{
color = 4;
layerId = "FA792B6B-505C-4DC3-9C40-F9BEDA01661E";
paths = (
{
closed = 1;
nodes = (
"233 380 LINE",
"320 536 LINE",
"410 380 LINE",
"546 380 LINE",
"546 388 LINE",
"360 720 LINE",
"280 720 LINE",
"93 388 LINE",
"93 380 LINE"
);
}
);
width = 616;
}
);
note = asciicircum;
unicode = 005E;
},
{
glyphname = asciitilde;
lastChange = "2020-07-10 12:19:54 +0000";
layers = (
{
color = 4;
layerId = "5B01CDE3-ACDA-4D2B-9E53-A993574CFD15";
paths = (
{
closed = 1;
nodes = (
"464 408 LINE",
"460 358 OFFCURVE",
"450 304 OFFCURVE",
"404 304 CURVE SMOOTH",
"376 304 OFFCURVE",
"353 330 OFFCURVE",
"324 356 CURVE SMOOTH",
"295 382 OFFCURVE",
"259 408 OFFCURVE",
"206 408 CURVE SMOOTH",
"104 408 OFFCURVE",
"68 315 OFFCURVE",
"64 224 CURVE",
"144 224 LINE",
"148 274 OFFCURVE",
"158 328 OFFCURVE",
"204 328 CURVE SMOOTH",
"232 328 OFFCURVE",
"255 302 OFFCURVE",
"284 276 CURVE SMOOTH",
"313 250 OFFCURVE",
"349 224 OFFCURVE",
"402 224 CURVE SMOOTH",
"504 224 OFFCURVE",
"540 317 OFFCURVE",
"544 408 CURVE"
);
}
);
width = 616;
},
{
color = 4;
layerId = "FA792B6B-505C-4DC3-9C40-F9BEDA01661E";
paths = (
{
closed = 1;
nodes = (
"444 426 LINE",
"444 378 OFFCURVE",
"440 340 OFFCURVE",
"410 340 CURVE SMOOTH",
"381 340 OFFCURVE",
"365 364 OFFCURVE",
"340 387 CURVE SMOOTH",
"318 407 OFFCURVE",
"288 426 OFFCURVE",
"235 426 CURVE SMOOTH",
"126 426 OFFCURVE",
"75 340 OFFCURVE",
"75 210 CURVE",
"198 210 LINE",
"198 258 OFFCURVE",
"202 296 OFFCURVE",
"232 296 CURVE SMOOTH",
"261 296 OFFCURVE",
"277 272 OFFCURVE",
"302 249 CURVE SMOOTH",
"324 229 OFFCURVE",
"354 210 OFFCURVE",
"407 210 CURVE SMOOTH",
"516 210 OFFCURVE",
"567 296 OFFCURVE",
"567 426 CURVE"
);
}
);
width = 616;
}
);
note = asciitilde;
unicode = 007E;
},
{
color = 4;
glyphname = caroncomb.alt;
lastChange = "2020-07-10 12:19:54 +0000";
layers = (
{
anchors = (
{
name = _topright;
position = "{236, 544}";
}
);
layerId = "5B01CDE3-ACDA-4D2B-9E53-A993574CFD15";
paths = (
{
closed = 1;
nodes = (
"166 582 LINE",
"166 576 LINE",
"222 576 LINE",
"278 652 LINE SMOOTH",
"288 665 OFFCURVE",
"306 686 OFFCURVE",
"306 716 CURVE SMOOTH",
"306 742 OFFCURVE",
"287 760 OFFCURVE",
"262 760 CURVE SMOOTH",
"231 760 OFFCURVE",
"202 739 OFFCURVE",
"202 700 CURVE SMOOTH",
"202 680 OFFCURVE",
"215 668 OFFCURVE",
"226 664 CURVE"
);
}
);
width = 313;
},
{
anchors = (
{
name = _topright;
position = "{251, 548}";
}
);
layerId = "FA792B6B-505C-4DC3-9C40-F9BEDA01661E";
paths = (
{
closed = 1;
nodes = (
"157 544 LINE",
"157 540 LINE",
"257 540 LINE",
"293 588 LINE SMOOTH",
"312 614 OFFCURVE",
"345 657 OFFCURVE",
"345 696 CURVE SMOOTH",
"345 733 OFFCURVE",
"318 760 OFFCURVE",
"277 760 CURVE SMOOTH",
"226 760 OFFCURVE",
"189 728 OFFCURVE",
"189 680 CURVE SMOOTH",
"189 654 OFFCURVE",
"206 636 OFFCURVE",
"221 628 CURVE"
);
}
);
width = 357;
}
);
},
{
color = 4;
glyphname = apostrophemod;
lastChange = "2020-07-10 12:19:54 +0000";
layers = (
{
layerId = "5B01CDE3-ACDA-4D2B-9E53-A993574CFD15";
paths = (
{
closed = 1;
nodes = (
"115 610 LINE",
"115 604 LINE",
"171 604 LINE",
"227 680 LINE SMOOTH",
"237 693 OFFCURVE",
"255 714 OFFCURVE",
"255 744 CURVE SMOOTH",
"255 770 OFFCURVE",
"236 788 OFFCURVE",
"211 788 CURVE SMOOTH",
"180 788 OFFCURVE",
"151 767 OFFCURVE",
"151 728 CURVE SMOOTH",
"151 708 OFFCURVE",
"164 696 OFFCURVE",
"175 692 CURVE"
);
}
);
width = 212;
},
{
layerId = "FA792B6B-505C-4DC3-9C40-F9BEDA01661E";
paths = (
{
closed = 1;
nodes = (
"115 612 LINE",
"115 608 LINE",
"215 608 LINE",
"251 656 LINE SMOOTH",
"270 682 OFFCURVE",
"303 725 OFFCURVE",
"303 764 CURVE SMOOTH",
"303 801 OFFCURVE",
"276 828 OFFCURVE",
"235 828 CURVE SMOOTH",
"184 828 OFFCURVE",
"147 796 OFFCURVE",
"147 748 CURVE SMOOTH",
"147 722 OFFCURVE",
"164 704 OFFCURVE",
"179 696 CURVE"
);
}
);
width = 240;
}
);
leftMetricsKey = quotesingle;
rightMetricsKey = quotesingle;
unicode = 02BC;
},
{
color = 4;
glyphname = firsttonechinese;
lastChange = "2020-07-10 12:19:54 +0000";
layers = (
{
layerId = "5B01CDE3-ACDA-4D2B-9E53-A993574CFD15";
paths = (
{
closed = 1;
nodes = (
"220 644 LINE",
"544 644 LINE",
"560 720 LINE",
"236 720 LINE"
);
}
);
width = 612;
},
{
layerId = "FA792B6B-505C-4DC3-9C40-F9BEDA01661E";
paths = (
{
closed = 1;
nodes = (
"240 616 LINE",
"580 616 LINE",
"600 720 LINE",
"260 720 LINE"
);
}
);
width = 672;
}
);
note = uni02C9;
unicode = 02C9;
},
{
glyphname = gravecomb;
lastChange = "2020-07-10 12:19:54 +0000";
layers = (
{
anchors = (
{
name = _top;
position = "{359, 544}";
},
{
name = top;
position = "{401, 760}";
}
);
color = 4;
layerId = "5B01CDE3-ACDA-4D2B-9E53-A993574CFD15";
paths = (
{
closed = 1;
nodes = (
"404 604 LINE",
"404 608 LINE",
"344 760 LINE",
"232 760 LINE",
"232 756 LINE",
"332 604 LINE"
);
}
);
width = 612;
},
{
anchors = (
{
name = _top;
position = "{389, 548}";
},
{
name = top;
position = "{430, 760}";
}
);
color = 4;
layerId = "FA792B6B-505C-4DC3-9C40-F9BEDA01661E";
paths = (
{
closed = 1;
nodes = (
"474 604 LINE",
"474 608 LINE",
"422 760 LINE",
"250 760 LINE",
"250 756 LINE",
"342 604 LINE"
);
}
);
width = 672;
}
);
note = grave;
unicode = 0300;
},
{
glyphname = acutecomb;
lastChange = "2020-07-10 12:19:54 +0000";
layers = (
{
anchors = (
{
name = _top;
position = "{407, 544}";
},
{
name = top;
position = "{453, 760}";
}
);
color = 4;
layerId = "5B01CDE3-ACDA-4D2B-9E53-A993574CFD15";
paths = (
{
closed = 1;
nodes = (
"396 604 LINE",
"556 756 LINE",
"556 760 LINE",
"436 760 LINE",
"316 608 LINE",
"316 604 LINE"
);
}
);
width = 612;
},
{
anchors = (
{
name = _top;
position = "{416, 548}";
},
{
name = top;
position = "{461, 760}";
}
);
color = 4;
layerId = "FA792B6B-505C-4DC3-9C40-F9BEDA01661E";
paths = (
{
closed = 1;
nodes = (
"440 604 LINE",
"588 756 LINE",
"588 760 LINE",
"412 760 LINE",
"300 608 LINE",
"300 604 LINE"
);
}
);
width = 672;
}
);
note = acute;
unicode = 0301;
},
{
color = 1;
glyphname = circumflexcomb;
lastChange = "2020-07-10 12:19:54 +0000";
layers = (
{
anchors = (
{
name = _top;
position = "{359, 544}";
},
{
name = top;
position = "{401, 760}";
}
);
color = -1;
layerId = "5B01CDE3-ACDA-4D2B-9E53-A993574CFD15";
paths = (
{
closed = 1;
nodes = (
"285 604 LINE",
"391 700 LINE",
"461 604 LINE",
"533 604 LINE",
"533 608 LINE",
"452 760 LINE",
"344 760 LINE",
"201 608 LINE",
"201 604 LINE"
);
}
);
width = 612;
},
{
anchors = (
{
name = _top;
position = "{389, 548}";
},
{
name = top;
position = "{430, 760}";
}
);
color = -1;
layerId = "FA792B6B-505C-4DC3-9C40-F9BEDA01661E";
paths = (
{
closed = 1;
nodes = (
"328 604 LINE",
"413 670 LINE",
"460 604 LINE",
"556 604 LINE",
"556 608 LINE",
"496 760 LINE",
"348 760 LINE",
"216 608 LINE",
"216 604 LINE"
);
}
);
width = 672;
}
);
note = circumflex;
unicode = 0302;
},
{
glyphname = tildecomb;
lastChange = "2020-07-10 12:19:54 +0000";
layers = (
{
anchors = (
{
name = _top;
position = "{359, 544}";
},
{
name = top;
position = "{401, 760}";
}
);
color = 4;
layerId = "5B01CDE3-ACDA-4D2B-9E53-A993574CFD15";
paths = (
{
closed = 1;
nodes = (
"268 632 LINE",
"272 668 OFFCURVE",
"288 700 OFFCURVE",
"324 700 CURVE SMOOTH",
"344 700 OFFCURVE",
"359 688 OFFCURVE",
"372 672 CURVE SMOOTH",
"389 651 OFFCURVE",
"412 632 OFFCURVE",
"452 632 CURVE SMOOTH",
"516 632 OFFCURVE",
"564 688 OFFCURVE",
"572 760 CURVE",
"512 760 LINE",
"508 724 OFFCURVE",
"492 692 OFFCURVE",
"456 692 CURVE SMOOTH",
"436 692 OFFCURVE",
"421 704 OFFCURVE",
"408 720 CURVE SMOOTH",
"391 741 OFFCURVE",
"368 760 OFFCURVE",
"328 760 CURVE SMOOTH",
"264 760 OFFCURVE",
"216 704 OFFCURVE",
"208 632 CURVE"
);
}
);
width = 612;
},
{
anchors = (
{
name = _top;
position = "{389, 548}";
},
{
name = top;
position = "{430, 760}";
}
);
color = 4;
layerId = "FA792B6B-505C-4DC3-9C40-F9BEDA01661E";
paths = (
{
closed = 1;
nodes = (
"297 607 LINE",
"305 647 OFFCURVE",
"313 675 OFFCURVE",
"345 675 CURVE SMOOTH",
"368 675 OFFCURVE",
"384 659 OFFCURVE",
"401 643 CURVE SMOOTH",
"422 624 OFFCURVE",
"453 607 OFFCURVE",
"493 607 CURVE SMOOTH",
"585 607 OFFCURVE",
"625 687 OFFCURVE",
"637 771 CURVE",
"541 771 LINE",
"533 731 OFFCURVE",
"525 703 OFFCURVE",
"493 703 CURVE SMOOTH",
"470 703 OFFCURVE",
"455 716 OFFCURVE",
"437 731 CURVE SMOOTH",
"417 747 OFFCURVE",
"385 771 OFFCURVE",
"345 771 CURVE SMOOTH",
"253 771 OFFCURVE",
"213 691 OFFCURVE",
"201 607 CURVE"
);
}
);
width = 672;
}
);
note = tilde;
unicode = 0303;
},
{
glyphname = macroncomb;
lastChange = "2020-07-10 12:19:54 +0000";
layers = (
{
anchors = (
{
name = _top;
position = "{361, 544}";
},
{
name = top;
position = "{398, 720}";
}
);
color = 4;
layerId = "5B01CDE3-ACDA-4D2B-9E53-A993574CFD15";
paths = (
{
closed = 1;
nodes = (
"220 644 LINE",
"544 644 LINE",
"560 720 LINE",
"236 720 LINE"
);
}
);
width = 612;
},
{
anchors = (
{
name = _top;
position = "{394, 548}";
},
{
name = top;
position = "{431, 720}";
}
);
color = 4;
layerId = "FA792B6B-505C-4DC3-9C40-F9BEDA01661E";
paths = (
{
closed = 1;
nodes = (
"240 616 LINE",
"580 616 LINE",
"600 720 LINE",
"260 720 LINE"
);
}
);
width = 672;
}
);
note = macron;
unicode = 0304;
},
{
glyphname = brevecomb;
lastChange = "2020-07-10 12:19:54 +0000";
layers = (
{
anchors = (
{
name = _top;
position = "{369, 544}";
},
{
name = top;
position = "{415, 760}";
}
);
color = 4;
layerId = "5B01CDE3-ACDA-4D2B-9E53-A993574CFD15";
paths = (
{
closed = 1;
nodes = (
"476 620 OFFCURVE",
"528 680 OFFCURVE",
"540 760 CURVE",
"476 760 LINE",
"464 712 OFFCURVE",
"444 680 OFFCURVE",
"388 680 CURVE SMOOTH",
"336 680 OFFCURVE",
"324 712 OFFCURVE",
"328 760 CURVE",
"264 760 LINE",
"248 684 OFFCURVE",
"296 620 OFFCURVE",
"384 620 CURVE SMOOTH"
);
}
);
width = 612;
},
{
anchors = (
{
name = _top;
position = "{407, 548}";
},
{
name = top;
position = "{452, 760}";
}
);
color = 4;
layerId = "FA792B6B-505C-4DC3-9C40-F9BEDA01661E";
paths = (
{
closed = 1;
nodes = (
"528 600 OFFCURVE",
"576 680 OFFCURVE",
"587 760 CURVE",
"507 760 LINE",
"500 712 OFFCURVE",
"476 688 OFFCURVE",
"424 688 CURVE SMOOTH",
"376 688 OFFCURVE",
"356 712 OFFCURVE",
"367 760 CURVE",
"287 760 LINE",
"268 676 OFFCURVE",
"304 600 OFFCURVE",
"416 600 CURVE SMOOTH"
);
}
);
width = 672;
}
);
note = breve;
unicode = 0306;
},
{
glyphname = dotaccentcomb;
lastChange = "2020-07-10 12:19:54 +0000";
layers = (
{
anchors = (
{
name = _top;
position = "{358, 544}";
},
{
name = top;
position = "{401, 744}";
}
);
color = 4;
layerId = "5B01CDE3-ACDA-4D2B-9E53-A993574CFD15";
paths = (
{
closed = 1;
nodes = (
"414 624 OFFCURVE",
"448 652 OFFCURVE",
"448 696 CURVE SMOOTH",
"448 724 OFFCURVE",
"432 744 OFFCURVE",
"396 744 CURVE SMOOTH",
"362 744 OFFCURVE",
"328 716 OFFCURVE",
"328 672 CURVE SMOOTH",
"328 644 OFFCURVE",
"344 624 OFFCURVE",
"380 624 CURVE SMOOTH"
);
}
);
width = 612;
},
{
anchors = (
{
name = _top;
position = "{393, 548}";
},
{
name = top;
position = "{438, 760}";
}
);
color = 4;
layerId = "FA792B6B-505C-4DC3-9C40-F9BEDA01661E";
paths = (
{
closed = 1;
nodes = (
"464 608 OFFCURVE",
"500 648 OFFCURVE",
"500 696 CURVE SMOOTH",
"500 736 OFFCURVE",
"472 760 OFFCURVE",
"432 760 CURVE SMOOTH",
"380 760 OFFCURVE",
"344 720 OFFCURVE",
"344 672 CURVE SMOOTH",
"344 632 OFFCURVE",
"372 608 OFFCURVE",
"412 608 CURVE SMOOTH"
);
}
);
width = 672;
}
);
note = dotaccent;
unicode = 0307;
},
{
glyphname = dieresiscomb;
lastChange = "2020-07-10 12:19:54 +0000";
layers = (
{
anchors = (
{
name = _top;
position = "{360, 544}";
},
{
name = top;
position = "{403, 744}";
}
);
color = 4;
layerId = "5B01CDE3-ACDA-4D2B-9E53-A993574CFD15";
paths = (
{
closed = 1;
nodes = (
"514 624 OFFCURVE",
"548 652 OFFCURVE",
"548 696 CURVE SMOOTH",
"548 724 OFFCURVE",
"532 744 OFFCURVE",
"496 744 CURVE SMOOTH",
"462 744 OFFCURVE",
"428 716 OFFCURVE",
"428 672 CURVE SMOOTH",
"428 644 OFFCURVE",
"444 624 OFFCURVE",
"480 624 CURVE SMOOTH"
);
},
{
closed = 1;
nodes = (
"318 624 OFFCURVE",
"352 652 OFFCURVE",
"352 696 CURVE SMOOTH",
"352 724 OFFCURVE",
"336 744 OFFCURVE",
"300 744 CURVE SMOOTH",
"266 744 OFFCURVE",
"232 716 OFFCURVE",
"232 672 CURVE SMOOTH",
"232 644 OFFCURVE",
"248 624 OFFCURVE",
"284 624 CURVE SMOOTH"
);
}
);
width = 612;
},
{
anchors = (
{
name = _top;
position = "{395, 548}";
},
{
name = top;
position = "{439, 756}";
}
);
color = 4;
layerId = "FA792B6B-505C-4DC3-9C40-F9BEDA01661E";
paths = (
{
closed = 1;
nodes = (
"564 612 OFFCURVE",
"596 652 OFFCURVE",
"596 696 CURVE SMOOTH",
"596 732 OFFCURVE",
"572 756 OFFCURVE",
"532 756 CURVE SMOOTH",
"480 756 OFFCURVE",
"448 716 OFFCURVE",
"448 672 CURVE SMOOTH",
"448 636 OFFCURVE",
"472 612 OFFCURVE",
"512 612 CURVE SMOOTH"
);
},
{
closed = 1;
nodes = (
"368 612 OFFCURVE",
"400 652 OFFCURVE",
"400 696 CURVE SMOOTH",
"400 732 OFFCURVE",
"376 756 OFFCURVE",
"336 756 CURVE SMOOTH",
"284 756 OFFCURVE",
"252 716 OFFCURVE",
"252 672 CURVE SMOOTH",
"252 636 OFFCURVE",
"276 612 OFFCURVE",
"316 612 CURVE SMOOTH"
);
}
);
width = 672;
}
);
note = dieresis;
unicode = 0308;
},
{
color = 9;
glyphname = hookabovecomb;
lastChange = "2020-07-10 12:19:54 +0000";
layers = (
{
anchors = (
{
name = _top;
position = "{345, 544}";
},
{
name = top;
position = "{397, 815}";
}
);
layerId = "5B01CDE3-ACDA-4D2B-9E53-A993574CFD15";
paths = (
{
closed = 1;
nodes = (
"372 623 LINE",
"403 669 OFFCURVE",
"464 686 OFFCURVE",
"469 748 CURVE SMOOTH",
"472 785 OFFCURVE",
"445 815 OFFCURVE",
"400 815 CURVE SMOOTH",
"349 815 OFFCURVE",
"313 785 OFFCURVE",
"288 749 CURVE",
"318 728 LINE",
"333 746 OFFCURVE",
"352 765 OFFCURVE",
"376 765 CURVE SMOOTH",
"392 765 OFFCURVE",
"404 752 OFFCURVE",
"403 734 CURVE SMOOTH",
"401 694 OFFCURVE",
"347 680 OFFCURVE",
"326 637 CURVE"
);
}
);
width = 600;
},
{
anchors = (
{
name = _top;
position = "{367, 548}";
},
{
name = top;
position = "{423, 834}";
}
);
layerId = "FA792B6B-505C-4DC3-9C40-F9BEDA01661E";
paths = (
{
closed = 1;
nodes = (
"400 610 LINE",
"430 650 OFFCURVE",
"499 685 OFFCURVE",
"508 739 CURVE SMOOTH",
"517 793 OFFCURVE",
"486 834 OFFCURVE",
"421 834 CURVE SMOOTH",
"377 834 OFFCURVE",
"333 809 OFFCURVE",
"293 759 CURVE",
"337 721 LINE",
"351 737 OFFCURVE",
"370 753 OFFCURVE",
"391 753 CURVE SMOOTH",
"405 753 OFFCURVE",
"414 742 OFFCURVE",
"411 727 CURVE SMOOTH",
"404 692 OFFCURVE",
"359 680 OFFCURVE",
"337 642 CURVE"
);
}
);
width = 600;
}
);
unicode = 0309;
},
{
glyphname = ringcomb;
lastChange = "2020-07-10 12:19:54 +0000";
layers = (
{
anchors = (
{
name = _top;
position = "{359, 544}";
},
{
name = top;
position = "{416, 836}";
}
);
color = 4;
layerId = "5B01CDE3-ACDA-4D2B-9E53-A993574CFD15";
paths = (
{
closed = 1;
nodes = (
"454 604 OFFCURVE",
"518 656 OFFCURVE",
"518 736 CURVE SMOOTH",
"518 800 OFFCURVE",
"474 836 OFFCURVE",
"406 836 CURVE SMOOTH",
"338 836 OFFCURVE",
"274 784 OFFCURVE",
"274 704 CURVE SMOOTH",
"274 640 OFFCURVE",
"318 604 OFFCURVE",
"386 604 CURVE SMOOTH"
);
},
{
closed = 1;
nodes = (
"353 652 OFFCURVE",
"328 667 OFFCURVE",
"328 708 CURVE SMOOTH",
"328 755 OFFCURVE",
"364 788 OFFCURVE",
"406 788 CURVE SMOOTH",
"439 788 OFFCURVE",
"464 773 OFFCURVE",
"464 732 CURVE SMOOTH",
"464 685 OFFCURVE",
"428 652 OFFCURVE",
"386 652 CURVE SMOOTH"
);
}
);
width = 612;
},
{
anchors = (
{
name = _top;
position = "{389, 548}";
},
{
name = top;
position = "{445, 836}";
}
);
color = 4;
layerId = "FA792B6B-505C-4DC3-9C40-F9BEDA01661E";
paths = (
{
closed = 1;
nodes = (
"483 602 OFFCURVE",
"547 650 OFFCURVE",
"547 734 CURVE SMOOTH",
"547 798 OFFCURVE",
"503 838 OFFCURVE",
"435 838 CURVE SMOOTH",
"363 838 OFFCURVE",
"299 790 OFFCURVE",
"299 706 CURVE SMOOTH",
"299 642 OFFCURVE",
"343 602 OFFCURVE",
"411 602 CURVE SMOOTH"
);
},
{
closed = 1;
nodes = (
"387 664 OFFCURVE",
"367 682 OFFCURVE",
"367 710 CURVE SMOOTH",
"367 749 OFFCURVE",
"395 776 OFFCURVE",
"431 776 CURVE SMOOTH",
"459 776 OFFCURVE",
"479 758 OFFCURVE",
"479 730 CURVE SMOOTH",
"479 691 OFFCURVE",
"451 664 OFFCURVE",
"415 664 CURVE SMOOTH"
);
}
);
width = 672;
}
);
note = ring;
unicode = 030A;
},
{
glyphname = hungarumlautcomb;
lastChange = "2020-07-10 12:19:54 +0000";
layers = (
{
anchors = (
{
name = _top;
position = "{407, 544}";
},
{
name = top;
position = "{453, 760}";
}
);
color = 4;
layerId = "5B01CDE3-ACDA-4D2B-9E53-A993574CFD15";
paths = (
{
closed = 1;
nodes = (
"480 604 LINE",
"640 756 LINE",
"640 760 LINE",
"532 760 LINE",
"408 608 LINE",
"408 604 LINE"
);
},
{
closed = 1;
nodes = (
"304 604 LINE",
"464 756 LINE",
"464 760 LINE",
"356 760 LINE",
"232 608 LINE",
"232 604 LINE"
);
}
);
width = 612;
},
{
anchors = (
{
name = _top;
position = "{432, 548}";
},
{
name = top;
position = "{477, 760}";
}
);
color = 4;
layerId = "FA792B6B-505C-4DC3-9C40-F9BEDA01661E";
paths = (
{
closed = 1;
nodes = (
"552 604 LINE",
"700 756 LINE",
"700 760 LINE",
"540 760 LINE",
"428 608 LINE",
"428 604 LINE"
);
},
{
closed = 1;
nodes = (
"344 604 LINE",
"492 756 LINE",
"492 760 LINE",
"332 760 LINE",
"220 608 LINE",
"220 604 LINE"
);
}
);
width = 672;
}
);
note = hungarumlaut;
unicode = 030B;
},
{
glyphname = caroncomb;
lastChange = "2020-07-10 12:19:54 +0000";
layers = (
{
anchors = (
{
name = _top;
position = "{359, 544}";
},
{
name = top;
position = "{401, 760}";
}
);
color = 4;
layerId = "5B01CDE3-ACDA-4D2B-9E53-A993574CFD15";
paths = (
{
closed = 1;
nodes = (
"423 604 LINE",
"566 756 LINE",
"566 760 LINE",
"482 760 LINE",
"375 663 LINE",
"306 760 LINE",
"234 760 LINE",
"234 756 LINE",
"315 604 LINE"
);
}
);
width = 612;
},
{
anchors = (
{
name = _top;
position = "{389, 548}";
},
{
name = top;
position = "{430, 760}";
}
);
color = 4;
layerId = "FA792B6B-505C-4DC3-9C40-F9BEDA01661E";
paths = (
{
closed = 1;
nodes = (
"480 604 LINE",
"612 756 LINE",
"612 760 LINE",
"500 760 LINE",
"414 693 LINE",
"368 760 LINE",
"272 760 LINE",
"272 756 LINE",
"332 604 LINE"
);
}
);
width = 672;
}
);
note = caron;
unicode = 030C;
},
{
color = 1;
glyphname = breveinvertedcomb;
lastChange = "2020-07-10 12:19:54 +0000";
layers = (
{
anchors = (
{
name = _top;
position = "{341, 544}";
},
{
name = top;
position = "{383, 760}";
}
);
layerId = "5B01CDE3-ACDA-4D2B-9E53-A993574CFD15";
paths = (
{
closed = 1;
nodes = (
"291 760 OFFCURVE",
"239 700 OFFCURVE",
"227 620 CURVE",
"291 620 LINE",
"303 668 OFFCURVE",
"323 700 OFFCURVE",
"379 700 CURVE SMOOTH",
"431 700 OFFCURVE",
"443 668 OFFCURVE",
"439 620 CURVE",
"503 620 LINE",
"519 696 OFFCURVE",
"471 760 OFFCURVE",
"383 760 CURVE SMOOTH"
);
}
);
width = 600;
},
{
anchors = (
{
name = _top;
position = "{341, 548}";
},
{
name = top;
position = "{382, 760}";
}
);
layerId = "FA792B6B-505C-4DC3-9C40-F9BEDA01661E";
paths = (
{
closed = 1;
nodes = (
"261 760 OFFCURVE",
"213 680 OFFCURVE",
"202 600 CURVE",
"282 600 LINE",
"289 648 OFFCURVE",
"313 672 OFFCURVE",
"365 672 CURVE SMOOTH",
"413 672 OFFCURVE",
"433 648 OFFCURVE",
"422 600 CURVE",
"502 600 LINE",
"521 684 OFFCURVE",
"485 760 OFFCURVE",
"373 760 CURVE SMOOTH"
);
}
);
width = 600;
}
);
unicode = 0311;
},
